ArcadiaTextbook.ufo
<glyph name="dollar" format="1">
  <advance width="556"/>
  <unicode hex="0024"/>
  <outline>
    <contour>
      <point x="518" y="195" type="qcurve" smooth="yes"/>
      <point x="518" y="99"/>
      <point x="407" y="-16"/>
      <point x="302" y="-23" type="qcurve"/>
      <point x="302" y="-126" type="line"/>
      <point x="243" y="-126" type="line"/>
      <point x="243" y="-23" type="line"/>
      <point x="142" y="-16"/>
      <point x="33" y="94"/>
      <point x="33" y="191" type="qcurve" smooth="yes"/>
      <point x="33" y="208" type="line"/>
      <point x="112" y="208" type="line"/>
      <point x="114" y="188"/>
      <point x="115" y="175"/>
      <point x="121" y="138"/>
      <point x="128" y="123"/>
      <point x="141" y="93"/>
      <point x="159" y="78"/>
      <point x="185" y="60"/>
      <point x="221" y="49"/>
      <point x="243" y="46" type="qcurve"/>
      <point x="243" y="318" type="line"/>
      <point x="150" y="346"/>
      <point x="117" y="370" type="qcurve" smooth="yes"/>
      <point x="46" y="421"/>
      <point x="46" y="516" type="qcurve" smooth="yes"/>
      <point x="46" y="601"/>
      <point x="147" y="704"/>
      <point x="243" y="716" type="qcurve"/>
      <point x="243" y="770" type="line"/>
      <point x="302" y="770" type="line"/>
      <point x="302" y="716" type="line"/>
      <point x="393" y="709"/>
      <point x="496" y="604"/>
      <point x="496" y="519" type="qcurve"/>
      <point x="417" y="519" type="line"/>
      <point x="416" y="574"/>
      <point x="352" y="644"/>
      <point x="302" y="646" type="qcurve"/>
      <point x="302" y="397" type="line"/>
      <point x="306" y="396"/>
      <point x="358" y="382"/>
      <point x="386" y="372"/>
      <point x="437" y="350"/>
      <point x="468" y="323"/>
      <point x="502" y="284"/>
      <point x="518" y="228"/>
    </contour>
    <contour>
      <point x="243" y="405" type="qcurve"/>
      <point x="243" y="645" type="line"/>
      <point x="187" y="637"/>
      <point x="127" y="575"/>
      <point x="127" y="526" type="qcurve" smooth="yes"/>
      <point x="127" y="436"/>
    </contour>
    <contour>
      <point x="302" y="46" type="line"/>
      <point x="369" y="54"/>
      <point x="436" y="128"/>
      <point x="436" y="183" type="qcurve" smooth="yes"/>
      <point x="436" y="232"/>
      <point x="379" y="286"/>
      <point x="302" y="309" type="qcurve"/>
    </contour>
  </outline>
</glyph>
<glyph name="percent" format="1">
  <advance width="889"/>
  <unicode hex="0025"/>
  <outline>
    <contour>
      <point x="199" y="685" type="qcurve" smooth="yes"/>
      <point x="271" y="685"/>
      <point x="370" y="585"/>
      <point x="370" y="512" type="qcurve" smooth="yes"/>
      <point x="370" y="443"/>
      <point x="270" y="343"/>
      <point x="130" y="343"/>
      <point x="29" y="444"/>
      <point x="29" y="584"/>
      <point x="129" y="685"/>
    </contour>
    <contour>
      <point x="199" y="615" type="qcurve" smooth="yes"/>
      <point x="158" y="615"/>
      <point x="98" y="556"/>
      <point x="98" y="514" type="qcurve" smooth="yes"/>
      <point x="98" y="473"/>
      <point x="158" y="413"/>
      <point x="200" y="413" type="qcurve" smooth="yes"/>
      <point x="241" y="413"/>
      <point x="301" y="472"/>
      <point x="301" y="513" type="qcurve" smooth="yes"/>
      <point x="301" y="556"/>
      <point x="242" y="615"/>
    </contour>
    <contour>
      <point x="609" y="709" type="line"/>
      <point x="675" y="709" type="line"/>
      <point x="280" y="-20" type="line"/>
      <point x="214" y="-20" type="line"/>
    </contour>
    <contour>
      <point x="688" y="322" type="qcurve" smooth="yes"/>
      <point x="760" y="322"/>
      <point x="859" y="222"/>
      <point x="859" y="150" type="qcurve" smooth="yes"/>
      <point x="859" y="81"/>
      <point x="758" y="-19"/>
      <point x="689" y="-19" type="qcurve" smooth="yes"/>
      <point x="618" y="-19"/>
      <point x="518" y="82"/>
      <point x="518" y="222"/>
      <point x="618" y="322"/>
    </contour>
    <contour>
      <point x="688" y="252" type="qcurve" smooth="yes"/>
      <point x="647" y="252"/>
      <point x="587" y="193"/>
      <point x="587" y="152" type="qcurve" smooth="yes"/>
      <point x="587" y="110"/>
      <point x="647" y="51"/>
      <point x="689" y="51" type="qcurve" smooth="yes"/>
      <point x="730" y="51"/>
      <point x="790" y="110"/>
      <point x="790" y="150" type="qcurve" smooth="yes"/>
      <point x="790" y="193"/>
      <point x="731" y="252"/>
    </contour>
  </outline>
</glyph>
<glyph name="ampersand" format="1">
  <advance width="667"/>
  <unicode hex="0026"/>
  <outline>
    <contour>
      <point x="466" y="78" type="line"/>
      <point x="455" y="68"/>
      <point x="431" y="43"/>
      <point x="392" y="15"/>
      <point x="350" y="-8"/>
      <point x="289" y="-23"/>
      <point x="257" y="-23" type="qcurve" smooth="yes"/>
      <point x="165" y="-23"/>
      <point x="52" y="86"/>
      <point x="52" y="176" type="qcurve" smooth="yes"/>
      <point x="52" y="244"/>
      <point x="121" y="335"/>
      <point x="214" y="389" type="qcurve"/>
      <point x="167" y="448"/>
      <point x="133" y="517"/>
      <point x="133" y="552" type="qcurve" smooth="yes"/>
      <point x="133" y="618"/>
      <point x="233" y="709"/>
      <point x="375" y="709"/>
      <point x="467" y="621"/>
      <point x="467" y="552" type="qcurve" smooth="yes"/>
      <point x="467" y="498"/>
      <point x="407" y="422"/>
      <point x="329" y="378" type="qcurve"/>
      <point x="462" y="215" type="line"/>
      <point x="493" y="270"/>
      <point x="493" y="330" type="qcurve" smooth="yes"/>
      <point x="493" y="334" type="line"/>
      <point x="573" y="334" type="line"/>
      <point x="573" y="240"/>
      <point x="515" y="151" type="qcurve"/>
      <point x="637" y="0" type="line"/>
      <point x="528" y="0" type="line"/>
    </contour>
    <contour>
      <point x="285" y="431" type="qcurve"/>
      <point x="344" y="468"/>
      <point x="388" y="520"/>
      <point x="388" y="554" type="qcurve" smooth="yes"/>
      <point x="388" y="591"/>
      <point x="339" y="639"/>
      <point x="301" y="639" type="qcurve" smooth="yes"/>
      <point x="262" y="639"/>
      <point x="215" y="592"/>
      <point x="215" y="553" type="qcurve" smooth="yes"/>
      <point x="215" y="526"/>
      <point x="240" y="483"/>
    </contour>
    <contour>
      <point x="418" y="137" type="qcurve"/>
      <point x="258" y="337" type="line"/>
      <point x="190" y="294"/>
      <point x="136" y="225"/>
      <point x="136" y="183" type="qcurve" smooth="yes"/>
      <point x="136" y="130"/>
      <point x="213" y="55"/>
      <point x="267" y="55" type="qcurve" smooth="yes"/>
      <point x="340" y="55"/>
    </contour>
  </outline>
</glyph>
<glyph name="quotesingle" format="1">
  <advance width="191"/>
  <unicode hex="0027"/>
  <outline>
    <contour>
      <point x="48" y="709" type="line"/>
      <point x="142" y="709" type="line"/>
      <point x="142" y="598" type="line"/>
      <point x="115" y="464" type="line"/>
      <point x="75" y="464" type="line"/>
      <point x="48" y="598" type="line"/>
    </contour>
  </outline>
</glyph>
<glyph name="parenleft" format="1">
  <advance width="333"/>
  <unicode hex="0028"/>
  <outline>
    <contour>
      <point x="236" y="729" type="qcurve"/>
      <point x="291" y="729" type="line"/>
      <point x="154" y="508"/>
      <point x="154" y="259" type="qcurve" smooth="yes"/>
      <point x="154" y="11"/>
      <point x="291" y="-212" type="qcurve"/>
      <point x="236" y="-212" type="line"/>
      <point x="161" y="-114"/>
      <point x="73" y="141"/>
      <point x="73" y="377"/>
      <point x="161" y="631"/>
    </contour>
  </outline>
</glyph>
<glyph name="parenright" format="1">
  <advance width="333"/>
  <unicode hex="0029"/>
  <outline>
    <contour>
      <point x="93" y="-212" type="qcurve"/>
      <point x="38" y="-212" type="line"/>
      <point x="175" y="9"/>
      <point x="175" y="258" type="qcurve" smooth="yes"/>
      <point x="175" y="506"/>
      <point x="38" y="729" type="qcurve"/>
      <point x="93" y="729" type="line"/>
      <point x="168" y="631"/>
      <point x="256" y="376"/>
      <point x="256" y="140"/>
      <point x="168" y="-114"/>
    </contour>
  </outline>
</glyph>
<glyph name="comma" format="1">
  <advance width="278"/>
  <unicode hex="002C"/>
  <outline>
    <contour>
      <point x="87" y="104" type="line"/>
      <point x="192" y="104" type="line"/>
      <point x="192" y="-16" type="line" smooth="yes"/>
      <point x="192" y="-147"/>
      <point x="87" y="-147" type="qcurve"/>
      <point x="87" y="-109" type="line"/>
      <point x="122" y="-108"/>
      <point x="147" y="-70"/>
      <point x="147" y="-18" type="qcurve" smooth="yes"/>
      <point x="147" y="0" type="line"/>
      <point x="87" y="0" type="line"/>
    </contour>
  </outline>
</glyph>
<glyph name="period" format="1">
  <advance width="278"/>
  <unicode hex="002E"/>
  <outline>
    <contour>
      <point x="191" y="104" type="line"/>
      <point x="191" y="0" type="line"/>
      <point x="87" y="0" type="line"/>
      <point x="87" y="104" type="line"/>
    </contour>
  </outline>
</glyph>
<glyph name="zero" format="1">
  <advance width="556"/>
  <unicode hex="0030"/>
  <outline>
    <contour>
      <point x="43" y="343" type="qcurve" smooth="yes"/>
      <point x="43" y="432"/>
      <point x="73" y="568"/>
      <point x="119" y="645"/>
      <point x="183" y="693"/>
      <point x="242" y="709"/>
      <point x="275" y="709" type="qcurve" smooth="yes"/>
      <point x="507" y="709"/>
      <point x="507" y="337" type="qcurve" smooth="yes"/>
      <point x="507" y="162"/>
      <point x="388" y="-23"/>
      <point x="275" y="-23" type="qcurve" smooth="yes"/>
      <point x="161" y="-23"/>
      <point x="43" y="164"/>
    </contour>
    <contour>
      <point x="133" y="342" type="qcurve" smooth="yes"/>
      <point x="133" y="50"/>
      <point x="273" y="50" type="qcurve" smooth="yes"/>
      <point x="347" y="50"/>
      <point x="417" y="194"/>
      <point x="417" y="345" type="qcurve" smooth="yes"/>
      <point x="417" y="631"/>
      <point x="133" y="631"/>
    </contour>
  </outline>
</glyph>
<glyph name="one" format="1">
  <advance width="386"/>
  <unicode hex="0031"/>
  <outline>
    <contour>
      <point x="236" y="0" type="line"/>
      <point x="148" y="0" type="line"/>
      <point x="148" y="687" type="line"/>
      <point x="236" y="687" type="line"/>
    </contour>
  </outline>
</glyph>
<glyph name="two" format="1">
  <advance width="556"/>
  <unicode hex="0032"/>
  <outline>
    <contour>
      <point x="50" y="463" type="line"/>
      <point x="57" y="709"/>
      <point x="284" y="709" type="qcurve" smooth="yes"/>
      <point x="385" y="709"/>
      <point x="511" y="593"/>
      <point x="511" y="501" type="qcurve" smooth="yes"/>
      <point x="511" y="369"/>
      <point x="361" y="287" type="qcurve" smooth="yes"/>
      <point x="261" y="233" type="line" smooth="yes"/>
      <point x="196" y="198"/>
      <point x="140" y="132"/>
      <point x="133" y="87" type="qcurve"/>
      <point x="506" y="87" type="line"/>
      <point x="506" y="0" type="line"/>
      <point x="34" y="0" type="line"/>
      <point x="40" y="117"/>
      <point x="122" y="244"/>
      <point x="233" y="307" type="qcurve" smooth="yes"/>
      <point x="325" y="359" type="line" smooth="yes"/>
      <point x="421" y="414"/>
      <point x="421" y="499" type="qcurve" smooth="yes"/>
      <point x="421" y="556"/>
      <point x="341" y="632"/>
      <point x="281" y="632" type="qcurve" smooth="yes"/>
      <point x="148" y="632"/>
      <point x="138" y="463" type="qcurve"/>
    </contour>
  </outline>
</glyph>
<glyph name="three" format="1">
  <advance width="556"/>
  <unicode hex="0033"/>
  <outline>
    <contour>
      <point x="270" y="632" type="qcurve" smooth="yes"/>
      <point x="194" y="632"/>
      <point x="137" y="549"/>
      <point x="135" y="480" type="qcurve"/>
      <point x="47" y="480" type="line"/>
      <point x="52" y="709"/>
      <point x="269" y="709" type="qcurve" smooth="yes"/>
      <point x="370" y="709"/>
      <point x="485" y="605"/>
      <point x="485" y="514" type="qcurve" smooth="yes"/>
      <point x="485" y="406"/>
      <point x="386" y="367" type="qcurve"/>
      <point x="450" y="345"/>
      <point x="506" y="266"/>
      <point x="506" y="198" type="qcurve" smooth="yes"/>
      <point x="506" y="97"/>
      <point x="375" y="-23"/>
      <point x="266" y="-23" type="qcurve" smooth="yes"/>
      <point x="48" y="-23"/>
      <point x="32" y="206" type="qcurve"/>
      <point x="120" y="206" type="line"/>
      <point x="125" y="129"/>
      <point x="197" y="55"/>
      <point x="269" y="55" type="qcurve" smooth="yes"/>
      <point x="338" y="55"/>
      <point x="416" y="130"/>
      <point x="416" y="197" type="qcurve" smooth="yes"/>
      <point x="416" y="326"/>
      <point x="269" y="326" type="qcurve" smooth="yes"/>
      <point x="232" y="325" type="line"/>
      <point x="221" y="325" type="line"/>
      <point x="221" y="400" type="line"/>
      <point x="316" y="402"/>
      <point x="395" y="446"/>
      <point x="395" y="511" type="qcurve" smooth="yes"/>
      <point x="395" y="567"/>
      <point x="328" y="632"/>
    </contour>
  </outline>
</glyph>
<glyph name="four" format="1">
  <advance width="554"/>
  <unicode hex="0034"/>
  <outline>
    <contour>
      <point x="355" y="709" type="line"/>
      <point x="443" y="709" type="line"/>
      <point x="443" y="338.333" type="line"/>
      <point x="518" y="338.333" type="line"/>
      <point x="518" y="259.333" type="line"/>
      <point x="443" y="259.333" type="line"/>
      <point x="443" y="0" type="line"/>
      <point x="355" y="0" type="line"/>
      <point x="355" y="259.333" type="line"/>
      <point x="46" y="259.333" type="line"/>
      <point x="46" y="709" type="line"/>
      <point x="134" y="709" type="line"/>
      <point x="134" y="338.333" type="line"/>
      <point x="355" y="338.333" type="line"/>
    </contour>
  </outline>
</glyph>
<glyph name="five" format="1">
  <advance width="556"/>
  <unicode hex="0035"/>
  <outline>
    <contour>
      <point x="476" y="709" type="line"/>
      <point x="476" y="622" type="line"/>
      <point x="181" y="622" type="line"/>
      <point x="153" y="424" type="line"/>
      <point x="212" y="467"/>
      <point x="284" y="467" type="qcurve" smooth="yes"/>
      <point x="386" y="467"/>
      <point x="513" y="336"/>
      <point x="513" y="231" type="qcurve" smooth="yes"/>
      <point x="513" y="119"/>
      <point x="377" y="-23"/>
      <point x="270" y="-23" type="qcurve" smooth="yes"/>
      <point x="229" y="-23"/>
      <point x="160" y="-5"/>
      <point x="115" y="20"/>
      <point x="78" y="61"/>
      <point x="59" y="92"/>
      <point x="42" y="139"/>
      <point x="38" y="157"/>
      <point x="35" y="174" type="qcurve"/>
      <point x="123" y="174" type="line"/>
      <point x="154" y="55"/>
      <point x="268" y="55" type="qcurve" smooth="yes"/>
      <point x="340" y="55"/>
      <point x="423" y="143"/>
      <point x="423" y="219" type="qcurve" smooth="yes"/>
      <point x="423" y="298"/>
      <point x="339" y="389"/>
      <point x="268" y="389" type="qcurve" smooth="yes"/>
      <point x="227" y="389"/>
      <point x="169" y="360"/>
      <point x="138" y="323" type="qcurve"/>
      <point x="57" y="323" type="line"/>
      <point x="110" y="709" type="line"/>
    </contour>
  </outline>
</glyph>
<glyph name="six" format="1">
  <advance width="556"/>
  <unicode hex="0036"/>
  <outline>
    <contour>
      <point x="43" y="323" type="qcurve" smooth="yes"/>
      <point x="43" y="417"/>
      <point x="77" y="560"/>
      <point x="128" y="642"/>
      <point x="199" y="693"/>
      <point x="262" y="709"/>
      <point x="297" y="709" type="qcurve" smooth="yes"/>
      <point x="378" y="709"/>
      <point x="485" y="611"/>
      <point x="498" y="524" type="qcurve"/>
      <point x="410" y="524" type="line"/>
      <point x="399" y="575"/>
      <point x="337" y="631"/>
      <point x="291" y="631" type="qcurve" smooth="yes"/>
      <point x="215" y="631"/>
      <point x="134" y="492"/>
      <point x="133" y="362" type="qcurve"/>
      <point x="191" y="441"/>
      <point x="296" y="441" type="qcurve" smooth="yes"/>
      <point x="391" y="441"/>
      <point x="513" y="315"/>
      <point x="513" y="216" type="qcurve" smooth="yes"/>
      <point x="513" y="112"/>
      <point x="382" y="-23"/>
      <point x="281" y="-23" type="qcurve" smooth="yes"/>
      <point x="43" y="-23"/>
    </contour>
    <contour>
      <point x="285" y="363" type="qcurve" smooth="yes"/>
      <point x="220" y="363"/>
      <point x="138" y="280"/>
      <point x="138" y="214" type="qcurve" smooth="yes"/>
      <point x="138" y="146"/>
      <point x="220" y="55"/>
      <point x="282" y="55" type="qcurve" smooth="yes"/>
      <point x="343" y="55"/>
      <point x="423" y="142"/>
      <point x="423" y="209" type="qcurve" smooth="yes"/>
      <point x="423" y="280"/>
      <point x="349" y="363"/>
    </contour>
  </outline>
</glyph>
<glyph name="seven" format="1">
  <advance width="556"/>
  <unicode hex="0037"/>
  <outline>
    <contour>
      <point x="520" y="709" type="line"/>
      <point x="520" y="635" type="line"/>
      <point x="400" y="475"/>
      <point x="261" y="170"/>
      <point x="232" y="0" type="qcurve"/>
      <point x="138" y="0" type="line"/>
      <point x="178" y="175"/>
      <point x="302" y="441"/>
      <point x="429" y="622" type="qcurve"/>
      <point x="46" y="622" type="line"/>
      <point x="46" y="709" type="line"/>
    </contour>
  </outline>
</glyph>
<glyph name="eight" format="1">
  <advance width="556"/>
  <unicode hex="0038"/>
  <outline>
    <contour>
      <point x="391" y="373" type="qcurve"/>
      <point x="513" y="315"/>
      <point x="513" y="196" type="qcurve" smooth="yes"/>
      <point x="513" y="99"/>
      <point x="380" y="-23"/>
      <point x="170" y="-23"/>
      <point x="37" y="100"/>
      <point x="37" y="197" type="qcurve" smooth="yes"/>
      <point x="37" y="315"/>
      <point x="158" y="373" type="qcurve"/>
      <point x="104" y="407"/>
      <point x="62" y="471"/>
      <point x="62" y="520" type="qcurve" smooth="yes"/>
      <point x="62" y="603"/>
      <point x="181" y="709"/>
      <point x="369" y="709"/>
      <point x="488" y="603"/>
      <point x="488" y="520" type="qcurve" smooth="yes"/>
      <point x="488" y="470"/>
      <point x="446" y="406"/>
    </contour>
    <contour>
      <point x="152" y="519" type="qcurve" smooth="yes"/>
      <point x="152" y="469"/>
      <point x="219" y="408"/>
      <point x="275" y="408" type="qcurve" smooth="yes"/>
      <point x="330" y="408"/>
      <point x="398" y="468"/>
      <point x="398" y="518" type="qcurve" smooth="yes"/>
      <point x="398" y="570"/>
      <point x="331" y="631"/>
      <point x="219" y="631"/>
      <point x="152" y="570"/>
    </contour>
    <contour>
      <point x="273" y="55" type="qcurve" smooth="yes"/>
      <point x="340" y="55"/>
      <point x="423" y="132"/>
      <point x="423" y="195" type="qcurve" smooth="yes"/>
      <point x="423" y="257"/>
      <point x="341" y="334"/>
      <point x="209" y="334"/>
      <point x="127" y="257"/>
      <point x="127" y="133"/>
      <point x="208" y="55"/>
    </contour>
  </outline>
</glyph>
<glyph name="nine" format="1">
  <advance width="556"/>
  <unicode hex="0039"/>
  <outline>
    <contour>
      <point x="509" y="363" type="qcurve" smooth="yes"/>
      <point x="509" y="269"/>
      <point x="475" y="126"/>
      <point x="424" y="44"/>
      <point x="353" y="-7"/>
      <point x="289" y="-23"/>
      <point x="254" y="-23" type="qcurve" smooth="yes"/>
      <point x="173" y="-23"/>
      <point x="66" y="75"/>
      <point x="53" y="162" type="qcurve"/>
      <point x="141" y="162" type="line"/>
      <point x="152" y="111"/>
      <point x="214" y="55"/>
      <point x="260" y="55" type="qcurve" smooth="yes"/>
      <point x="336" y="55"/>
      <point x="417" y="194"/>
      <point x="418" y="324" type="qcurve"/>
      <point x="352" y="245"/>
      <point x="160" y="245"/>
      <point x="38" y="371"/>
      <point x="38" y="470" type="qcurve" smooth="yes"/>
      <point x="38" y="574"/>
      <point x="169" y="709"/>
      <point x="270" y="709" type="qcurve" smooth="yes"/>
      <point x="509" y="709"/>
    </contour>
    <contour>
      <point x="269" y="632" type="qcurve" smooth="yes"/>
      <point x="208" y="632"/>
      <point x="128" y="544"/>
      <point x="128" y="477" type="qcurve" smooth="yes"/>
      <point x="128" y="406"/>
      <point x="202" y="323"/>
      <point x="330" y="323"/>
      <point x="413" y="407"/>
      <point x="413" y="472" type="qcurve" smooth="yes"/>
      <point x="413" y="541"/>
      <point x="331" y="632"/>
    </contour>
  </outline>
</glyph>
<glyph name="semicolon" format="1">
  <advance width="278"/>
  <unicode hex="003B"/>
  <outline>
    <contour>
      <point x="215" y="524" type="line"/>
      <point x="215" y="420" type="line"/>
      <point x="111" y="420" type="line"/>
      <point x="111" y="524" type="line"/>
    </contour>
    <contour>
      <point x="110" y="104" type="line"/>
      <point x="215" y="104" type="line"/>
      <point x="215" y="-16" type="line" smooth="yes"/>
      <point x="215" y="-147"/>
      <point x="110" y="-147" type="qcurve"/>
      <point x="110" y="-109" type="line"/>
      <point x="145" y="-108"/>
      <point x="170" y="-70"/>
      <point x="170" y="-18" type="qcurve" smooth="yes"/>
      <point x="170" y="0" type="line"/>
      <point x="110" y="0" type="line"/>
    </contour>
  </outline>
</glyph>
<glyph name="at" format="1">
  <advance width="1015"/>
  <unicode hex="0040"/>
  <outline>
    <contour>
      <point x="665" y="501" type="line"/>
      <point x="748" y="501" type="line"/>
      <point x="658" y="221" type="line" smooth="yes"/>
      <point x="646" y="186"/>
      <point x="646" y="171" type="qcurve" smooth="yes"/>
      <point x="646" y="153"/>
      <point x="676" y="127"/>
      <point x="696" y="127" type="qcurve" smooth="yes"/>
      <point x="760" y="127"/>
      <point x="864" y="269"/>
      <point x="864" y="357" type="qcurve" smooth="yes"/>
      <point x="864" y="482"/>
      <point x="655" y="664"/>
      <point x="512" y="664" type="qcurve" smooth="yes"/>
      <point x="354" y="664"/>
      <point x="119" y="430"/>
      <point x="119" y="273" type="qcurve" smooth="yes"/>
      <point x="119" y="130"/>
      <point x="335" y="-65"/>
      <point x="494" y="-65" type="qcurve" smooth="yes"/>
      <point x="573" y="-65"/>
      <point x="687" y="-33" type="qcurve"/>
      <point x="715" y="-100" type="line"/>
      <point x="603" y="-142"/>
      <point x="489" y="-142" type="qcurve" smooth="yes"/>
      <point x="365" y="-142"/>
      <point x="155" y="-35"/>
      <point x="34" y="149"/>
      <point x="34" y="258" type="qcurve" smooth="yes"/>
      <point x="34" y="356"/>
      <point x="118" y="545"/>
      <point x="192" y="612" type="qcurve" smooth="yes"/>
      <point x="258" y="672"/>
      <point x="436" y="741"/>
      <point x="525" y="741" type="qcurve" smooth="yes"/>
      <point x="700" y="741"/>
      <point x="951" y="521"/>
      <point x="951" y="369" type="qcurve" smooth="yes"/>
      <point x="951" y="246"/>
      <point x="865" y="146" type="qcurve" smooth="yes"/>
      <point x="789" y="57"/>
      <point x="679" y="57" type="qcurve" smooth="yes"/>
      <point x="583" y="57"/>
      <point x="569" y="134" type="qcurve"/>
      <point x="503" y="62"/>
      <point x="427" y="62" type="qcurve" smooth="yes"/>
      <point x="357" y="62"/>
      <point x="264" y="167"/>
      <point x="264" y="245" type="qcurve" smooth="yes"/>
      <point x="264" y="354"/>
      <point x="420" y="522"/>
      <point x="521" y="522" type="qcurve" smooth="yes"/>
      <point x="605" y="522"/>
      <point x="643" y="435" type="qcurve"/>
    </contour>
    <contour>
      <point x="453" y="126" type="qcurve" smooth="yes"/>
      <point x="518" y="126"/>
      <point x="609" y="292"/>
      <point x="609" y="368" type="qcurve" smooth="yes"/>
      <point x="609" y="406"/>
      <point x="555" y="458"/>
      <point x="515" y="458" type="qcurve" smooth="yes"/>
      <point x="452" y="458"/>
      <point x="354" y="328"/>
      <point x="354" y="244" type="qcurve" smooth="yes"/>
      <point x="354" y="195"/>
      <point x="412" y="126"/>
    </contour>
  </outline>
</glyph>
<glyph name="B" format="1">
  <advance width="667"/>
  <unicode hex="0042"/>
  <outline>
    <contour>
      <point x="623" y="208" type="qcurve" smooth="yes"/>
      <point x="623" y="114"/>
      <point x="505" y="0"/>
      <point x="408" y="0" type="qcurve" smooth="yes"/>
      <point x="79" y="0" type="line"/>
      <point x="79" y="729" type="line"/>
      <point x="375" y="729" type="line" smooth="yes"/>
      <point x="436" y="729"/>
      <point x="526" y="693"/>
      <point x="571" y="634"/>
      <point x="591" y="575"/>
      <point x="591" y="544" type="qcurve" smooth="yes"/>
      <point x="591" y="432"/>
      <point x="490" y="385" type="qcurve"/>
      <point x="560" y="358"/>
      <point x="623" y="274"/>
    </contour>
    <contour>
      <point x="352" y="647" type="qcurve" smooth="yes"/>
      <point x="172" y="647" type="line"/>
      <point x="172" y="415" type="line"/>
      <point x="352" y="415" type="line" smooth="yes"/>
      <point x="498" y="415"/>
      <point x="498" y="647"/>
    </contour>
    <contour>
      <point x="399" y="82" type="line" smooth="yes"/>
      <point x="448" y="82"/>
      <point x="510" y="125"/>
      <point x="530" y="177"/>
      <point x="530" y="207" type="qcurve" smooth="yes"/>
      <point x="530" y="264"/>
      <point x="462" y="333"/>
      <point x="399" y="333" type="qcurve" smooth="yes"/>
      <point x="172" y="333" type="line"/>
      <point x="172" y="82" type="line"/>
    </contour>
  </outline>
</glyph>
<glyph name="C" format="1">
  <advance width="722"/>
  <unicode hex="0043"/>
  <outline>
    <contour>
      <point x="48" y="356" type="qcurve" smooth="yes"/>
      <point x="48" y="406"/>
      <point x="65" y="504"/>
      <point x="113" y="610"/>
      <point x="184" y="689"/>
      <point x="305" y="741"/>
      <point x="381" y="741" type="qcurve" smooth="yes"/>
      <point x="619" y="741"/>
      <point x="662" y="503" type="qcurve"/>
      <point x="567" y="503" type="line"/>
      <point x="551" y="581"/>
      <point x="457" y="659"/>
      <point x="370" y="659" type="qcurve" smooth="yes"/>
      <point x="264" y="659"/>
      <point x="141" y="497"/>
      <point x="141" y="357" type="qcurve" smooth="yes"/>
      <point x="141" y="220"/>
      <point x="269" y="59"/>
      <point x="378" y="59" type="qcurve" smooth="yes"/>
      <point x="468" y="59"/>
      <point x="564" y="160"/>
      <point x="581" y="266" type="qcurve"/>
      <point x="677" y="266" type="line"/>
      <point x="644" y="-23"/>
      <point x="377" y="-23" type="qcurve" smooth="yes"/>
      <point x="302" y="-23"/>
      <point x="183" y="28"/>
      <point x="112" y="106"/>
      <point x="65" y="211"/>
      <point x="48" y="307"/>
    </contour>
  </outline>
</glyph>
<glyph name="D" format="1">
  <advance width="722"/>
  <unicode hex="0044"/>
  <outline>
    <contour>
      <point x="89" y="0" type="line"/>
      <point x="89" y="729" type="line"/>
      <point x="370" y="729" type="line" smooth="yes"/>
      <point x="509" y="729"/>
      <point x="667" y="535"/>
      <point x="667" y="195"/>
      <point x="508" y="0"/>
      <point x="370" y="0" type="qcurve" smooth="yes"/>
    </contour>
    <contour>
      <point x="182" y="82" type="line"/>
      <point x="354" y="82" type="line" smooth="yes"/>
      <point x="462" y="82"/>
      <point x="574" y="226"/>
      <point x="574" y="364" type="qcurve" smooth="yes"/>
      <point x="574" y="503"/>
      <point x="462" y="647"/>
      <point x="354" y="647" type="qcurve" smooth="yes"/>
      <point x="182" y="647" type="line"/>
    </contour>
  </outline>
</glyph>
<glyph name="I" format="1">
  <advance width="278"/>
  <unicode hex="0049"/>
  <outline>
    <contour>
      <point x="191" y="647" type="line"/>
      <point x="191" y="82" type="line"/>
      <point x="254" y="82" type="line"/>
      <point x="254" y="0" type="line"/>
      <point x="40" y="0" type="line"/>
      <point x="40" y="82" type="line"/>
      <point x="103" y="82" type="line"/>
      <point x="103" y="647" type="line"/>
      <point x="40" y="647" type="line"/>
      <point x="40" y="729" type="line"/>
      <point x="254" y="729" type="line"/>
      <point x="254" y="647" type="line"/>
    </contour>
  </outline>
</glyph>
<glyph name="J" format="1">
  <advance width="500"/>
  <unicode hex="004A"/>
  <outline>
    <contour>
      <point x="221" y="55" type="qcurve" smooth="yes"/>
      <point x="285" y="55"/>
      <point x="333" y="139"/>
      <point x="333" y="216" type="qcurve" smooth="yes"/>
      <point x="333" y="647" type="line"/>
      <point x="269" y="647" type="line"/>
      <point x="269" y="729" type="line"/>
      <point x="490" y="729" type="line"/>
      <point x="490" y="647" type="line"/>
      <point x="426" y="647" type="line"/>
      <point x="426" y="182" type="line" smooth="yes"/>
      <point x="426" y="87"/>
      <point x="315" y="-23"/>
      <point x="220" y="-23" type="qcurve" smooth="yes"/>
      <point x="126" y="-23"/>
      <point x="17" y="81"/>
      <point x="17" y="170" type="qcurve" smooth="yes"/>
      <point x="17" y="234" type="line"/>
      <point x="112" y="234" type="line"/>
      <point x="112" y="187" type="line" smooth="yes"/>
      <point x="112" y="123"/>
      <point x="168" y="55"/>
    </contour>
  </outline>
</glyph>
<glyph name="P" format="1">
  <advance width="667"/>
  <unicode hex="0050"/>
  <outline>
    <contour>
      <point x="617" y="515" type="qcurve" smooth="yes"/>
      <point x="617" y="422"/>
      <point x="504" y="309"/>
      <point x="413" y="309" type="qcurve" smooth="yes"/>
      <point x="184" y="309" type="line"/>
      <point x="184" y="0" type="line"/>
      <point x="91" y="0" type="line"/>
      <point x="91" y="729" type="line"/>
      <point x="392" y="729" type="line" smooth="yes"/>
      <point x="500" y="729"/>
      <point x="617" y="618"/>
    </contour>
    <contour>
      <point x="184" y="391" type="line"/>
      <point x="378" y="391" type="line" smooth="yes"/>
      <point x="445" y="391"/>
      <point x="520" y="459"/>
      <point x="520" y="579"/>
      <point x="445" y="647"/>
      <point x="378" y="647" type="qcurve" smooth="yes"/>
      <point x="184" y="647" type="line"/>
    </contour>
  </outline>
</glyph>
<glyph name="Q" format="1">
  <advance width="778"/>
  <unicode hex="0051"/>
  <outline>
    <contour>
      <point x="733" y="-1" type="line"/>
      <point x="686" y="-59" type="line"/>
      <point x="581" y="28" type="line"/>
      <point x="495" y="-23"/>
      <point x="390" y="-23" type="qcurve" smooth="yes"/>
      <point x="232" y="-23"/>
      <point x="38" y="188"/>
      <point x="38" y="530"/>
      <point x="232" y="741"/>
      <point x="390" y="741" type="qcurve" smooth="yes"/>
      <point x="547" y="741"/>
      <point x="742" y="531"/>
      <point x="742" y="361" type="qcurve" smooth="yes"/>
      <point x="742" y="189"/>
      <point x="639" y="76" type="qcurve"/>
    </contour>
    <contour>
      <point x="481" y="205" type="line"/>
      <point x="570" y="132" type="line"/>
      <point x="649" y="221"/>
      <point x="649" y="360" type="qcurve" smooth="yes"/>
      <point x="649" y="494"/>
      <point x="506" y="659"/>
      <point x="274" y="659"/>
      <point x="131" y="494"/>
      <point x="131" y="224"/>
      <point x="273" y="59"/>
      <point x="389" y="59" type="qcurve" smooth="yes"/>
      <point x="449" y="59"/>
      <point x="509" y="87" type="qcurve"/>
      <point x="435" y="149" type="line"/>
    </contour>
  </outline>
</glyph>
<glyph name="V" format="1">
  <advance width="724"/>
  <unicode hex="0056"/>
  <outline>
    <contour>
      <point x="417" y="0" type="line"/>
      <point x="312" y="0" type="line"/>
      <point x="0" y="729" type="line"/>
      <point x="100" y="729" type="line"/>
      <point x="365" y="113" type="line"/>
      <point x="625" y="729" type="line"/>
      <point x="725" y="729" type="line"/>
    </contour>
  </outline>
</glyph>
<glyph name="f" format="1">
  <advance width="278"/>
  <unicode hex="0066"/>
  <outline>
    <contour>
      <point x="273" y="524" type="line"/>
      <point x="273" y="456" type="line"/>
      <point x="171" y="456" type="line"/>
      <point x="171" y="0" type="line"/>
      <point x="88" y="0" type="line"/>
      <point x="88" y="456" type="line"/>
      <point x="18" y="456" type="line"/>
      <point x="18" y="524" type="line"/>
      <point x="88" y="524" type="line"/>
      <point x="88" y="613" type="line" smooth="yes"/>
      <point x="88" y="669"/>
      <point x="155" y="732"/>
      <point x="213" y="732" type="qcurve" smooth="yes"/>
      <point x="321.931" y="732"/>
      <point x="321.931" y="626.421" type="qcurve" smooth="yes"/>
      <point x="321.931" y="616.662"/>
      <point x="321" y="606" type="qcurve"/>
      <point x="248" y="606" type="line"/>
      <point x="248.758" y="612.695"/>
      <point x="248.758" y="618.544" type="qcurve" smooth="yes"/>
      <point x="248.758" y="659"/>
      <point x="212.5" y="659" type="qcurve" smooth="yes"/>
      <point x="171" y="659"/>
      <point x="171" y="606" type="qcurve" smooth="yes"/>
      <point x="171" y="524" type="line"/>
    </contour>
  </outline>
</glyph>
<glyph name="i" format="1">
  <advance width="222"/>
  <unicode hex="0069"/>
  <outline>
    <contour>
      <point x="150" y="518" type="line"/>
      <point x="150" y="-6" type="line"/>
      <point x="67" y="-6" type="line"/>
      <point x="67" y="518" type="line"/>
    </contour>
    <contour>
      <point x="150" y="729" type="line"/>
      <point x="150" y="624" type="line"/>
      <point x="66" y="624" type="line"/>
      <point x="66" y="729" type="line"/>
    </contour>
  </outline>
</glyph>
<glyph name="j" format="1">
  <advance width="215"/>
  <unicode hex="006A"/>
  <outline>
    <contour>
      <point x="147.516" y="-67" type="line" smooth="yes"/>
      <point x="147.516" y="-152.47"/>
      <point x="114.016" y="-185" type="qcurve" smooth="yes"/>
      <point x="80.4558" y="-218.544"/>
      <point x="22.5156" y="-218" type="qcurve" smooth="yes"/>
      <point x="-85" y="-218"/>
      <point x="-85.4844" y="-92" type="qcurve" smooth="yes"/>
      <point x="-85.4844" y="-92" type="line"/>
      <point x="-12.4844" y="-92" type="line"/>
      <point x="-12" y="-142"/>
      <point x="24.5156" y="-142.5" type="qcurve"/>
      <point x="64.5156" y="-141.018"/>
      <point x="64.5156" y="-89" type="qcurve" smooth="yes"/>
      <point x="64.5156" y="524" type="line"/>
      <point x="147.516" y="524" type="line"/>
    </contour>
    <contour>
      <point x="147.516" y="729" type="line"/>
      <point x="147.516" y="624" type="line"/>
      <point x="64.5156" y="624" type="line"/>
      <point x="64.5156" y="729" type="line"/>
    </contour>
  </outline>
</glyph>
<glyph name="m" format="1">
  <advance width="833"/>
  <unicode hex="006D"/>
  <outline>
    <contour>
      <point x="70" y="524" type="line"/>
      <point x="147" y="524" type="line"/>
      <point x="147" y="450" type="line"/>
      <point x="181" y="497"/>
      <point x="256" y="539"/>
      <point x="308" y="539" type="qcurve" smooth="yes"/>
      <point x="405" y="539"/>
      <point x="449" y="459" type="qcurve"/>
      <point x="486" y="503"/>
      <point x="558" y="539"/>
      <point x="610" y="539" type="qcurve" smooth="yes"/>
      <point x="683" y="539"/>
      <point x="762" y="464"/>
      <point x="762" y="393" type="qcurve" smooth="yes"/>
      <point x="762" y="0" type="line"/>
      <point x="678" y="0" type="line"/>
      <point x="678" y="361" type="line" smooth="yes"/>
      <point x="678" y="411"/>
      <point x="627" y="466"/>
      <point x="581" y="466" type="qcurve" smooth="yes"/>
      <point x="530" y="466"/>
      <point x="458" y="386"/>
      <point x="458" y="329" type="qcurve" smooth="yes"/>
      <point x="458" y="0" type="line"/>
      <point x="374" y="0" type="line"/>
      <point x="374" y="361" type="line" smooth="yes"/>
      <point x="374" y="411"/>
      <point x="323" y="466"/>
      <point x="277" y="466" type="qcurve" smooth="yes"/>
      <point x="226" y="466"/>
      <point x="154" y="386"/>
      <point x="154" y="329" type="qcurve" smooth="yes"/>
      <point x="154" y="0" type="line"/>
      <point x="70" y="0" type="line"/>
    </contour>
  </outline>
</glyph>
<glyph name="p" format="1">
  <advance width="556"/>
  <unicode hex="0070"/>
  <outline>
    <contour>
      <point x="54" y="-218" type="line"/>
      <point x="54" y="524" type="line"/>
      <point x="131" y="524" type="line"/>
      <point x="131" y="445" type="line"/>
      <point x="190" y="539"/>
      <point x="298" y="539" type="qcurve" smooth="yes"/>
      <point x="402" y="539"/>
      <point x="523" y="385"/>
      <point x="523" y="253" type="qcurve" smooth="yes"/>
      <point x="523" y="128"/>
      <point x="400" y="-23"/>
      <point x="299" y="-23" type="qcurve" smooth="yes"/>
      <point x="202" y="-23"/>
      <point x="138" y="55" type="qcurve"/>
      <point x="138" y="-218" type="line"/>
    </contour>
    <contour>
      <point x="284" y="461" type="qcurve" smooth="yes"/>
      <point x="218" y="461"/>
      <point x="138" y="350"/>
      <point x="138" y="166"/>
      <point x="218" y="55"/>
      <point x="284" y="55" type="qcurve" smooth="yes"/>
      <point x="352" y="55"/>
      <point x="436" y="166"/>
      <point x="436" y="255" type="qcurve" smooth="yes"/>
      <point x="436" y="349"/>
      <point x="353" y="461"/>
    </contour>
  </outline>
</glyph>
<glyph name="q" format="1">
  <advance width="556"/>
  <unicode hex="0071"/>
  <outline>
    <contour>
      <point x="266" y="461" type="qcurve" smooth="yes"/>
      <point x="197" y="461"/>
      <point x="113" y="349"/>
      <point x="113" y="258" type="qcurve" smooth="yes"/>
      <point x="113" y="166"/>
      <point x="197" y="55"/>
      <point x="266" y="55" type="qcurve" smooth="yes"/>
      <point x="332" y="55"/>
      <point x="412" y="165"/>
      <point x="412" y="255" type="qcurve" smooth="yes"/>
      <point x="412" y="349"/>
      <point x="333" y="461"/>
    </contour>
    <contour>
      <point x="568" y="-88" type="line"/>
      <point x="606" y="-151" type="line"/>
      <point x="495" y="-217.402" type="line"/>
      <point x="495" y="-218" type="line"/>
      <point x="494" y="-218" type="line"/>
      <point x="412" y="-218" type="line"/>
      <point x="412" y="60" type="line"/>
      <point x="355" y="-23"/>
      <point x="250" y="-23" type="qcurve" smooth="yes"/>
      <point x="146" y="-23"/>
      <point x="26" y="125"/>
      <point x="26" y="252" type="qcurve" smooth="yes"/>
      <point x="26" y="382"/>
      <point x="150" y="539"/>
      <point x="254" y="539" type="qcurve" smooth="yes"/>
      <point x="361" y="539"/>
      <point x="421" y="454" type="qcurve"/>
      <point x="421" y="524" type="line"/>
      <point x="495" y="524" type="line"/>
      <point x="495" y="-131.67" type="line"/>
    </contour>
  </outline>
</glyph>
<glyph name="t" format="1">
  <advance width="278"/>
  <unicode hex="0074"/>
  <outline>
    <contour>
      <point x="85" y="-8" type="line"/>
      <point x="85" y="456" type="line"/>
      <point x="14" y="456" type="line"/>
      <point x="14" y="524" type="line"/>
      <point x="85" y="524" type="line"/>
      <point x="85" y="668" type="line"/>
      <point x="168" y="668" type="line"/>
      <point x="168" y="524" type="line"/>
      <point x="254" y="524" type="line"/>
      <point x="254" y="456" type="line"/>
      <point x="168" y="456" type="line"/>
      <point x="168" y="-8" type="line"/>
    </contour>
  </outline>
</glyph>
<glyph name="y" format="1">
  <advance width="500"/>
  <unicode hex="0079"/>
  <outline>
    <contour>
      <point x="388" y="524" type="line"/>
      <point x="478" y="524" type="line"/>
      <point x="245" y="-110" type="line" smooth="yes"/>
      <point x="204" y="-218"/>
      <point x="110" y="-218" type="qcurve" smooth="yes"/>
      <point x="79" y="-218"/>
      <point x="54" y="-205" type="qcurve"/>
      <point x="54" y="-130" type="line"/>
      <point x="81" y="-136"/>
      <point x="98" y="-136" type="qcurve" smooth="yes"/>
      <point x="124" y="-136"/>
      <point x="154" y="-113"/>
      <point x="165" y="-85" type="qcurve" smooth="yes"/>
      <point x="197" y="-2" type="line"/>
      <point x="20" y="524" type="line"/>
      <point x="109" y="524" type="line"/>
      <point x="243" y="116" type="line"/>
    </contour>
  </outline>
</glyph>
<glyph name="braceleft" format="1">
  <advance width="334"/>
  <unicode hex="007B"/>
  <outline>
    <contour>
      <point x="276" y="729" type="line"/>
      <point x="276" y="664" type="line"/>
      <point x="261" y="664" type="line" smooth="yes"/>
      <point x="224" y="664"/>
      <point x="198" y="636"/>
      <point x="198" y="597" type="qcurve" smooth="yes"/>
      <point x="198" y="416" type="line" smooth="yes"/>
      <point x="198" y="347"/>
      <point x="162" y="277"/>
      <point x="116" y="259" type="qcurve"/>
      <point x="198" y="221"/>
      <point x="198" y="101" type="qcurve" smooth="yes"/>
      <point x="198" y="-80" type="line" smooth="yes"/>
      <point x="198" y="-119"/>
      <point x="224" y="-147"/>
      <point x="261" y="-147" type="qcurve" smooth="yes"/>
      <point x="276" y="-147" type="line"/>
      <point x="276" y="-212" type="line"/>
      <point x="230" y="-212" type="line" smooth="yes"/>
      <point x="178" y="-212"/>
      <point x="121" y="-143"/>
      <point x="121" y="-81" type="qcurve" smooth="yes"/>
      <point x="121" y="86" type="line" smooth="yes"/>
      <point x="121" y="155"/>
      <point x="87" y="215"/>
      <point x="43" y="224" type="qcurve"/>
      <point x="43" y="293" type="line"/>
      <point x="87" y="302"/>
      <point x="121" y="361"/>
      <point x="121" y="431" type="qcurve" smooth="yes"/>
      <point x="121" y="598" type="line" smooth="yes"/>
      <point x="121" y="660"/>
      <point x="178" y="729"/>
      <point x="230" y="729" type="qcurve" smooth="yes"/>
    </contour>
  </outline>
</glyph>
<glyph name="braceright" format="1">
  <advance width="334"/>
  <unicode hex="007D"/>
  <outline>
    <contour>
      <point x="29" y="-212" type="line"/>
      <point x="29" y="-147" type="line"/>
      <point x="45" y="-147" type="line" smooth="yes"/>
      <point x="82" y="-147"/>
      <point x="109" y="-119"/>
      <point x="109" y="-80" type="qcurve" smooth="yes"/>
      <point x="109" y="101" type="line" smooth="yes"/>
      <point x="109" y="221"/>
      <point x="191" y="258" type="qcurve"/>
      <point x="109" y="296"/>
      <point x="109" y="416" type="qcurve" smooth="yes"/>
      <point x="109" y="597" type="line" smooth="yes"/>
      <point x="109" y="636"/>
      <point x="82" y="664"/>
      <point x="45" y="664" type="qcurve" smooth="yes"/>
      <point x="29" y="664" type="line"/>
      <point x="29" y="729" type="line"/>
      <point x="76" y="729" type="line" smooth="yes"/>
      <point x="128" y="729"/>
      <point x="186" y="660"/>
      <point x="186" y="598" type="qcurve" smooth="yes"/>
      <point x="186" y="431" type="line" smooth="yes"/>
      <point x="186" y="362"/>
      <point x="219" y="302"/>
      <point x="262" y="293" type="qcurve"/>
      <point x="262" y="224" type="line"/>
      <point x="219" y="215"/>
      <point x="186" y="155"/>
      <point x="186" y="86" type="qcurve" smooth="yes"/>
      <point x="186" y="-81" type="line" smooth="yes"/>
      <point x="186" y="-143"/>
      <point x="128" y="-212"/>
      <point x="76" y="-212" type="qcurve" smooth="yes"/>
    </contour>
  </outline>
</glyph>
<glyph name="cent" format="1">
  <advance width="556"/>
  <unicode hex="00A2"/>
  <outline>
    <contour>
      <point x="312" y="462" type="qcurve"/>
      <point x="312" y="53" type="line"/>
      <point x="408" y="64"/>
      <point x="426" y="180" type="qcurve"/>
      <point x="510" y="180" type="line"/>
      <point x="505" y="90"/>
      <point x="399" y="-19"/>
      <point x="312" y="-23" type="qcurve"/>
      <point x="312" y="-120" type="line"/>
      <point x="270" y="-120" type="line"/>
      <point x="270" y="-22" type="line"/>
      <point x="169" y="-13"/>
      <point x="52" y="134"/>
      <point x="52" y="253" type="qcurve" smooth="yes"/>
      <point x="52" y="375"/>
      <point x="169" y="527"/>
      <point x="270" y="538" type="qcurve"/>
      <point x="270" y="628" type="line"/>
      <point x="312" y="628" type="line"/>
      <point x="312" y="539" type="line"/>
      <point x="400" y="533"/>
      <point x="499" y="434"/>
      <point x="504" y="348" type="qcurve"/>
      <point x="420" y="348" type="line"/>
      <point x="415" y="398"/>
      <point x="358" y="458"/>
    </contour>
    <contour>
      <point x="270" y="55" type="qcurve"/>
      <point x="270" y="461" type="line"/>
      <point x="139" y="437"/>
      <point x="139" y="253" type="qcurve" smooth="yes"/>
      <point x="139" y="168"/>
      <point x="208" y="65"/>
    </contour>
  </outline>
</glyph>
<glyph name="sterling" format="1">
  <advance width="556"/>
  <unicode hex="00A3"/>
  <outline>
    <contour>
      <point x="147" y="523" type="qcurve" smooth="yes"/>
      <point x="147" y="495"/>
      <point x="162" y="451"/>
      <point x="200" y="389"/>
      <point x="206" y="376" type="qcurve"/>
      <point x="366" y="376" type="line"/>
      <point x="366" y="321" type="line"/>
      <point x="230" y="321" type="line"/>
      <point x="245" y="278"/>
      <point x="245" y="250" type="qcurve" smooth="yes"/>
      <point x="245" y="211"/>
      <point x="194" y="129"/>
      <point x="127" y="61" type="qcurve"/>
      <point x="186" y="100"/>
      <point x="249" y="100" type="qcurve" smooth="yes"/>
      <point x="282" y="100"/>
      <point x="386" y="69"/>
      <point x="410" y="69" type="qcurve" smooth="yes"/>
      <point x="450" y="69"/>
      <point x="493" y="99" type="qcurve"/>
      <point x="535" y="33" type="line"/>
      <point x="478" y="-23"/>
      <point x="404" y="-23" type="qcurve" smooth="yes"/>
      <point x="361" y="-23"/>
      <point x="227" y="23"/>
      <point x="192" y="23" type="qcurve" smooth="yes"/>
      <point x="139" y="23"/>
      <point x="83" y="-14" type="qcurve"/>
      <point x="35" y="52" type="line"/>
      <point x="104" y="111"/>
      <point x="160" y="197"/>
      <point x="160" y="243" type="qcurve" smooth="yes"/>
      <point x="160" y="281"/>
      <point x="136" y="321" type="qcurve"/>
      <point x="26" y="321" type="line"/>
      <point x="26" y="376" type="line"/>
      <point x="107" y="376" type="line"/>
      <point x="73" y="433"/>
      <point x="54" y="482"/>
      <point x="54" y="515" type="qcurve" smooth="yes"/>
      <point x="54" y="606"/>
      <point x="191" y="729"/>
      <point x="292" y="729" type="qcurve" smooth="yes"/>
      <point x="321" y="729"/>
      <point x="374" y="720"/>
      <point x="436" y="690"/>
      <point x="480" y="641"/>
      <point x="511" y="554"/>
      <point x="512" y="497" type="qcurve"/>
      <point x="424" y="497" type="line"/>
      <point x="420" y="651"/>
      <point x="288" y="651" type="qcurve" smooth="yes"/>
      <point x="224" y="651"/>
      <point x="147" y="581"/>
    </contour>
  </outline>
</glyph>
<glyph name="currency" format="1">
  <advance width="556"/>
  <unicode hex="00A4"/>
  <outline>
    <contour>
      <point x="485" y="190" type="line"/>
      <point x="427" y="136" type="line"/>
      <point x="374" y="189" type="line"/>
      <point x="334" y="159"/>
      <point x="274" y="159" type="qcurve" smooth="yes"/>
      <point x="221" y="159"/>
      <point x="180" y="184" type="qcurve"/>
      <point x="129" y="133" type="line"/>
      <point x="73" y="190" type="line"/>
      <point x="121" y="239" type="line"/>
      <point x="89" y="282"/>
      <point x="89" y="341" type="qcurve" smooth="yes"/>
      <point x="89" y="398"/>
      <point x="121" y="443" type="qcurve"/>
      <point x="67" y="498" type="line"/>
      <point x="123" y="551" type="line"/>
      <point x="178" y="496" type="line"/>
      <point x="222" y="522"/>
      <point x="275" y="522" type="qcurve" smooth="yes"/>
      <point x="333" y="522"/>
      <point x="373" y="494" type="qcurve"/>
      <point x="432" y="547" type="line"/>
      <point x="489" y="489" type="line"/>
      <point x="434" y="434" type="line"/>
      <point x="460" y="393"/>
      <point x="460" y="341" type="qcurve" smooth="yes"/>
      <point x="460" y="291"/>
      <point x="431" y="244" type="qcurve"/>
    </contour>
    <contour>
      <point x="274" y="445" type="qcurve" smooth="yes"/>
      <point x="230" y="445"/>
      <point x="168" y="383"/>
      <point x="168" y="297"/>
      <point x="231" y="236"/>
      <point x="275" y="236" type="qcurve" smooth="yes"/>
      <point x="318" y="236"/>
      <point x="381" y="297"/>
      <point x="381" y="339" type="qcurve" smooth="yes"/>
      <point x="381" y="383"/>
      <point x="319" y="445"/>
    </contour>
  </outline>
</glyph>
<glyph name="section" format="1">
  <advance width="556"/>
  <unicode hex="00A7"/>
  <outline>
    <contour>
      <point x="162" y="-14" type="line"/>
      <point x="162" y="-83"/>
      <point x="223" y="-136"/>
      <point x="264" y="-136" type="qcurve" smooth="yes"/>
      <point x="307" y="-136"/>
      <point x="360" y="-88"/>
      <point x="360" y="-50" type="qcurve" smooth="yes"/>
      <point x="360" y="0"/>
      <point x="305" y="38" type="qcurve" smooth="yes"/>
      <point x="135" y="155" type="line" smooth="yes"/>
      <point x="86" y="189"/>
      <point x="43" y="263"/>
      <point x="43" y="312" type="qcurve" smooth="yes"/>
      <point x="43" y="362"/>
      <point x="93" y="433"/>
      <point x="148" y="462" type="qcurve"/>
      <point x="104" y="513"/>
      <point x="104" y="564" type="qcurve" smooth="yes"/>
      <point x="104" y="633"/>
      <point x="211" y="729"/>
      <point x="367" y="729"/>
      <point x="464" y="631"/>
      <point x="464" y="552" type="qcurve" smooth="yes"/>
      <point x="464" y="524" type="line"/>
      <point x="380" y="524" type="line"/>
      <point x="380" y="550" type="line" smooth="yes"/>
      <point x="380" y="597"/>
      <point x="327" y="652"/>
      <point x="283" y="652" type="qcurve" smooth="yes"/>
      <point x="245" y="652"/>
      <point x="194" y="604"/>
      <point x="194" y="567" type="qcurve" smooth="yes"/>
      <point x="194" y="545"/>
      <point x="219" y="511"/>
      <point x="251" y="490" type="qcurve" smooth="yes"/>
      <point x="397" y="396" type="line" smooth="yes"/>
      <point x="458" y="357"/>
      <point x="506" y="283"/>
      <point x="506" y="229" type="qcurve" smooth="yes"/>
      <point x="506" y="114"/>
      <point x="397" y="73" type="qcurve"/>
      <point x="427" y="39"/>
      <point x="450" y="-13"/>
      <point x="450" y="-45" type="qcurve" smooth="yes"/>
      <point x="450" y="-117"/>
      <point x="343" y="-213"/>
      <point x="263" y="-213" type="qcurve" smooth="yes"/>
      <point x="239" y="-213"/>
      <point x="193" y="-205"/>
      <point x="141" y="-178"/>
      <point x="102" y="-136"/>
      <point x="77" y="-62"/>
      <point x="77" y="-14" type="qcurve"/>
    </contour>
    <contour>
      <point x="188" y="229" type="qcurve" smooth="yes"/>
      <point x="354" y="106" type="line"/>
      <point x="427" y="145"/>
      <point x="427" y="208" type="qcurve" smooth="yes"/>
      <point x="427" y="269"/>
      <point x="354" y="320" type="qcurve" smooth="yes"/>
      <point x="193" y="429" type="line"/>
      <point x="154" y="403"/>
      <point x="122" y="358"/>
      <point x="122" y="298"/>
      <point x="148" y="258"/>
    </contour>
  </outline>
</glyph>
<glyph name="copyright" format="1">
  <advance width="737"/>
  <unicode hex="00A9"/>
  <outline>
    <contour>
      <point x="552" y="312" type="line"/>
      <point x="546" y="285"/>
      <point x="539" y="257"/>
      <point x="512" y="193"/>
      <point x="479" y="157"/>
      <point x="415" y="126"/>
      <point x="375" y="126" type="qcurve" smooth="yes"/>
      <point x="289" y="126"/>
      <point x="181" y="255"/>
      <point x="181" y="357" type="qcurve" smooth="yes"/>
      <point x="181" y="462"/>
      <point x="290" y="592"/>
      <point x="378" y="592" type="qcurve" smooth="yes"/>
      <point x="509" y="592"/>
      <point x="544" y="437" type="qcurve"/>
      <point x="473" y="437" type="line"/>
      <point x="460" y="487"/>
      <point x="415" y="530"/>
      <point x="375" y="530" type="qcurve" smooth="yes"/>
      <point x="318" y="530"/>
      <point x="250" y="437"/>
      <point x="250" y="358" type="qcurve" smooth="yes"/>
      <point x="250" y="286"/>
      <point x="319" y="188"/>
      <point x="375" y="188" type="qcurve" smooth="yes"/>
      <point x="461" y="188"/>
      <point x="481" y="312" type="qcurve"/>
    </contour>
    <contour>
      <point x="751" y="361" type="qcurve" smooth="yes"/>
      <point x="751" y="201"/>
      <point x="526" y="-22"/>
      <point x="364" y="-22" type="qcurve" smooth="yes"/>
      <point x="210" y="-22"/>
      <point x="-13" y="204"/>
      <point x="-13" y="360" type="qcurve" smooth="yes"/>
      <point x="-13" y="518"/>
      <point x="211" y="742"/>
      <point x="527" y="742"/>
      <point x="751" y="519"/>
    </contour>
    <contour>
      <point x="55" y="360" type="qcurve" smooth="yes"/>
      <point x="55" y="229"/>
      <point x="238" y="40"/>
      <point x="365" y="40" type="qcurve" smooth="yes"/>
      <point x="498" y="40"/>
      <point x="683" y="227"/>
      <point x="683" y="361" type="qcurve" smooth="yes"/>
      <point x="683" y="492"/>
      <point x="499" y="680"/>
      <point x="239" y="680"/>
      <point x="55" y="492"/>
    </contour>
  </outline>
</glyph>
<glyph name="ordfeminine" format="1">
  <advance width="370"/>
  <unicode hex="00AA"/>
  <outline>
    <contour>
      <point x="320" y="354" type="line"/>
      <point x="320" y="303" type="line"/>
      <point x="43" y="303" type="line"/>
      <point x="43" y="354" type="line"/>
    </contour>
    <contour>
      <point x="333" y="449" type="qcurve"/>
      <point x="333" y="405" type="line"/>
      <point x="317" y="399"/>
      <point x="301" y="399" type="qcurve" smooth="yes"/>
      <point x="254" y="399"/>
      <point x="246" y="442" type="qcurve"/>
      <point x="197" y="399"/>
      <point x="141" y="399" type="qcurve" smooth="yes"/>
      <point x="93" y="399"/>
      <point x="37" y="451"/>
      <point x="37" y="495" type="qcurve" smooth="yes"/>
      <point x="37" y="544"/>
      <point x="105" y="593"/>
      <point x="194" y="600" type="qcurve" smooth="yes"/>
      <point x="222" y="602"/>
      <point x="243" y="616"/>
      <point x="243" y="633" type="qcurve" smooth="yes"/>
      <point x="243" y="646" type="line" smooth="yes"/>
      <point x="243" y="690"/>
      <point x="176" y="690" type="qcurve" smooth="yes"/>
      <point x="142" y="690"/>
      <point x="113" y="666"/>
      <point x="108" y="634" type="qcurve"/>
      <point x="49" y="634" type="line"/>
      <point x="52" y="742"/>
      <point x="178" y="742" type="qcurve" smooth="yes"/>
      <point x="300" y="742"/>
      <point x="300" y="648" type="qcurve" smooth="yes"/>
      <point x="300" y="469" type="line" smooth="yes"/>
      <point x="300" y="446"/>
      <point x="323" y="446" type="qcurve" smooth="yes"/>
      <point x="327" y="446"/>
    </contour>
    <contour>
      <point x="243" y="568" type="line"/>
      <point x="224" y="560"/>
      <point x="141" y="550"/>
      <point x="95" y="527"/>
      <point x="95" y="498" type="qcurve" smooth="yes"/>
      <point x="95" y="451"/>
      <point x="152" y="451" type="qcurve" smooth="yes"/>
      <point x="189" y="451"/>
      <point x="243" y="491"/>
      <point x="243" y="517" type="qcurve" smooth="yes"/>
    </contour>
  </outline>
</glyph>
<glyph name="softhyphen" format="1">
  <advance width="333"/>
  <unicode hex="00AD"/>
  <outline>
    <contour>
      <point x="284" y="312" type="line"/>
      <point x="284" y="240" type="line"/>
      <point x="46" y="240" type="line"/>
      <point x="46" y="312" type="line"/>
    </contour>
  </outline>
</glyph>
<glyph name="registered" format="1">
  <advance width="737"/>
  <unicode hex="00AE"/>
  <outline>
    <contour>
      <point x="495" y="360" type="qcurve"/>
      <point x="522" y="342"/>
      <point x="541" y="295"/>
      <point x="541" y="263" type="qcurve" smooth="yes"/>
      <point x="541" y="257"/>
      <point x="540" y="232"/>
      <point x="540" y="227" type="qcurve" smooth="yes"/>
      <point x="540" y="182"/>
      <point x="563" y="165" type="qcurve"/>
      <point x="563" y="140" type="line"/>
      <point x="484" y="140" type="line"/>
      <point x="469" y="175"/>
      <point x="469" y="212" type="qcurve" smooth="yes"/>
      <point x="469" y="214"/>
      <point x="469" y="217" type="qcurve" smooth="yes"/>
      <point x="470" y="257" type="line" smooth="yes"/>
      <point x="470" y="293"/>
      <point x="440" y="325"/>
      <point x="406" y="325" type="qcurve" smooth="yes"/>
      <point x="272" y="325" type="line"/>
      <point x="272" y="140" type="line"/>
      <point x="202" y="140" type="line"/>
      <point x="202" y="585" type="line"/>
      <point x="408" y="585" type="line" smooth="yes"/>
      <point x="549" y="585"/>
      <point x="549" y="459" type="qcurve" smooth="yes"/>
      <point x="549" y="425"/>
      <point x="526" y="383"/>
    </contour>
    <contour>
      <point x="272" y="388" type="line"/>
      <point x="401" y="388" type="line" smooth="yes"/>
      <point x="476" y="388"/>
      <point x="476" y="455" type="qcurve" smooth="yes"/>
      <point x="476" y="490"/>
      <point x="441" y="522"/>
      <point x="401" y="522" type="qcurve" smooth="yes"/>
      <point x="272" y="522" type="line"/>
    </contour>
    <contour>
      <point x="751" y="361" type="qcurve" smooth="yes"/>
      <point x="751" y="201"/>
      <point x="526" y="-22"/>
      <point x="364" y="-22" type="qcurve" smooth="yes"/>
      <point x="210" y="-22"/>
      <point x="-13" y="204"/>
      <point x="-13" y="360" type="qcurve" smooth="yes"/>
      <point x="-13" y="518"/>
      <point x="211" y="742"/>
      <point x="527" y="742"/>
      <point x="751" y="519"/>
    </contour>
    <contour>
      <point x="55" y="360" type="qcurve" smooth="yes"/>
      <point x="55" y="229"/>
      <point x="238" y="40"/>
      <point x="365" y="40" type="qcurve" smooth="yes"/>
      <point x="498" y="40"/>
      <point x="683" y="227"/>
      <point x="683" y="361" type="qcurve" smooth="yes"/>
      <point x="683" y="492"/>
      <point x="499" y="680"/>
      <point x="239" y="680"/>
      <point x="55" y="492"/>
    </contour>
  </outline>
</glyph>
<glyph name="degree" format="1">
  <advance width="606"/>
  <unicode hex="00B0"/>
  <outline>
    <contour>
      <point x="303" y="686" type="qcurve" smooth="yes"/>
      <point x="365" y="686"/>
      <point x="454" y="597"/>
      <point x="454" y="535" type="qcurve" smooth="yes"/>
      <point x="454" y="471"/>
      <point x="365" y="383"/>
      <point x="301" y="383" type="qcurve" smooth="yes"/>
      <point x="240" y="383"/>
      <point x="151" y="473"/>
      <point x="151" y="597"/>
      <point x="240" y="686"/>
    </contour>
    <contour>
      <point x="208" y="535" type="qcurve" smooth="yes"/>
      <point x="208" y="496"/>
      <point x="263" y="440"/>
      <point x="301" y="440" type="qcurve" smooth="yes"/>
      <point x="341" y="440"/>
      <point x="397" y="495"/>
      <point x="397" y="535" type="qcurve" smooth="yes"/>
      <point x="397" y="574"/>
      <point x="342" y="629"/>
      <point x="264" y="629"/>
      <point x="208" y="573"/>
    </contour>
  </outline>
</glyph>
<glyph name="twosuperior" format="1">
  <advance width="351"/>
  <unicode hex="00B2"/>
  <outline>
    <contour>
      <point x="178" y="656" type="qcurve" smooth="yes"/>
      <point x="152" y="656"/>
      <point x="116" y="638"/>
      <point x="99" y="606"/>
      <point x="92" y="577"/>
      <point x="91" y="557" type="qcurve"/>
      <point x="29" y="557" type="line"/>
      <point x="33" y="709"/>
      <point x="180" y="709" type="qcurve" smooth="yes"/>
      <point x="244" y="709"/>
      <point x="326" y="639"/>
      <point x="326" y="583" type="qcurve" smooth="yes"/>
      <point x="326" y="501"/>
      <point x="230" y="454" type="qcurve" smooth="yes"/>
      <point x="167" y="422" type="line" smooth="yes"/>
      <point x="134" y="405"/>
      <point x="103" y="370"/>
      <point x="94" y="342" type="qcurve"/>
      <point x="323" y="342" type="line"/>
      <point x="323" y="284" type="line"/>
      <point x="19" y="284" type="line"/>
      <point x="23" y="357"/>
      <point x="74" y="433"/>
      <point x="146" y="471" type="qcurve" smooth="yes"/>
      <point x="204" y="502" type="line" smooth="yes"/>
      <point x="263" y="534"/>
      <point x="263" y="581" type="qcurve" smooth="yes"/>
      <point x="263" y="613"/>
      <point x="214" y="656"/>
    </contour>
  </outline>
</glyph>
<glyph name="micro" format="1">
  <advance width="556"/>
  <unicode hex="00B5"/>
  <outline>
    <contour>
      <point x="544" y="49" type="qcurve"/>
      <point x="544" y="-14" type="line"/>
      <point x="511" y="-23"/>
      <point x="487" y="-23" type="qcurve" smooth="yes"/>
      <point x="404" y="-23"/>
      <point x="401" y="60" type="qcurve"/>
      <point x="342" y="-23"/>
      <point x="238" y="-23" type="qcurve" smooth="yes"/>
      <point x="184" y="-23"/>
      <point x="148" y="3" type="qcurve"/>
      <point x="148" y="-220" type="line"/>
      <point x="65" y="-220" type="line"/>
      <point x="65" y="524" type="line"/>
      <point x="148" y="524" type="line"/>
      <point x="148" y="153" type="line" smooth="yes"/>
      <point x="148" y="106"/>
      <point x="206" y="50"/>
      <point x="255" y="50" type="qcurve" smooth="yes"/>
      <point x="320" y="50"/>
      <point x="398" y="147"/>
      <point x="398" y="227" type="qcurve" smooth="yes"/>
      <point x="398" y="524" type="line"/>
      <point x="481" y="524" type="line"/>
      <point x="481" y="88" type="line" smooth="yes"/>
      <point x="481" y="47"/>
      <point x="526" y="47" type="qcurve" smooth="yes"/>
      <point x="534" y="47"/>
    </contour>
  </outline>
</glyph>
<glyph name="paragraph" format="1">
  <advance width="537"/>
  <unicode hex="00B6"/>
  <outline>
    <contour>
      <point x="255" y="259" type="line"/>
      <point x="158" y="264"/>
      <point x="48" y="395"/>
      <point x="48" y="489" type="qcurve" smooth="yes"/>
      <point x="48" y="590"/>
      <point x="178" y="729"/>
      <point x="272" y="729" type="qcurve" smooth="yes"/>
      <point x="522" y="729" type="line"/>
      <point x="522" y="665" type="line"/>
      <point x="465" y="665" type="line"/>
      <point x="465" y="-177" type="line"/>
      <point x="401" y="-177" type="line"/>
      <point x="401" y="665" type="line"/>
      <point x="319" y="665" type="line"/>
      <point x="319" y="-177" type="line"/>
      <point x="255" y="-177" type="line"/>
    </contour>
  </outline>
</glyph>
<glyph name="cedilla" format="1">
  <advance width="333"/>
  <unicode hex="00B8"/>
  <outline>
    <contour>
      <point x="60" y="-140" type="line"/>
      <point x="85" y="-153"/>
      <point x="135" y="-173"/>
      <point x="181" y="-173"/>
      <point x="212" y="-147"/>
      <point x="212" y="-128" type="qcurve" smooth="yes"/>
      <point x="212" y="-91"/>
      <point x="166" y="-91" type="qcurve" smooth="yes"/>
      <point x="151" y="-91"/>
      <point x="135" y="-99" type="qcurve"/>
      <point x="123" y="-92" type="line"/>
      <point x="165" y="0" type="line"/>
      <point x="203" y="0" type="line"/>
      <point x="180" y="-56" type="line"/>
      <point x="193" y="-54"/>
      <point x="208" y="-54" type="qcurve" smooth="yes"/>
      <point x="246" y="-54"/>
      <point x="287" y="-89"/>
      <point x="287" y="-121" type="qcurve" smooth="yes"/>
      <point x="287" y="-164"/>
      <point x="221" y="-214"/>
      <point x="164" y="-214" type="qcurve" smooth="yes"/>
      <point x="117" y="-214"/>
      <point x="39" y="-180" type="qcurve"/>
    </contour>
  </outline>
</glyph>
<glyph name="onesuperior" format="1">
  <advance width="240"/>
  <unicode hex="00B9"/>
  <outline>
    <contour>
      <point x="139" y="580" type="line"/>
      <point x="40" y="580" type="line"/>
      <point x="40" y="626" type="line"/>
      <point x="55" y="627" type="line" smooth="yes"/>
      <point x="109" y="632"/>
      <point x="145" y="661"/>
      <point x="158" y="709" type="qcurve"/>
      <point x="201" y="709" type="line"/>
      <point x="201" y="284" type="line"/>
      <point x="139" y="284" type="line"/>
    </contour>
  </outline>
</glyph>
<glyph name="ordmasculine" format="1">
  <advance width="365"/>
  <unicode hex="00BA"/>
  <outline>
    <contour>
      <point x="314" y="354" type="line"/>
      <point x="314" y="303" type="line"/>
      <point x="51" y="303" type="line"/>
      <point x="51" y="354" type="line"/>
    </contour>
    <contour>
      <point x="182" y="742" type="qcurve" smooth="yes"/>
      <point x="250" y="742"/>
      <point x="324" y="652"/>
      <point x="324" y="568" type="qcurve" smooth="yes"/>
      <point x="324" y="489"/>
      <point x="249" y="399"/>
      <point x="115" y="399"/>
      <point x="40" y="489"/>
      <point x="40" y="571" type="qcurve" smooth="yes"/>
      <point x="40" y="652"/>
      <point x="115" y="742"/>
    </contour>
    <contour>
      <point x="182" y="690" type="qcurve" smooth="yes"/>
      <point x="143" y="690"/>
      <point x="98" y="626"/>
      <point x="98" y="571" type="qcurve" smooth="yes"/>
      <point x="98" y="515"/>
      <point x="143" y="451"/>
      <point x="221" y="451"/>
      <point x="266" y="514"/>
      <point x="266" y="569" type="qcurve" smooth="yes"/>
      <point x="266" y="626"/>
      <point x="222" y="690"/>
    </contour>
  </outline>
</glyph>
<glyph name="onehalf" format="1">
  <advance width="869"/>
  <unicode hex="00BD"/>
  <outline>
    <contour>
      <point x="160" y="580" type="line"/>
      <point x="61" y="580" type="line"/>
      <point x="61" y="626" type="line"/>
      <point x="76" y="627" type="line" smooth="yes"/>
      <point x="130" y="632"/>
      <point x="166" y="661"/>
      <point x="179" y="709" type="qcurve"/>
      <point x="222" y="709" type="line"/>
      <point x="222" y="284" type="line"/>
      <point x="160" y="284" type="line"/>
    </contour>
    <contour>
      <point x="619" y="709" type="line"/>
      <point x="677" y="709" type="line"/>
      <point x="225" y="-20" type="line"/>
      <point x="167" y="-20" type="line"/>
    </contour>
    <contour>
      <point x="696" y="372" type="qcurve" smooth="yes"/>
      <point x="670" y="372"/>
      <point x="634" y="354"/>
      <point x="617" y="322"/>
      <point x="610" y="293"/>
      <point x="609" y="273" type="qcurve"/>
      <point x="547" y="273" type="line"/>
      <point x="551" y="425"/>
      <point x="698" y="425" type="qcurve" smooth="yes"/>
      <point x="762" y="425"/>
      <point x="844" y="355"/>
      <point x="844" y="299" type="qcurve" smooth="yes"/>
      <point x="844" y="217"/>
      <point x="748" y="170" type="qcurve" smooth="yes"/>
      <point x="685" y="138" type="line" smooth="yes"/>
      <point x="652" y="121"/>
      <point x="621" y="86"/>
      <point x="612" y="58" type="qcurve"/>
      <point x="841" y="58" type="line"/>
      <point x="841" y="0" type="line"/>
      <point x="537" y="0" type="line"/>
      <point x="541" y="73"/>
      <point x="592" y="149"/>
      <point x="664" y="187" type="qcurve" smooth="yes"/>
      <point x="722" y="218" type="line" smooth="yes"/>
      <point x="781" y="250"/>
      <point x="781" y="297" type="qcurve" smooth="yes"/>
      <point x="781" y="329"/>
      <point x="732" y="372"/>
    </contour>
  </outline>
</glyph>
<glyph name="threequarters" format="1">
  <advance width="869"/>
  <unicode hex="00BE"/>
  <outline>
    <contour>
      <point x="169" y="656" type="qcurve" smooth="yes"/>
      <point x="123" y="656"/>
      <point x="88" y="611"/>
      <point x="88" y="567" type="qcurve"/>
      <point x="25" y="567" type="line"/>
      <point x="28" y="709"/>
      <point x="169" y="709" type="qcurve" smooth="yes"/>
      <point x="233" y="709"/>
      <point x="308" y="645"/>
      <point x="308" y="589" type="qcurve" smooth="yes"/>
      <point x="308" y="530"/>
      <point x="251" y="504" type="qcurve"/>
      <point x="322" y="480"/>
      <point x="322" y="404" type="qcurve" smooth="yes"/>
      <point x="322" y="343"/>
      <point x="237" y="270"/>
      <point x="167" y="270" type="qcurve" smooth="yes"/>
      <point x="95" y="270"/>
      <point x="16" y="344"/>
      <point x="16" y="412" type="qcurve"/>
      <point x="78" y="412" type="line"/>
      <point x="80" y="366"/>
      <point x="124" y="323"/>
      <point x="169" y="323" type="qcurve" smooth="yes"/>
      <point x="211" y="323"/>
      <point x="259" y="366"/>
      <point x="259" y="404" type="qcurve" smooth="yes"/>
      <point x="259" y="431"/>
      <point x="227" y="470"/>
      <point x="201" y="474" type="qcurve" smooth="yes"/>
      <point x="186" y="476"/>
      <point x="135" y="476" type="qcurve"/>
      <point x="135" y="527" type="line"/>
      <point x="199" y="527"/>
      <point x="245" y="553"/>
      <point x="245" y="588" type="qcurve" smooth="yes"/>
      <point x="245" y="620"/>
      <point x="204" y="656"/>
    </contour>
    <contour>
      <point x="653" y="709" type="line"/>
      <point x="711" y="709" type="line"/>
      <point x="259" y="-20" type="line"/>
      <point x="201" y="-20" type="line"/>
    </contour>
    <contour>
      <point x="720" y="100" type="line"/>
      <point x="532" y="100" type="line"/>
      <point x="532" y="159" type="line"/>
      <point x="736" y="425" type="line"/>
      <point x="782" y="425" type="line"/>
      <point x="782" y="153" type="line"/>
      <point x="849" y="153" type="line"/>
      <point x="849" y="100" type="line"/>
      <point x="782" y="100" type="line"/>
      <point x="782" y="0" type="line"/>
      <point x="720" y="0" type="line"/>
    </contour>
    <contour>
      <point x="720" y="153" type="line"/>
      <point x="720" y="323" type="line"/>
      <point x="591" y="153" type="line"/>
    </contour>
  </outline>
</glyph>
<glyph name="Ccedilla" format="1">
  <advance width="722"/>
  <unicode hex="00C7"/>
  <outline>
    <contour>
      <point x="378" y="58" type="qcurve" smooth="yes"/>
      <point x="468" y="58"/>
      <point x="563" y="158"/>
      <point x="581" y="266" type="qcurve"/>
      <point x="677" y="266" type="line"/>
      <point x="644" y="-23"/>
      <point x="379" y="-23" type="qcurve"/>
      <point x="366" y="-56" type="line"/>
      <point x="379" y="-54"/>
      <point x="394" y="-54" type="qcurve" smooth="yes"/>
      <point x="432" y="-54"/>
      <point x="473" y="-89"/>
      <point x="473" y="-121" type="qcurve" smooth="yes"/>
      <point x="473" y="-164"/>
      <point x="407" y="-214"/>
      <point x="350" y="-214" type="qcurve" smooth="yes"/>
      <point x="302" y="-214"/>
      <point x="225" y="-180" type="qcurve"/>
      <point x="246" y="-140" type="line"/>
      <point x="265" y="-150"/>
      <point x="319" y="-173"/>
      <point x="344" y="-173" type="qcurve" smooth="yes"/>
      <point x="367" y="-173"/>
      <point x="398" y="-147"/>
      <point x="398" y="-128" type="qcurve" smooth="yes"/>
      <point x="398" y="-91"/>
      <point x="352" y="-91" type="qcurve" smooth="yes"/>
      <point x="337" y="-91"/>
      <point x="321" y="-99" type="qcurve"/>
      <point x="310" y="-92" type="line"/>
      <point x="341" y="-23" type="line"/>
      <point x="285" y="-15"/>
      <point x="225" y="6"/>
      <point x="192" y="29" type="qcurve" smooth="yes"/>
      <point x="124" y="78"/>
      <point x="48" y="250"/>
      <point x="48" y="356" type="qcurve" smooth="yes"/>
      <point x="48" y="406"/>
      <point x="65" y="504"/>
      <point x="113" y="610"/>
      <point x="184" y="689"/>
      <point x="305" y="741"/>
      <point x="381" y="741" type="qcurve" smooth="yes"/>
      <point x="619" y="741"/>
      <point x="662" y="503" type="qcurve"/>
      <point x="567" y="503" type="line"/>
      <point x="551" y="580"/>
      <point x="459" y="659"/>
      <point x="371" y="659" type="qcurve" smooth="yes"/>
      <point x="264" y="659"/>
      <point x="141" y="497"/>
      <point x="141" y="357" type="qcurve" smooth="yes"/>
      <point x="141" y="220"/>
      <point x="269" y="58"/>
    </contour>
  </outline>
</glyph>
<glyph name="Igrave" format="1">
  <advance width="278"/>
  <unicode hex="00CC"/>
  <outline>
    <contour>
      <point x="113" y="939" type="line"/>
      <point x="209" y="791" type="line"/>
      <point x="149" y="791" type="line"/>
      <point x="0" y="939" type="line"/>
    </contour>
    <contour>
      <point x="194" y="729" type="line"/>
      <point x="194" y="0" type="line"/>
      <point x="100" y="0" type="line"/>
      <point x="100" y="729" type="line"/>
    </contour>
  </outline>
</glyph>
<glyph name="Iacute" format="1">
  <advance width="278"/>
  <unicode hex="00CD"/>
  <outline>
    <contour>
      <point x="167" y="939" type="line"/>
      <point x="280" y="939" type="line"/>
      <point x="131" y="791" type="line"/>
      <point x="71" y="791" type="line"/>
    </contour>
    <contour>
      <point x="194" y="729" type="line"/>
      <point x="194" y="0" type="line"/>
      <point x="100" y="0" type="line"/>
      <point x="100" y="729" type="line"/>
    </contour>
  </outline>
</glyph>
<glyph name="Eth" format="1">
  <advance width="722"/>
  <unicode hex="00D0"/>
  <outline>
    <contour>
      <point x="89" y="339" type="line"/>
      <point x="20" y="339" type="line"/>
      <point x="20" y="406" type="line"/>
      <point x="89" y="406" type="line"/>
      <point x="89" y="729" type="line"/>
      <point x="371" y="729" type="line" smooth="yes"/>
      <point x="509" y="729"/>
      <point x="667" y="535"/>
      <point x="667" y="195"/>
      <point x="509" y="0"/>
      <point x="371" y="0" type="qcurve" smooth="yes"/>
      <point x="89" y="0" type="line"/>
    </contour>
    <contour>
      <point x="182" y="339" type="line"/>
      <point x="182" y="82" type="line"/>
      <point x="355" y="82" type="line" smooth="yes"/>
      <point x="462" y="82"/>
      <point x="574" y="226"/>
      <point x="574" y="504"/>
      <point x="462" y="647"/>
      <point x="355" y="647" type="qcurve" smooth="yes"/>
      <point x="182" y="647" type="line"/>
      <point x="182" y="406" type="line"/>
      <point x="353" y="406" type="line"/>
      <point x="353" y="339" type="line"/>
    </contour>
  </outline>
</glyph>
<glyph name="Ograve" format="1">
  <advance width="778"/>
  <unicode hex="00D2"/>
  <outline>
    <contour>
      <point x="359" y="939" type="line"/>
      <point x="455" y="791" type="line"/>
      <point x="395" y="791" type="line"/>
      <point x="246" y="939" type="line"/>
    </contour>
    <contour>
      <point x="742" y="353" type="qcurve" smooth="yes"/>
      <point x="742" y="191"/>
      <point x="550" y="-23"/>
      <point x="390" y="-23" type="qcurve" smooth="yes"/>
      <point x="232" y="-23"/>
      <point x="38" y="188"/>
      <point x="38" y="530"/>
      <point x="232" y="741"/>
      <point x="389" y="741" type="qcurve" smooth="yes"/>
      <point x="549" y="741"/>
      <point x="742" y="529"/>
    </contour>
    <contour>
      <point x="389" y="659" type="qcurve" smooth="yes"/>
      <point x="273" y="659"/>
      <point x="131" y="494"/>
      <point x="131" y="224"/>
      <point x="274" y="59"/>
      <point x="506" y="59"/>
      <point x="649" y="223"/>
      <point x="649" y="355" type="qcurve" smooth="yes"/>
      <point x="649" y="493"/>
      <point x="507" y="659"/>
    </contour>
  </outline>
</glyph>
<glyph name="Oslash" format="1">
  <advance width="778"/>
  <unicode hex="00D8"/>
  <outline>
    <contour>
      <point x="30" y="19" type="line"/>
      <point x="111" y="108" type="line"/>
      <point x="35" y="214"/>
      <point x="35" y="360" type="qcurve" smooth="yes"/>
      <point x="35" y="530"/>
      <point x="230" y="741"/>
      <point x="387" y="741" type="qcurve" smooth="yes"/>
      <point x="524" y="741"/>
      <point x="617" y="660" type="qcurve"/>
      <point x="704" y="755" type="line"/>
      <point x="744" y="719" type="line"/>
      <point x="655" y="622" type="line"/>
      <point x="739" y="516"/>
      <point x="739" y="358" type="qcurve" smooth="yes"/>
      <point x="739" y="188"/>
      <point x="544" y="-23"/>
      <point x="387" y="-23" type="qcurve" smooth="yes"/>
      <point x="243" y="-23"/>
      <point x="146" y="67" type="qcurve"/>
      <point x="69" y="-17" type="line"/>
    </contour>
    <contour>
      <point x="174" y="176" type="qcurve"/>
      <point x="558" y="595" type="line"/>
      <point x="485" y="659"/>
      <point x="387" y="659" type="qcurve" smooth="yes"/>
      <point x="271" y="659"/>
      <point x="128" y="494"/>
      <point x="128" y="360" type="qcurve" smooth="yes"/>
      <point x="128" y="256"/>
    </contour>
    <contour>
      <point x="593" y="554" type="qcurve"/>
      <point x="206" y="133" type="line"/>
      <point x="280" y="59"/>
      <point x="387" y="59" type="qcurve" smooth="yes"/>
      <point x="503" y="59"/>
      <point x="646" y="224"/>
      <point x="646" y="358" type="qcurve" smooth="yes"/>
      <point x="646" y="472"/>
    </contour>
  </outline>
</glyph>
<glyph name="Ugrave" format="1">
  <advance width="722"/>
  <unicode hex="00D9"/>
  <outline>
    <contour>
      <point x="334" y="939" type="line"/>
      <point x="430" y="791" type="line"/>
      <point x="370" y="791" type="line"/>
      <point x="221" y="939" type="line"/>
    </contour>
    <contour>
      <point x="552" y="729" type="line"/>
      <point x="645" y="729" type="line"/>
      <point x="645" y="217" type="line" smooth="yes"/>
      <point x="645" y="107"/>
      <point x="492" y="-23"/>
      <point x="364" y="-23" type="qcurve" smooth="yes"/>
      <point x="234" y="-23"/>
      <point x="85" y="106"/>
      <point x="85" y="217" type="qcurve" smooth="yes"/>
      <point x="85" y="729" type="line"/>
      <point x="178" y="729" type="line"/>
      <point x="178" y="217" type="line" smooth="yes"/>
      <point x="178" y="138"/>
      <point x="279" y="59"/>
      <point x="364" y="59" type="qcurve" smooth="yes"/>
      <point x="452" y="59"/>
      <point x="552" y="143"/>
      <point x="552" y="217" type="qcurve" smooth="yes"/>
    </contour>
  </outline>
</glyph>
<glyph name="Uacute" format="1">
  <advance width="722"/>
  <unicode hex="00DA"/>
  <outline>
    <contour>
      <point x="387" y="939" type="line"/>
      <point x="500" y="939" type="line"/>
      <point x="351" y="791" type="line"/>
      <point x="291" y="791" type="line"/>
    </contour>
    <contour>
      <point x="552" y="729" type="line"/>
      <point x="645" y="729" type="line"/>
      <point x="645" y="217" type="line" smooth="yes"/>
      <point x="645" y="107"/>
      <point x="492" y="-23"/>
      <point x="364" y="-23" type="qcurve" smooth="yes"/>
      <point x="234" y="-23"/>
      <point x="85" y="106"/>
      <point x="85" y="217" type="qcurve" smooth="yes"/>
      <point x="85" y="729" type="line"/>
      <point x="178" y="729" type="line"/>
      <point x="178" y="217" type="line" smooth="yes"/>
      <point x="178" y="138"/>
      <point x="279" y="59"/>
      <point x="364" y="59" type="qcurve" smooth="yes"/>
      <point x="452" y="59"/>
      <point x="552" y="143"/>
      <point x="552" y="217" type="qcurve" smooth="yes"/>
    </contour>
  </outline>
</glyph>
<glyph name="Thorn" format="1">
  <advance width="666"/>
  <unicode hex="00DE"/>
  <outline>
    <contour>
      <point x="184" y="189" type="line"/>
      <point x="184" y="0" type="line"/>
      <point x="91" y="0" type="line"/>
      <point x="91" y="729" type="line"/>
      <point x="184" y="729" type="line"/>
      <point x="184" y="609" type="line"/>
      <point x="392" y="609" type="line" smooth="yes"/>
      <point x="496" y="609"/>
      <point x="616" y="496"/>
      <point x="616" y="397" type="qcurve" smooth="yes"/>
      <point x="616" y="306"/>
      <point x="502" y="189"/>
      <point x="413" y="189" type="qcurve" smooth="yes"/>
    </contour>
    <contour>
      <point x="184" y="271" type="line"/>
      <point x="378" y="271" type="line" smooth="yes"/>
      <point x="443" y="271"/>
      <point x="516" y="339"/>
      <point x="516" y="459"/>
      <point x="443" y="527"/>
      <point x="378" y="527" type="qcurve" smooth="yes"/>
      <point x="184" y="527" type="line"/>
    </contour>
  </outline>
</glyph>
<glyph name="germandbls" format="1">
  <advance width="611"/>
  <unicode hex="00DF"/>
  <outline>
    <contour>
      <point x="294" y="427" type="line"/>
      <point x="449" y="427"/>
      <point x="449" y="540" type="qcurve" smooth="yes"/>
      <point x="449" y="591"/>
      <point x="370" y="652"/>
      <point x="297" y="652" type="qcurve" smooth="yes"/>
      <point x="217" y="652"/>
      <point x="155" y="580"/>
      <point x="155" y="510" type="qcurve" smooth="yes"/>
      <point x="155" y="0" type="line"/>
      <point x="67" y="0" type="line"/>
      <point x="67" y="532" type="line" smooth="yes"/>
      <point x="67" y="621"/>
      <point x="188" y="728"/>
      <point x="408" y="728"/>
      <point x="537" y="630"/>
      <point x="537" y="548" type="qcurve" smooth="yes"/>
      <point x="537" y="514"/>
      <point x="520" y="460"/>
      <point x="487" y="424"/>
      <point x="470" y="410"/>
      <point x="455" y="400" type="qcurve"/>
      <point x="507" y="386"/>
      <point x="571" y="284"/>
      <point x="571" y="234" type="qcurve" smooth="yes"/>
      <point x="571" y="107"/>
      <point x="433" y="-15"/>
      <point x="319" y="-15" type="qcurve" smooth="yes"/>
      <point x="299" y="-15"/>
      <point x="266" y="-8" type="qcurve"/>
      <point x="266" y="67" type="line"/>
      <point x="288" y="64"/>
      <point x="310" y="64" type="qcurve" smooth="yes"/>
      <point x="480" y="64"/>
      <point x="480" y="214" type="qcurve" smooth="yes"/>
      <point x="480" y="354"/>
      <point x="310" y="354" type="qcurve" smooth="yes"/>
      <point x="294" y="354" type="line"/>
    </contour>
  </outline>
</glyph>
<glyph name="ae" format="1">
  <advance width="889"/>
  <unicode hex="00E6"/>
  <outline>
    <contour>
      <point x="459" y="234" type="line"/>
      <point x="460" y="182"/>
      <point x="490" y="107"/>
      <point x="538" y="70"/>
      <point x="587" y="54"/>
      <point x="613" y="54" type="qcurve" smooth="yes"/>
      <point x="714" y="54"/>
      <point x="751" y="159" type="qcurve"/>
      <point x="835" y="159" type="line"/>
      <point x="819" y="74"/>
      <point x="701" y="-23"/>
      <point x="612" y="-23" type="qcurve" smooth="yes"/>
      <point x="554" y="-23"/>
      <point x="460" y="21"/>
      <point x="434" y="60" type="qcurve" smooth="yes"/>
      <point x="430" y="66"/>
      <point x="418" y="87" type="qcurve"/>
      <point x="362" y="29"/>
      <point x="261" y="-23"/>
      <point x="202" y="-23" type="qcurve" smooth="yes"/>
      <point x="126" y="-23"/>
      <point x="34" y="61"/>
      <point x="34" y="132" type="qcurve" smooth="yes"/>
      <point x="34" y="170"/>
      <point x="60" y="227"/>
      <point x="102" y="263"/>
      <point x="172" y="287"/>
      <point x="243" y="299"/>
      <point x="345" y="307"/>
      <point x="381" y="333"/>
      <point x="381" y="362" type="qcurve" smooth="yes"/>
      <point x="381" y="384" type="line" smooth="yes"/>
      <point x="381" y="462"/>
      <point x="263" y="462" type="qcurve" smooth="yes"/>
      <point x="151" y="462"/>
      <point x="141" y="369" type="qcurve"/>
      <point x="57" y="369" type="line"/>
      <point x="63" y="539"/>
      <point x="265" y="539" type="qcurve" smooth="yes"/>
      <point x="393" y="539"/>
      <point x="440" y="457" type="qcurve"/>
      <point x="467" y="495"/>
      <point x="559" y="539"/>
      <point x="613" y="539" type="qcurve" smooth="yes"/>
      <point x="686" y="539"/>
      <point x="798" y="465"/>
      <point x="824" y="401" type="qcurve" smooth="yes"/>
      <point x="845" y="346"/>
      <point x="845" y="234" type="qcurve"/>
    </contour>
    <contour>
      <point x="221" y="50" type="qcurve" smooth="yes"/>
      <point x="291" y="50"/>
      <point x="381" y="131"/>
      <point x="381" y="157" type="qcurve" smooth="yes"/>
      <point x="381" y="258" type="line"/>
      <point x="351" y="245"/>
      <point x="248" y="228"/>
      <point x="177" y="218"/>
      <point x="121" y="174"/>
      <point x="121" y="134" type="qcurve" smooth="yes"/>
      <point x="121" y="95"/>
      <point x="175" y="50"/>
    </contour>
    <contour>
      <point x="461" y="302" type="qcurve"/>
      <point x="755" y="302" type="line"/>
      <point x="755" y="373"/>
      <point x="675" y="462"/>
      <point x="611" y="462" type="qcurve" smooth="yes"/>
      <point x="548" y="462"/>
      <point x="466" y="375"/>
    </contour>
  </outline>
</glyph>
<glyph name="ccedilla" format="1">
  <advance width="500"/>
  <unicode hex="00E7"/>
  <outline>
    <contour>
      <point x="225" y="-21" type="line"/>
      <point x="172" y="-11"/>
      <point x="94" y="45"/>
      <point x="56" y="106"/>
      <point x="35" y="186"/>
      <point x="31" y="230"/>
      <point x="31" y="253" type="qcurve" smooth="yes"/>
      <point x="31" y="383"/>
      <point x="158" y="539"/>
      <point x="264" y="539" type="qcurve" smooth="yes"/>
      <point x="355" y="539"/>
      <point x="464" y="441"/>
      <point x="471" y="348" type="qcurve"/>
      <point x="387" y="348" type="line"/>
      <point x="379" y="403"/>
      <point x="315" y="462"/>
      <point x="263" y="462" type="qcurve" smooth="yes"/>
      <point x="195" y="462"/>
      <point x="118" y="351"/>
      <point x="118" y="252" type="qcurve" smooth="yes"/>
      <point x="118" y="159"/>
      <point x="196" y="53"/>
      <point x="265" y="53" type="qcurve" smooth="yes"/>
      <point x="372" y="53"/>
      <point x="393" y="180" type="qcurve"/>
      <point x="477" y="180" type="line"/>
      <point x="472" y="86"/>
      <point x="356" y="-23"/>
      <point x="264" y="-23" type="qcurve"/>
      <point x="251" y="-56" type="line"/>
      <point x="265" y="-54"/>
      <point x="279" y="-54" type="qcurve" smooth="yes"/>
      <point x="316" y="-54"/>
      <point x="358" y="-89"/>
      <point x="358" y="-121" type="qcurve" smooth="yes"/>
      <point x="358" y="-164"/>
      <point x="292" y="-214"/>
      <point x="235" y="-214" type="qcurve" smooth="yes"/>
      <point x="188" y="-214"/>
      <point x="110" y="-181" type="qcurve"/>
      <point x="131" y="-140" type="line"/>
      <point x="150" y="-150"/>
      <point x="204" y="-173"/>
      <point x="229" y="-173" type="qcurve" smooth="yes"/>
      <point x="252" y="-173"/>
      <point x="283" y="-147"/>
      <point x="283" y="-128" type="qcurve" smooth="yes"/>
      <point x="283" y="-91"/>
      <point x="237" y="-91" type="qcurve" smooth="yes"/>
      <point x="222" y="-91"/>
      <point x="206" y="-99" type="qcurve"/>
      <point x="194" y="-92" type="line"/>
    </contour>
  </outline>
</glyph>
<glyph name="eacute" format="1">
  <advance width="556"/>
  <unicode hex="00E9"/>
  <outline>
    <contour>
      <point x="308" y="739" type="line"/>
      <point x="421" y="739" type="line"/>
      <point x="272" y="591" type="line"/>
      <point x="212" y="591" type="line"/>
    </contour>
    <contour>
      <point x="513" y="234" type="qcurve"/>
      <point x="127" y="234" type="line"/>
      <point x="128" y="162"/>
      <point x="155" y="122" type="qcurve" smooth="yes"/>
      <point x="198" y="54"/>
      <point x="281" y="54" type="qcurve" smooth="yes"/>
      <point x="383" y="54"/>
      <point x="418" y="159" type="qcurve"/>
      <point x="502" y="159" type="line"/>
      <point x="486" y="73"/>
      <point x="368" y="-23"/>
      <point x="278" y="-23" type="qcurve" smooth="yes"/>
      <point x="168" y="-23"/>
      <point x="40" y="126"/>
      <point x="40" y="384"/>
      <point x="171" y="539"/>
      <point x="280" y="539" type="qcurve" smooth="yes"/>
      <point x="354" y="539"/>
      <point x="467" y="465"/>
      <point x="492" y="401" type="qcurve" smooth="yes"/>
      <point x="513" y="346"/>
    </contour>
    <contour>
      <point x="129" y="302" type="qcurve"/>
      <point x="423" y="302" type="line" smooth="yes"/>
      <point x="424" y="304"/>
      <point x="424" y="308" type="qcurve" smooth="yes"/>
      <point x="424" y="373"/>
      <point x="340" y="462"/>
      <point x="279" y="462" type="qcurve" smooth="yes"/>
      <point x="216" y="462"/>
      <point x="134" y="375"/>
    </contour>
  </outline>
</glyph>
<glyph name="igrave" format="1">
  <advance width="278"/>
  <unicode hex="00EC"/>
  <outline>
    <contour>
      <point x="109" y="738" type="line"/>
      <point x="205" y="590" type="line"/>
      <point x="145" y="590" type="line"/>
      <point x="-4" y="738" type="line"/>
    </contour>
    <contour>
      <point x="177" y="524" type="line"/>
      <point x="177" y="0" type="line"/>
      <point x="94" y="0" type="line"/>
      <point x="94" y="524" type="line"/>
    </contour>
  </outline>
</glyph>
<glyph name="iacute" format="1">
  <advance width="278"/>
  <unicode hex="00ED"/>
  <outline>
    <contour>
      <point x="161" y="739" type="line"/>
      <point x="274" y="739" type="line"/>
      <point x="125" y="591" type="line"/>
      <point x="65" y="591" type="line"/>
    </contour>
    <contour>
      <point x="177" y="524" type="line"/>
      <point x="177" y="0" type="line"/>
      <point x="94" y="0" type="line"/>
      <point x="94" y="524" type="line"/>
    </contour>
  </outline>
</glyph>
<glyph name="eth" format="1">
  <advance width="556"/>
  <unicode hex="00F0"/>
  <outline>
    <contour>
      <point x="36" y="258" type="qcurve" smooth="yes"/>
      <point x="36" y="322"/>
      <point x="65" y="423"/>
      <point x="110" y="483"/>
      <point x="170" y="522"/>
      <point x="226" y="537"/>
      <point x="254" y="537" type="qcurve" smooth="yes"/>
      <point x="278" y="537"/>
      <point x="317" y="524" type="qcurve"/>
      <point x="278" y="564"/>
      <point x="219" y="613" type="qcurve"/>
      <point x="122" y="568" type="line"/>
      <point x="86" y="607" type="line"/>
      <point x="171" y="647" type="line"/>
      <point x="141" y="670"/>
      <point x="89" y="699" type="qcurve"/>
      <point x="133" y="743" type="line"/>
      <point x="170" y="727"/>
      <point x="244" y="680" type="qcurve"/>
      <point x="341" y="725" type="line"/>
      <point x="381" y="688" type="line"/>
      <point x="291" y="647" type="line"/>
      <point x="321" y="624"/>
      <point x="363" y="589"/>
      <point x="433" y="512"/>
      <point x="476" y="436"/>
      <point x="510" y="321"/>
      <point x="510" y="259" type="qcurve" smooth="yes"/>
      <point x="510" y="124"/>
      <point x="386" y="-23"/>
      <point x="160" y="-23"/>
      <point x="36" y="124"/>
    </contour>
    <contour>
      <point x="273" y="462" type="qcurve" smooth="yes"/>
      <point x="203" y="462"/>
      <point x="123" y="353"/>
      <point x="123" y="163"/>
      <point x="203" y="54"/>
      <point x="273" y="54" type="qcurve" smooth="yes"/>
      <point x="342" y="54"/>
      <point x="423" y="163"/>
      <point x="423" y="255" type="qcurve" smooth="yes"/>
      <point x="423" y="352"/>
      <point x="344" y="462"/>
    </contour>
  </outline>
</glyph>
<glyph name="oacute" format="1">
  <advance width="556"/>
  <unicode hex="00F3"/>
  <outline>
    <contour>
      <point x="298" y="740" type="line"/>
      <point x="411" y="740" type="line"/>
      <point x="262" y="592" type="line"/>
      <point x="202" y="592" type="line"/>
    </contour>
    <contour>
      <point x="272" y="539" type="qcurve" smooth="yes"/>
      <point x="385" y="539"/>
      <point x="510" y="390"/>
      <point x="510" y="254" type="qcurve" smooth="yes"/>
      <point x="510" y="125"/>
      <point x="383" y="-23"/>
      <point x="273" y="-23" type="qcurve" smooth="yes"/>
      <point x="161" y="-23"/>
      <point x="36" y="126"/>
      <point x="36" y="390"/>
      <point x="162" y="539"/>
    </contour>
    <contour>
      <point x="273" y="462" type="qcurve" smooth="yes"/>
      <point x="203" y="462"/>
      <point x="123" y="353"/>
      <point x="123" y="163"/>
      <point x="203" y="54"/>
      <point x="273" y="54" type="qcurve" smooth="yes"/>
      <point x="342" y="54"/>
      <point x="423" y="163"/>
      <point x="423" y="255" type="qcurve" smooth="yes"/>
      <point x="423" y="352"/>
      <point x="344" y="462"/>
    </contour>
  </outline>
</glyph>
<glyph name="oslash" format="1">
  <advance width="611"/>
  <unicode hex="00F8"/>
  <outline>
    <contour>
      <point x="529" y="511" type="line"/>
      <point x="466" y="440" type="line"/>
      <point x="510" y="367"/>
      <point x="510" y="258" type="qcurve" smooth="yes"/>
      <point x="510" y="126"/>
      <point x="385" y="-23"/>
      <point x="274" y="-23" type="qcurve" smooth="yes"/>
      <point x="171" y="-23"/>
      <point x="111" y="39" type="qcurve"/>
      <point x="50" y="-30" type="line"/>
      <point x="18" y="-2" type="line"/>
      <point x="84" y="72" type="line"/>
      <point x="36" y="143"/>
      <point x="36" y="258" type="qcurve" smooth="yes"/>
      <point x="36" y="390"/>
      <point x="162" y="539"/>
      <point x="273" y="539" type="qcurve" smooth="yes"/>
      <point x="374" y="539"/>
      <point x="439" y="474" type="qcurve"/>
      <point x="497" y="539" type="line"/>
    </contour>
    <contour>
      <point x="405" y="371" type="qcurve"/>
      <point x="167" y="102" type="line"/>
      <point x="210" y="54"/>
      <point x="273" y="54" type="qcurve" smooth="yes"/>
      <point x="343" y="54"/>
      <point x="423" y="163"/>
      <point x="423" y="258" type="qcurve" smooth="yes"/>
      <point x="423" y="324"/>
    </contour>
    <contour>
      <point x="144" y="141" type="qcurve"/>
      <point x="383" y="410" type="line"/>
      <point x="342" y="462"/>
      <point x="273" y="462" type="qcurve" smooth="yes"/>
      <point x="203" y="462"/>
      <point x="123" y="353"/>
      <point x="123" y="258" type="qcurve" smooth="yes"/>
      <point x="123" y="190"/>
    </contour>
  </outline>
</glyph>
<glyph name="ugrave" format="1">
  <advance width="556"/>
  <unicode hex="00F9"/>
  <outline>
    <contour>
      <point x="243" y="739" type="line"/>
      <point x="339" y="591" type="line"/>
      <point x="279" y="591" type="line"/>
      <point x="130" y="739" type="line"/>
    </contour>
    <contour>
      <point x="482" y="0" type="line"/>
      <point x="407" y="0" type="line"/>
      <point x="407" y="73" type="line"/>
      <point x="370" y="21"/>
      <point x="290" y="-23"/>
      <point x="232" y="-23" type="qcurve" smooth="yes"/>
      <point x="156" y="-23"/>
      <point x="65" y="55"/>
      <point x="65" y="120" type="qcurve" smooth="yes"/>
      <point x="65" y="524" type="line"/>
      <point x="148" y="524" type="line"/>
      <point x="148" y="153" type="line" smooth="yes"/>
      <point x="148" y="106"/>
      <point x="206" y="50"/>
      <point x="256" y="50" type="qcurve" smooth="yes"/>
      <point x="321" y="50"/>
      <point x="399" y="147"/>
      <point x="399" y="227" type="qcurve" smooth="yes"/>
      <point x="399" y="524" type="line"/>
      <point x="482" y="524" type="line"/>
    </contour>
  </outline>
</glyph>
<glyph name="uacute" format="1">
  <advance width="556"/>
  <unicode hex="00FA"/>
  <outline>
    <contour>
      <point x="296" y="740" type="line"/>
      <point x="409" y="740" type="line"/>
      <point x="260" y="592" type="line"/>
      <point x="200" y="592" type="line"/>
    </contour>
    <contour>
      <point x="482" y="0" type="line"/>
      <point x="407" y="0" type="line"/>
      <point x="407" y="73" type="line"/>
      <point x="370" y="21"/>
      <point x="290" y="-23"/>
      <point x="232" y="-23" type="qcurve" smooth="yes"/>
      <point x="156" y="-23"/>
      <point x="65" y="55"/>
      <point x="65" y="120" type="qcurve" smooth="yes"/>
      <point x="65" y="524" type="line"/>
      <point x="148" y="524" type="line"/>
      <point x="148" y="153" type="line" smooth="yes"/>
      <point x="148" y="106"/>
      <point x="206" y="50"/>
      <point x="256" y="50" type="qcurve" smooth="yes"/>
      <point x="321" y="50"/>
      <point x="399" y="147"/>
      <point x="399" y="227" type="qcurve" smooth="yes"/>
      <point x="399" y="524" type="line"/>
      <point x="482" y="524" type="line"/>
    </contour>
  </outline>
</glyph>
<glyph name="thorn" format="1">
  <advance width="555"/>
  <unicode hex="00FE"/>
  <outline>
    <contour>
      <point x="54" y="-218" type="line"/>
      <point x="54" y="714" type="line"/>
      <point x="137" y="714" type="line"/>
      <point x="137" y="459" type="line"/>
      <point x="193" y="539"/>
      <point x="298" y="539" type="qcurve" smooth="yes"/>
      <point x="400" y="539"/>
      <point x="522" y="383"/>
      <point x="522" y="253" type="qcurve" smooth="yes"/>
      <point x="522" y="128"/>
      <point x="399" y="-23"/>
      <point x="298" y="-23" type="qcurve" smooth="yes"/>
      <point x="201" y="-23"/>
      <point x="137" y="55" type="qcurve"/>
      <point x="137" y="-218" type="line"/>
    </contour>
    <contour>
      <point x="283" y="461" type="qcurve" smooth="yes"/>
      <point x="217" y="461"/>
      <point x="137" y="350"/>
      <point x="137" y="166"/>
      <point x="217" y="55"/>
      <point x="283" y="55" type="qcurve" smooth="yes"/>
      <point x="351" y="55"/>
      <point x="435" y="166"/>
      <point x="435" y="255" type="qcurve" smooth="yes"/>
      <point x="435" y="349"/>
      <point x="352" y="461"/>
    </contour>
  </outline>
</glyph>
<glyph name="Aogonek" format="1">
  <advance width="667"/>
  <unicode hex="0104"/>
  <outline>
    <contour>
      <point x="616" y="-205" type="qcurve" smooth="yes"/>
      <point x="560" y="-205"/>
      <point x="484" y="-153"/>
      <point x="484" y="-111" type="qcurve" smooth="yes"/>
      <point x="484" y="-75"/>
      <point x="535" y="-17"/>
      <point x="581" y="0" type="qcurve"/>
      <point x="549" y="0" type="line"/>
      <point x="474" y="219" type="line"/>
      <point x="193" y="219" type="line"/>
      <point x="116" y="0" type="line"/>
      <point x="17" y="0" type="line"/>
      <point x="277" y="729" type="line"/>
      <point x="397" y="729" type="line"/>
      <point x="653" y="0" type="line"/>
      <point x="651" y="0" type="line"/>
      <point x="596" y="-31"/>
      <point x="557" y="-75"/>
      <point x="557" y="-106" type="qcurve" smooth="yes"/>
      <point x="557" y="-160"/>
      <point x="629" y="-160" type="qcurve" smooth="yes"/>
      <point x="666" y="-160"/>
      <point x="692" y="-150" type="qcurve"/>
      <point x="692" y="-195" type="line"/>
      <point x="644" y="-205"/>
    </contour>
    <contour>
      <point x="448" y="297" type="line"/>
      <point x="336" y="629" type="line"/>
      <point x="216" y="297" type="line"/>
    </contour>
  </outline>
</glyph>
<glyph name="aogonek" format="1">
  <advance width="556"/>
  <unicode hex="0105"/>
  <outline>
    <contour>
      <point x="67" y="369" type="line"/>
      <point x="73" y="539"/>
      <point x="276" y="539" type="qcurve" smooth="yes"/>
      <point x="373" y="539"/>
      <point x="473" y="466"/>
      <point x="473" y="396" type="qcurve" smooth="yes"/>
      <point x="473" y="88" type="line" smooth="yes"/>
      <point x="473" y="47"/>
      <point x="518" y="47" type="qcurve" smooth="yes"/>
      <point x="527" y="47"/>
      <point x="536" y="49" type="qcurve"/>
      <point x="536" y="-14" type="line"/>
      <point x="460" y="-44"/>
      <point x="460" y="-105" type="qcurve" smooth="yes"/>
      <point x="460" y="-160"/>
      <point x="532" y="-160" type="qcurve" smooth="yes"/>
      <point x="570" y="-160"/>
      <point x="596" y="-150" type="qcurve"/>
      <point x="596" y="-195" type="line"/>
      <point x="554" y="-205"/>
      <point x="525" y="-205" type="qcurve" smooth="yes"/>
      <point x="495" y="-205"/>
      <point x="437" y="-189"/>
      <point x="388" y="-145"/>
      <point x="388" y="-112" type="qcurve" smooth="yes"/>
      <point x="388" y="-83"/>
      <point x="419" y="-43"/>
      <point x="456" y="-23" type="qcurve"/>
      <point x="399" y="-13"/>
      <point x="393" y="54" type="qcurve"/>
      <point x="312" y="-23"/>
      <point x="215" y="-23" type="qcurve" smooth="yes"/>
      <point x="136" y="-23"/>
      <point x="43" y="61"/>
      <point x="43" y="132" type="qcurve" smooth="yes"/>
      <point x="43" y="166"/>
      <point x="60" y="217"/>
      <point x="97" y="251"/>
      <point x="137" y="274"/>
      <point x="201" y="289"/>
      <point x="254" y="298"/>
      <point x="295" y="303" type="qcurve" smooth="yes"/>
      <point x="301" y="304"/>
      <point x="304" y="304" type="qcurve" smooth="yes"/>
      <point x="353" y="310"/>
      <point x="390" y="335"/>
      <point x="390" y="362" type="qcurve" smooth="yes"/>
      <point x="390" y="384" type="line" smooth="yes"/>
      <point x="390" y="462"/>
      <point x="273" y="462" type="qcurve" smooth="yes"/>
      <point x="215" y="462"/>
      <point x="156" y="417"/>
      <point x="151" y="369" type="qcurve"/>
    </contour>
    <contour>
      <point x="232" y="50" type="qcurve" smooth="yes"/>
      <point x="301" y="50"/>
      <point x="389" y="123"/>
      <point x="389" y="165" type="qcurve" smooth="yes"/>
      <point x="389" y="259" type="line"/>
      <point x="364" y="247"/>
      <point x="263" y="231"/>
      <point x="189" y="219"/>
      <point x="129" y="174"/>
      <point x="129" y="94"/>
      <point x="183" y="50"/>
    </contour>
  </outline>
</glyph>
<glyph name="cacute" format="1">
  <advance width="500"/>
  <unicode hex="0107"/>
  <outline>
    <contour>
      <point x="298" y="740" type="line"/>
      <point x="411" y="740" type="line"/>
      <point x="262" y="592" type="line"/>
      <point x="202" y="592" type="line"/>
    </contour>
    <contour>
      <point x="471" y="348" type="qcurve"/>
      <point x="387" y="348" type="line"/>
      <point x="379" y="403"/>
      <point x="315" y="462"/>
      <point x="263" y="462" type="qcurve" smooth="yes"/>
      <point x="195" y="462"/>
      <point x="118" y="351"/>
      <point x="118" y="253" type="qcurve" smooth="yes"/>
      <point x="118" y="160"/>
      <point x="196" y="54"/>
      <point x="265" y="54" type="qcurve" smooth="yes"/>
      <point x="372" y="54"/>
      <point x="393" y="180" type="qcurve"/>
      <point x="477" y="180" type="line"/>
      <point x="469" y="84"/>
      <point x="357" y="-23"/>
      <point x="263" y="-23" type="qcurve" smooth="yes"/>
      <point x="156" y="-23"/>
      <point x="31" y="126"/>
      <point x="31" y="253" type="qcurve" smooth="yes"/>
      <point x="31" y="383"/>
      <point x="158" y="539"/>
      <point x="264" y="539" type="qcurve" smooth="yes"/>
      <point x="355" y="539"/>
      <point x="464" y="441"/>
    </contour>
  </outline>
</glyph>
<glyph name="dcroat" format="1">
  <advance width="556"/>
  <unicode hex="0111"/>
  <outline>
    <contour>
      <point x="494" y="653" type="line"/>
      <point x="557" y="653" type="line"/>
      <point x="557" y="600" type="line"/>
      <point x="494" y="600" type="line"/>
      <point x="494" y="0" type="line"/>
      <point x="420" y="0" type="line"/>
      <point x="420" y="59" type="line"/>
      <point x="350" y="-23"/>
      <point x="252" y="-23" type="qcurve" smooth="yes"/>
      <point x="150" y="-23"/>
      <point x="26" y="134"/>
      <point x="26" y="264" type="qcurve" smooth="yes"/>
      <point x="26" y="388"/>
      <point x="149" y="539"/>
      <point x="250" y="539" type="qcurve" smooth="yes"/>
      <point x="347" y="539"/>
      <point x="411" y="461" type="qcurve"/>
      <point x="411" y="600" type="line"/>
      <point x="261" y="600" type="line"/>
      <point x="261" y="653" type="line"/>
      <point x="411" y="653" type="line"/>
      <point x="411" y="729" type="line"/>
      <point x="494" y="729" type="line"/>
    </contour>
    <contour>
      <point x="265" y="457" type="qcurve" smooth="yes"/>
      <point x="197" y="457"/>
      <point x="113" y="347"/>
      <point x="113" y="169"/>
      <point x="197" y="59"/>
      <point x="265" y="59" type="qcurve" smooth="yes"/>
      <point x="331" y="59"/>
      <point x="411" y="167"/>
      <point x="411" y="256" type="qcurve" smooth="yes"/>
      <point x="411" y="348"/>
      <point x="332" y="457"/>
    </contour>
  </outline>
</glyph>
<glyph name="Eogonek" format="1">
  <advance width="667"/>
  <unicode hex="0118"/>
  <outline>
    <contour>
      <point x="576" y="-205" type="qcurve" smooth="yes"/>
      <point x="520" y="-205"/>
      <point x="444" y="-153"/>
      <point x="444" y="-111" type="qcurve" smooth="yes"/>
      <point x="444" y="-75"/>
      <point x="495" y="-17"/>
      <point x="541" y="0" type="qcurve"/>
      <point x="90" y="0" type="line"/>
      <point x="90" y="729" type="line"/>
      <point x="595" y="729" type="line"/>
      <point x="595" y="647" type="line"/>
      <point x="183" y="647" type="line"/>
      <point x="183" y="414" type="line"/>
      <point x="580" y="414" type="line"/>
      <point x="580" y="332" type="line"/>
      <point x="183" y="332" type="line"/>
      <point x="183" y="82" type="line"/>
      <point x="613" y="82" type="line"/>
      <point x="613" y="0" type="line"/>
      <point x="611" y="0" type="line"/>
      <point x="556" y="-31"/>
      <point x="517" y="-75"/>
      <point x="517" y="-106" type="qcurve" smooth="yes"/>
      <point x="517" y="-160"/>
      <point x="589" y="-160" type="qcurve" smooth="yes"/>
      <point x="626" y="-160"/>
      <point x="652" y="-150" type="qcurve"/>
      <point x="652" y="-195" type="line"/>
      <point x="604" y="-205"/>
    </contour>
  </outline>
</glyph>
<glyph name="eogonek" format="1">
  <advance width="556"/>
  <unicode hex="0119"/>
  <outline>
    <contour>
      <point x="503" y="159" type="line"/>
      <point x="496" y="118"/>
      <point x="458" y="52"/>
      <point x="417" y="8"/>
      <point x="377" y="-32"/>
      <point x="351" y="-80"/>
      <point x="351" y="-109" type="qcurve" smooth="yes"/>
      <point x="351" y="-133"/>
      <point x="389" y="-160"/>
      <point x="423" y="-160" type="qcurve" smooth="yes"/>
      <point x="461" y="-160"/>
      <point x="487" y="-150" type="qcurve"/>
      <point x="487" y="-195" type="line"/>
      <point x="446" y="-204"/>
      <point x="418" y="-204" type="qcurve" smooth="yes"/>
      <point x="355" y="-204"/>
      <point x="279" y="-156"/>
      <point x="279" y="-116" type="qcurve" smooth="yes"/>
      <point x="279" y="-96"/>
      <point x="295" y="-60"/>
      <point x="318" y="-38"/>
      <point x="341" y="-18"/>
      <point x="347" y="-15" type="qcurve"/>
      <point x="307" y="-23"/>
      <point x="279" y="-23" type="qcurve" smooth="yes"/>
      <point x="167" y="-23"/>
      <point x="40" y="124"/>
      <point x="40" y="384"/>
      <point x="171" y="539"/>
      <point x="280" y="539" type="qcurve" smooth="yes"/>
      <point x="354" y="539"/>
      <point x="467" y="465"/>
      <point x="492" y="401" type="qcurve" smooth="yes"/>
      <point x="513" y="347"/>
      <point x="513" y="249" type="qcurve" smooth="yes"/>
      <point x="513" y="234" type="line"/>
      <point x="127" y="234" type="line"/>
      <point x="128" y="182"/>
      <point x="159" y="107"/>
      <point x="207" y="70"/>
      <point x="256" y="54"/>
      <point x="281" y="54" type="qcurve" smooth="yes"/>
      <point x="382" y="54"/>
      <point x="419" y="159" type="qcurve"/>
    </contour>
    <contour>
      <point x="424" y="302" type="line"/>
      <point x="424" y="308" type="line" smooth="yes"/>
      <point x="424" y="373"/>
      <point x="340" y="462"/>
      <point x="279" y="462" type="qcurve" smooth="yes"/>
      <point x="216" y="462"/>
      <point x="134" y="375"/>
      <point x="130" y="302" type="qcurve"/>
    </contour>
  </outline>
</glyph>
<glyph name="gcommaaccent" format="1">
  <advance width="697"/>
  <unicode hex="0123"/>
  <outline>
    <contour>
      <point x="290" y="583" type="line"/>
      <point x="209" y="583" type="line"/>
      <point x="209" y="652" type="line" smooth="yes"/>
      <point x="209" y="740"/>
      <point x="290" y="740" type="qcurve"/>
      <point x="290" y="698" type="line"/>
      <point x="287" y="698" type="line" smooth="yes"/>
      <point x="275" y="698"/>
      <point x="261" y="695"/>
      <point x="249" y="674"/>
      <point x="249" y="653" type="qcurve"/>
      <point x="290" y="653" type="line"/>
    </contour>
    <contour>
      <point x="245" y="-23" type="qcurve" smooth="yes"/>
      <point x="153" y="-23"/>
      <point x="29" y="128"/>
      <point x="29" y="253" type="qcurve" smooth="yes"/>
      <point x="29" y="381"/>
      <point x="152" y="539"/>
      <point x="252" y="539" type="qcurve" smooth="yes"/>
      <point x="350" y="539"/>
      <point x="412" y="448" type="qcurve"/>
      <point x="412" y="524" type="line"/>
      <point x="489" y="524" type="line"/>
      <point x="489" y="86" type="line" smooth="yes"/>
      <point x="489" y="11"/>
      <point x="471" y="-90"/>
      <point x="423" y="-176"/>
      <point x="328" y="-218"/>
      <point x="255" y="-218" type="qcurve" smooth="yes"/>
      <point x="163" y="-218"/>
      <point x="53" y="-134"/>
      <point x="46" y="-60" type="qcurve"/>
      <point x="131" y="-60" type="line"/>
      <point x="145" y="-148"/>
      <point x="258" y="-148" type="qcurve" smooth="yes"/>
      <point x="342" y="-148"/>
      <point x="404" y="-53"/>
      <point x="404" y="44" type="qcurve" smooth="yes"/>
      <point x="404" y="71" type="line"/>
      <point x="369" y="21"/>
      <point x="294" y="-23"/>
    </contour>
    <contour>
      <point x="261" y="462" type="qcurve" smooth="yes"/>
      <point x="194" y="462"/>
      <point x="116" y="352"/>
      <point x="116" y="258" type="qcurve" smooth="yes"/>
      <point x="116" y="163"/>
      <point x="194" y="54"/>
      <point x="262" y="54" type="qcurve" smooth="yes"/>
      <point x="328" y="54"/>
      <point x="404" y="161"/>
      <point x="404" y="255" type="qcurve" smooth="yes"/>
      <point x="404" y="353"/>
      <point x="329" y="462"/>
    </contour>
  </outline>
</glyph>
<glyph name="Hbar" format="1">
  <advance width="722"/>
  <unicode hex="0126"/>
  <outline>
    <contour>
      <point x="176" y="504" type="line"/>
      <point x="176" y="414" type="line"/>
      <point x="551" y="414" type="line"/>
      <point x="551" y="504" type="line"/>
    </contour>
    <contour>
      <point x="83" y="576" type="line"/>
      <point x="83" y="729" type="line"/>
      <point x="176" y="729" type="line"/>
      <point x="176" y="576" type="line"/>
      <point x="551" y="576" type="line"/>
      <point x="551" y="729" type="line"/>
      <point x="644" y="729" type="line"/>
      <point x="644" y="576" type="line"/>
      <point x="688" y="576" type="line"/>
      <point x="688" y="506" type="line"/>
      <point x="644" y="506" type="line"/>
      <point x="644" y="0" type="line"/>
      <point x="551" y="0" type="line"/>
      <point x="551" y="332" type="line"/>
      <point x="177" y="332" type="line"/>
      <point x="177" y="0" type="line"/>
      <point x="83" y="0" type="line"/>
      <point x="83" y="506" type="line"/>
      <point x="39" y="506" type="line"/>
      <point x="39" y="576" type="line"/>
    </contour>
  </outline>
</glyph>
<glyph name="Imacron" format="1">
  <advance width="278"/>
  <unicode hex="012A"/>
  <outline>
    <contour>
      <point x="284" y="871" type="line"/>
      <point x="284" y="801" type="line"/>
      <point x="10" y="801" type="line"/>
      <point x="10" y="871" type="line"/>
    </contour>
    <contour>
      <point x="194" y="729" type="line"/>
      <point x="194" y="0" type="line"/>
      <point x="100" y="0" type="line"/>
      <point x="100" y="729" type="line"/>
    </contour>
  </outline>
</glyph>
<glyph name="imacron" format="1">
  <advance width="278"/>
  <unicode hex="012B"/>
  <outline>
    <contour>
      <point x="273" y="669" type="line"/>
      <point x="273" y="599" type="line"/>
      <point x="-1" y="599" type="line"/>
      <point x="-1" y="669" type="line"/>
    </contour>
    <contour>
      <point x="177" y="524" type="line"/>
      <point x="177" y="0" type="line"/>
      <point x="94" y="0" type="line"/>
      <point x="94" y="524" type="line"/>
    </contour>
  </outline>
</glyph>
<glyph name="Iogonek" format="1">
  <advance width="278"/>
  <unicode hex="012E"/>
  <outline>
    <contour>
      <point x="158" y="-205" type="qcurve" smooth="yes"/>
      <point x="102" y="-205"/>
      <point x="26" y="-153"/>
      <point x="26" y="-111" type="qcurve" smooth="yes"/>
      <point x="26" y="-75"/>
      <point x="77" y="-17"/>
      <point x="123" y="0" type="qcurve"/>
      <point x="100" y="0" type="line"/>
      <point x="100" y="729" type="line"/>
      <point x="194" y="729" type="line"/>
      <point x="194" y="0" type="line"/>
      <point x="139" y="-31"/>
      <point x="99" y="-75"/>
      <point x="99" y="-106" type="qcurve" smooth="yes"/>
      <point x="99" y="-160"/>
      <point x="171" y="-160" type="qcurve" smooth="yes"/>
      <point x="208" y="-160"/>
      <point x="234" y="-150" type="qcurve"/>
      <point x="234" y="-195" type="line"/>
      <point x="186" y="-205"/>
    </contour>
  </outline>
</glyph>
<glyph name="iogonek" format="1">
  <advance width="222"/>
  <unicode hex="012F"/>
  <outline>
    <contour>
      <point x="114" y="-205" type="qcurve" smooth="yes"/>
      <point x="58" y="-205"/>
      <point x="-18" y="-153"/>
      <point x="-18" y="-111" type="qcurve" smooth="yes"/>
      <point x="-18" y="-78"/>
      <point x="27" y="-22"/>
      <point x="67" y="-5" type="qcurve"/>
      <point x="67" y="518" type="line"/>
      <point x="150" y="518" type="line"/>
      <point x="150" y="-6" type="line"/>
      <point x="138" y="-6" type="line"/>
      <point x="90" y="-34"/>
      <point x="55" y="-76"/>
      <point x="55" y="-106" type="qcurve" smooth="yes"/>
      <point x="55" y="-160"/>
      <point x="127" y="-160" type="qcurve" smooth="yes"/>
      <point x="164" y="-160"/>
      <point x="190" y="-150" type="qcurve"/>
      <point x="190" y="-195" type="line"/>
      <point x="142" y="-205"/>
    </contour>
    <contour>
      <point x="150" y="729" type="line"/>
      <point x="150" y="624" type="line"/>
      <point x="66" y="624" type="line"/>
      <point x="66" y="729" type="line"/>
    </contour>
  </outline>
</glyph>
<glyph name="dotlessi" format="1">
  <advance width="278"/>
  <unicode hex="0131"/>
  <outline>
    <contour>
      <point x="177" y="524" type="line"/>
      <point x="177" y="0" type="line"/>
      <point x="94" y="0" type="line"/>
      <point x="94" y="524" type="line"/>
    </contour>
  </outline>
</glyph>
<glyph name="lacute" format="1">
  <advance width="222"/>
  <unicode hex="013A"/>
  <outline>
    <contour>
      <point x="160" y="939" type="line"/>
      <point x="273" y="939" type="line"/>
      <point x="124" y="791" type="line"/>
      <point x="64" y="791" type="line"/>
    </contour>
    <contour>
      <point x="152" y="729" type="line"/>
      <point x="152" y="0" type="line"/>
      <point x="68" y="0" type="line"/>
      <point x="68" y="729" type="line"/>
    </contour>
  </outline>
</glyph>
<glyph name="Eng" format="1">
  <advance width="722"/>
  <unicode hex="014A"/>
  <outline>
    <contour>
      <point x="558" y="133" type="line"/>
      <point x="558" y="729" type="line"/>
      <point x="646" y="729" type="line"/>
      <point x="646" y="-109" type="line" smooth="yes"/>
      <point x="646" y="-162"/>
      <point x="569" y="-218"/>
      <point x="498" y="-218" type="qcurve" smooth="yes"/>
      <point x="485" y="-218"/>
      <point x="470" y="-215" type="qcurve"/>
      <point x="470" y="-134" type="line"/>
      <point x="487" y="-135"/>
      <point x="490" y="-135" type="qcurve" smooth="yes"/>
      <point x="490" y="-135"/>
      <point x="494" y="-135" type="qcurve" smooth="yes"/>
      <point x="558" y="-135"/>
      <point x="558" y="-76" type="qcurve" smooth="yes"/>
      <point x="558" y="-27" type="line"/>
      <point x="164" y="591" type="line"/>
      <point x="164" y="0" type="line"/>
      <point x="76" y="0" type="line"/>
      <point x="76" y="729" type="line"/>
      <point x="177" y="729" type="line"/>
    </contour>
  </outline>
</glyph>
<glyph name="eng" format="1">
  <advance width="556"/>
  <unicode hex="014B"/>
  <outline>
    <contour>
      <point x="487" y="396" type="qcurve" smooth="yes"/>
      <point x="487" y="-109" type="line" smooth="yes"/>
      <point x="487" y="-218"/>
      <point x="344" y="-218" type="qcurve" smooth="yes"/>
      <point x="331" y="-218"/>
      <point x="316" y="-215" type="qcurve"/>
      <point x="316" y="-144" type="line"/>
      <point x="333" y="-145"/>
      <point x="336" y="-145" type="qcurve" smooth="yes"/>
      <point x="374" y="-145"/>
      <point x="404" y="-115"/>
      <point x="404" y="-76" type="qcurve" smooth="yes"/>
      <point x="404" y="363" type="line" smooth="yes"/>
      <point x="404" y="410"/>
      <point x="346" y="466"/>
      <point x="296" y="466" type="qcurve" smooth="yes"/>
      <point x="232" y="466"/>
      <point x="154" y="369"/>
      <point x="154" y="289" type="qcurve" smooth="yes"/>
      <point x="154" y="0" type="line"/>
      <point x="70" y="0" type="line"/>
      <point x="70" y="524" type="line"/>
      <point x="147" y="524" type="line"/>
      <point x="147" y="436" type="line"/>
      <point x="182" y="491"/>
      <point x="263" y="539"/>
      <point x="321" y="539" type="qcurve" smooth="yes"/>
      <point x="397" y="539"/>
      <point x="487" y="461"/>
    </contour>
  </outline>
</glyph>
<glyph name="omacron" format="1">
  <advance width="556"/>
  <unicode hex="014D"/>
  <outline>
    <contour>
      <point x="409" y="669" type="line"/>
      <point x="409" y="599" type="line"/>
      <point x="135" y="599" type="line"/>
      <point x="135" y="669" type="line"/>
    </contour>
    <contour>
      <point x="272" y="539" type="qcurve" smooth="yes"/>
      <point x="385" y="539"/>
      <point x="510" y="390"/>
      <point x="510" y="254" type="qcurve" smooth="yes"/>
      <point x="510" y="125"/>
      <point x="383" y="-23"/>
      <point x="273" y="-23" type="qcurve" smooth="yes"/>
      <point x="161" y="-23"/>
      <point x="36" y="126"/>
      <point x="36" y="390"/>
      <point x="162" y="539"/>
    </contour>
    <contour>
      <point x="273" y="462" type="qcurve" smooth="yes"/>
      <point x="203" y="462"/>
      <point x="123" y="353"/>
      <point x="123" y="163"/>
      <point x="203" y="54"/>
      <point x="273" y="54" type="qcurve" smooth="yes"/>
      <point x="342" y="54"/>
      <point x="423" y="163"/>
      <point x="423" y="255" type="qcurve" smooth="yes"/>
      <point x="423" y="352"/>
      <point x="344" y="462"/>
    </contour>
  </outline>
</glyph>
<glyph name="OE" format="1">
  <advance width="1000"/>
  <unicode hex="0152"/>
  <outline>
    <contour>
      <point x="43" y="356" type="qcurve" smooth="yes"/>
      <point x="43" y="444"/>
      <point x="83" y="583"/>
      <point x="144" y="667"/>
      <point x="226" y="721"/>
      <point x="303" y="741"/>
      <point x="342" y="741" type="qcurve" smooth="yes"/>
      <point x="463" y="741"/>
      <point x="525" y="653" type="qcurve"/>
      <point x="525" y="729" type="line"/>
      <point x="954" y="729" type="line"/>
      <point x="954" y="647" type="line"/>
      <point x="618" y="647" type="line"/>
      <point x="618" y="409" type="line"/>
      <point x="946" y="409" type="line"/>
      <point x="946" y="327" type="line"/>
      <point x="618" y="327" type="line"/>
      <point x="618" y="82" type="line"/>
      <point x="959" y="82" type="line"/>
      <point x="959" y="0" type="line"/>
      <point x="525" y="0" type="line"/>
      <point x="525" y="74" type="line"/>
      <point x="458" y="-20"/>
      <point x="341" y="-20" type="qcurve" smooth="yes"/>
      <point x="301" y="-20"/>
      <point x="224" y="0"/>
      <point x="142" y="53"/>
      <point x="82" y="134"/>
      <point x="43" y="270"/>
    </contour>
    <contour>
      <point x="136" y="360" type="qcurve" smooth="yes"/>
      <point x="136" y="287"/>
      <point x="162" y="177"/>
      <point x="203" y="114"/>
      <point x="260" y="75"/>
      <point x="312" y="62"/>
      <point x="341" y="62" type="qcurve" smooth="yes"/>
      <point x="466" y="62"/>
      <point x="525" y="182" type="qcurve"/>
      <point x="525" y="539" type="line"/>
      <point x="466" y="659"/>
      <point x="342" y="659" type="qcurve" smooth="yes"/>
      <point x="311" y="659"/>
      <point x="258" y="645"/>
      <point x="201" y="606"/>
      <point x="162" y="542"/>
      <point x="136" y="432"/>
    </contour>
  </outline>
</glyph>
<glyph name="oe" format="1">
  <advance width="944"/>
  <unicode hex="0153"/>
  <outline>
    <contour>
      <point x="513" y="234" type="line"/>
      <point x="514" y="182"/>
      <point x="544" y="107"/>
      <point x="592" y="70"/>
      <point x="641" y="54"/>
      <point x="667" y="54" type="qcurve" smooth="yes"/>
      <point x="769" y="54"/>
      <point x="804" y="159" type="qcurve"/>
      <point x="888" y="159" type="line"/>
      <point x="872" y="73"/>
      <point x="754" y="-23"/>
      <point x="665" y="-23" type="qcurve" smooth="yes"/>
      <point x="533" y="-23"/>
      <point x="471" y="80" type="qcurve"/>
      <point x="408" y="-23"/>
      <point x="277" y="-23" type="qcurve" smooth="yes"/>
      <point x="164" y="-23"/>
      <point x="40" y="124"/>
      <point x="40" y="259" type="qcurve" smooth="yes"/>
      <point x="40" y="393"/>
      <point x="164" y="539"/>
      <point x="277" y="539" type="qcurve" smooth="yes"/>
      <point x="412" y="539"/>
      <point x="473" y="433" type="qcurve"/>
      <point x="504" y="483"/>
      <point x="605" y="539"/>
      <point x="666" y="539" type="qcurve" smooth="yes"/>
      <point x="740" y="539"/>
      <point x="853" y="465"/>
      <point x="878" y="401" type="qcurve" smooth="yes"/>
      <point x="899" y="346"/>
      <point x="899" y="234" type="qcurve"/>
    </contour>
    <contour>
      <point x="127" y="259" type="qcurve" smooth="yes"/>
      <point x="127" y="163"/>
      <point x="207" y="54"/>
      <point x="277" y="54" type="qcurve" smooth="yes"/>
      <point x="346" y="54"/>
      <point x="427" y="162"/>
      <point x="427" y="256" type="qcurve" smooth="yes"/>
      <point x="427" y="353"/>
      <point x="347" y="462"/>
      <point x="207" y="462"/>
      <point x="127" y="353"/>
    </contour>
    <contour>
      <point x="515" y="302" type="qcurve"/>
      <point x="809" y="302" type="line"/>
      <point x="809" y="373"/>
      <point x="729" y="462"/>
      <point x="665" y="462" type="qcurve" smooth="yes"/>
      <point x="602" y="462"/>
      <point x="520" y="375"/>
    </contour>
  </outline>
</glyph>
<glyph name="Scedilla" format="1">
  <advance width="667"/>
  <unicode hex="015E"/>
  <outline>
    <contour>
      <point x="342" y="59" type="qcurve" smooth="yes"/>
      <point x="398" y="59"/>
      <point x="476" y="85"/>
      <point x="513" y="127"/>
      <point x="528" y="168"/>
      <point x="528" y="191" type="qcurve" smooth="yes"/>
      <point x="528" y="274"/>
      <point x="394" y="309" type="qcurve" smooth="yes"/>
      <point x="213" y="357" type="line" smooth="yes"/>
      <point x="70" y="394"/>
      <point x="70" y="527" type="qcurve" smooth="yes"/>
      <point x="70" y="626"/>
      <point x="209" y="741"/>
      <point x="329" y="741" type="qcurve" smooth="yes"/>
      <point x="455" y="741"/>
      <point x="595" y="622"/>
      <point x="596" y="515" type="qcurve"/>
      <point x="508" y="515" type="line"/>
      <point x="507" y="586"/>
      <point x="413" y="663"/>
      <point x="326" y="663" type="qcurve" smooth="yes"/>
      <point x="252" y="663"/>
      <point x="163" y="595"/>
      <point x="163" y="540" type="qcurve" smooth="yes"/>
      <point x="163" y="498"/>
      <point x="217" y="450"/>
      <point x="283" y="432" type="qcurve" smooth="yes"/>
      <point x="466" y="383" type="line" smooth="yes"/>
      <point x="540" y="363"/>
      <point x="621" y="267"/>
      <point x="621" y="200" type="qcurve" smooth="yes"/>
      <point x="621" y="160"/>
      <point x="597" y="91"/>
      <point x="538" y="23"/>
      <point x="419" y="-20"/>
      <point x="335" y="-24" type="qcurve"/>
      <point x="320" y="-56" type="line"/>
      <point x="334" y="-54"/>
      <point x="348" y="-54" type="qcurve" smooth="yes"/>
      <point x="386" y="-54"/>
      <point x="427" y="-89"/>
      <point x="427" y="-121" type="qcurve" smooth="yes"/>
      <point x="427" y="-164"/>
      <point x="361" y="-214"/>
      <point x="304" y="-214" type="qcurve" smooth="yes"/>
      <point x="257" y="-214"/>
      <point x="179" y="-180" type="qcurve"/>
      <point x="200" y="-140" type="line"/>
      <point x="219" y="-150"/>
      <point x="273" y="-173"/>
      <point x="298" y="-173" type="qcurve" smooth="yes"/>
      <point x="321" y="-173"/>
      <point x="352" y="-147"/>
      <point x="352" y="-128" type="qcurve" smooth="yes"/>
      <point x="352" y="-91"/>
      <point x="306" y="-91" type="qcurve" smooth="yes"/>
      <point x="292" y="-91"/>
      <point x="275" y="-98" type="qcurve"/>
      <point x="264" y="-92" type="line"/>
      <point x="295" y="-23" type="line"/>
      <point x="286" y="-20"/>
      <point x="284" y="-20" type="qcurve" smooth="yes"/>
      <point x="240" y="-13" type="line"/>
      <point x="151" y="6"/>
      <point x="48" y="134"/>
      <point x="48" y="225" type="qcurve" smooth="yes"/>
      <point x="48" y="232" type="line"/>
      <point x="136" y="232" type="line"/>
      <point x="136" y="227" type="line" smooth="yes"/>
      <point x="136" y="196"/>
      <point x="155" y="142"/>
      <point x="198" y="90"/>
      <point x="283" y="59"/>
    </contour>
  </outline>
</glyph>
<glyph name="scedilla" format="1">
  <advance width="500"/>
  <unicode hex="015F"/>
  <outline>
    <contour>
      <point x="122" y="156" type="line"/>
      <point x="128" y="109"/>
      <point x="181" y="54"/>
      <point x="250" y="54" type="qcurve" smooth="yes"/>
      <point x="305" y="54"/>
      <point x="372" y="99"/>
      <point x="372" y="136" type="qcurve" smooth="yes"/>
      <point x="372" y="165"/>
      <point x="334" y="199"/>
      <point x="291" y="209" type="qcurve" smooth="yes"/>
      <point x="213" y="228" type="line" smooth="yes"/>
      <point x="120" y="250"/>
      <point x="47" y="317"/>
      <point x="47" y="379" type="qcurve" smooth="yes"/>
      <point x="47" y="452"/>
      <point x="157" y="539"/>
      <point x="339" y="539"/>
      <point x="437" y="455"/>
      <point x="438" y="378" type="qcurve"/>
      <point x="350" y="378" type="line"/>
      <point x="347" y="462"/>
      <point x="245" y="462" type="qcurve" smooth="yes"/>
      <point x="194" y="462"/>
      <point x="134" y="419"/>
      <point x="134" y="383" type="qcurve" smooth="yes"/>
      <point x="134" y="355"/>
      <point x="180" y="320"/>
      <point x="231" y="308" type="qcurve" smooth="yes"/>
      <point x="311" y="289" type="line" smooth="yes"/>
      <point x="389" y="270"/>
      <point x="459" y="201"/>
      <point x="459" y="143" type="qcurve" smooth="yes"/>
      <point x="459" y="96"/>
      <point x="407" y="18"/>
      <point x="361" y="-2" type="qcurve" smooth="yes"/>
      <point x="323" y="-19"/>
      <point x="244" y="-24" type="qcurve"/>
      <point x="230" y="-56" type="line"/>
      <point x="244" y="-54"/>
      <point x="258" y="-54" type="qcurve" smooth="yes"/>
      <point x="296" y="-54"/>
      <point x="337" y="-89"/>
      <point x="337" y="-121" type="qcurve" smooth="yes"/>
      <point x="337" y="-164"/>
      <point x="271" y="-214"/>
      <point x="214" y="-214" type="qcurve" smooth="yes"/>
      <point x="167" y="-214"/>
      <point x="89" y="-180" type="qcurve"/>
      <point x="110" y="-140" type="line"/>
      <point x="129" y="-150"/>
      <point x="183" y="-173"/>
      <point x="208" y="-173" type="qcurve" smooth="yes"/>
      <point x="231" y="-173"/>
      <point x="262" y="-147"/>
      <point x="262" y="-128" type="qcurve" smooth="yes"/>
      <point x="262" y="-91"/>
      <point x="216" y="-91" type="qcurve" smooth="yes"/>
      <point x="202" y="-91"/>
      <point x="185" y="-98" type="qcurve"/>
      <point x="174" y="-92" type="line"/>
      <point x="205" y="-21" type="line"/>
      <point x="37" y="-4"/>
      <point x="34" y="156" type="qcurve"/>
    </contour>
  </outline>
</glyph>
<glyph name="uni0162" format="1">
  <advance width="611"/>
  <unicode hex="0162"/>
  <outline>
    <contour>
      <point x="188" y="-139" type="line"/>
      <point x="213" y="-152"/>
      <point x="263" y="-172"/>
      <point x="309" y="-172"/>
      <point x="340" y="-146"/>
      <point x="340" y="-127" type="qcurve" smooth="yes"/>
      <point x="340" y="-90"/>
      <point x="294" y="-90" type="qcurve" smooth="yes"/>
      <point x="279" y="-90"/>
      <point x="263" y="-98" type="qcurve"/>
      <point x="251" y="-91" type="line"/>
      <point x="293" y="0" type="line"/>
      <point x="261" y="0" type="line"/>
      <point x="261" y="647" type="line"/>
      <point x="21" y="647" type="line"/>
      <point x="21" y="729" type="line"/>
      <point x="593" y="729" type="line"/>
      <point x="593" y="647" type="line"/>
      <point x="354" y="647" type="line"/>
      <point x="354" y="0" type="line"/>
      <point x="331" y="0" type="line"/>
      <point x="308" y="-55" type="line"/>
      <point x="321" y="-53"/>
      <point x="336" y="-53" type="qcurve" smooth="yes"/>
      <point x="374" y="-53"/>
      <point x="415" y="-88"/>
      <point x="415" y="-120" type="qcurve" smooth="yes"/>
      <point x="415" y="-163"/>
      <point x="349" y="-213"/>
      <point x="292" y="-213" type="qcurve" smooth="yes"/>
      <point x="245" y="-213"/>
      <point x="167" y="-179" type="qcurve"/>
    </contour>
  </outline>
</glyph>
<glyph name="uni0163" format="1">
  <advance width="278"/>
  <unicode hex="0163"/>
  <outline>
    <contour>
      <point x="66" y="-153" type="line"/>
      <point x="91" y="-166"/>
      <point x="141" y="-186"/>
      <point x="187" y="-186"/>
      <point x="218" y="-160"/>
      <point x="218" y="-141" type="qcurve" smooth="yes"/>
      <point x="218" y="-104"/>
      <point x="172" y="-104" type="qcurve" smooth="yes"/>
      <point x="157" y="-104"/>
      <point x="141" y="-112" type="qcurve"/>
      <point x="129" y="-105" type="line"/>
      <point x="167" y="-22" type="line"/>
      <point x="127" y="-18"/>
      <point x="85" y="24"/>
      <point x="85" y="60" type="qcurve" smooth="yes"/>
      <point x="85" y="456" type="line"/>
      <point x="14" y="456" type="line"/>
      <point x="14" y="524" type="line"/>
      <point x="85" y="524" type="line"/>
      <point x="85" y="668" type="line"/>
      <point x="168" y="668" type="line"/>
      <point x="168" y="524" type="line"/>
      <point x="254" y="524" type="line"/>
      <point x="254" y="456" type="line"/>
      <point x="168" y="456" type="line"/>
      <point x="168" y="97" type="line" smooth="yes"/>
      <point x="168" y="69"/>
      <point x="187" y="50"/>
      <point x="214" y="50" type="qcurve" smooth="yes"/>
      <point x="239" y="50"/>
      <point x="254" y="54" type="qcurve"/>
      <point x="254" y="-16" type="line"/>
      <point x="226" y="-21"/>
      <point x="205" y="-22" type="qcurve"/>
      <point x="186" y="-69" type="line"/>
      <point x="199" y="-67"/>
      <point x="214" y="-67" type="qcurve" smooth="yes"/>
      <point x="252" y="-67"/>
      <point x="293" y="-102"/>
      <point x="293" y="-134" type="qcurve" smooth="yes"/>
      <point x="293" y="-177"/>
      <point x="227" y="-227"/>
      <point x="170" y="-227" type="qcurve" smooth="yes"/>
      <point x="123" y="-227"/>
      <point x="45" y="-193" type="qcurve"/>
    </contour>
  </outline>
</glyph>
<glyph name="Tbar" format="1">
  <advance width="611"/>
  <unicode hex="0166"/>
  <outline>
    <contour>
      <point x="120" y="357" type="line"/>
      <point x="120" y="429" type="line"/>
      <point x="261" y="429" type="line"/>
      <point x="261" y="647" type="line"/>
      <point x="21" y="647" type="line"/>
      <point x="21" y="729" type="line"/>
      <point x="593" y="729" type="line"/>
      <point x="593" y="647" type="line"/>
      <point x="354" y="647" type="line"/>
      <point x="354" y="429" type="line"/>
      <point x="495" y="429" type="line"/>
      <point x="495" y="357" type="line"/>
      <point x="354" y="357" type="line"/>
      <point x="354" y="0" type="line"/>
      <point x="261" y="0" type="line"/>
      <point x="261" y="357" type="line"/>
    </contour>
  </outline>
</glyph>
<glyph name="Umacron" format="1">
  <advance width="722"/>
  <unicode hex="016A"/>
  <outline>
    <contour>
      <point x="502" y="871" type="line"/>
      <point x="502" y="801" type="line"/>
      <point x="228" y="801" type="line"/>
      <point x="228" y="871" type="line"/>
    </contour>
    <contour>
      <point x="552" y="729" type="line"/>
      <point x="645" y="729" type="line"/>
      <point x="645" y="217" type="line" smooth="yes"/>
      <point x="645" y="107"/>
      <point x="492" y="-23"/>
      <point x="364" y="-23" type="qcurve" smooth="yes"/>
      <point x="234" y="-23"/>
      <point x="85" y="106"/>
      <point x="85" y="217" type="qcurve" smooth="yes"/>
      <point x="85" y="729" type="line"/>
      <point x="178" y="729" type="line"/>
      <point x="178" y="217" type="line" smooth="yes"/>
      <point x="178" y="138"/>
      <point x="279" y="59"/>
      <point x="364" y="59" type="qcurve" smooth="yes"/>
      <point x="452" y="59"/>
      <point x="552" y="143"/>
      <point x="552" y="217" type="qcurve" smooth="yes"/>
    </contour>
  </outline>
</glyph>
<glyph name="Uogonek" format="1">
  <advance width="722"/>
  <unicode hex="0172"/>
  <outline>
    <contour>
      <point x="527" y="-205" type="qcurve" smooth="yes"/>
      <point x="470" y="-205"/>
      <point x="394" y="-153"/>
      <point x="394" y="-112" type="qcurve" smooth="yes"/>
      <point x="394" y="-81"/>
      <point x="428" y="-34"/>
      <point x="467" y="-10" type="qcurve"/>
      <point x="410" y="-23"/>
      <point x="366" y="-23" type="qcurve" smooth="yes"/>
      <point x="235" y="-23"/>
      <point x="85" y="105"/>
      <point x="85" y="217" type="qcurve" smooth="yes"/>
      <point x="85" y="729" type="line"/>
      <point x="178" y="729" type="line"/>
      <point x="178" y="217" type="line" smooth="yes"/>
      <point x="178" y="138"/>
      <point x="279" y="59"/>
      <point x="364" y="59" type="qcurve" smooth="yes"/>
      <point x="452" y="59"/>
      <point x="552" y="143"/>
      <point x="552" y="217" type="qcurve" smooth="yes"/>
      <point x="552" y="729" type="line"/>
      <point x="645" y="729" type="line"/>
      <point x="645" y="217" type="line" smooth="yes"/>
      <point x="645" y="165"/>
      <point x="608" y="78"/>
      <point x="556" y="21"/>
      <point x="504" y="-27"/>
      <point x="467" y="-79"/>
      <point x="467" y="-106" type="qcurve" smooth="yes"/>
      <point x="467" y="-160"/>
      <point x="539" y="-160" type="qcurve" smooth="yes"/>
      <point x="576" y="-160"/>
      <point x="602" y="-150" type="qcurve"/>
      <point x="602" y="-195" type="line"/>
      <point x="554" y="-205"/>
    </contour>
  </outline>
</glyph>
<glyph name="uogonek" format="1">
  <advance width="556"/>
  <unicode hex="0173"/>
  <outline>
    <contour>
      <point x="482" y="524" type="line"/>
      <point x="482" y="0" type="line"/>
      <point x="447" y="-20"/>
      <point x="405" y="-79"/>
      <point x="405" y="-108" type="qcurve" smooth="yes"/>
      <point x="405" y="-132"/>
      <point x="441" y="-160"/>
      <point x="472" y="-160" type="qcurve" smooth="yes"/>
      <point x="495" y="-160"/>
      <point x="521" y="-150" type="qcurve"/>
      <point x="521" y="-195" type="line"/>
      <point x="516" y="-196"/>
      <point x="477" y="-204"/>
      <point x="469" y="-204" type="qcurve" smooth="yes"/>
      <point x="407" y="-204"/>
      <point x="333" y="-154"/>
      <point x="333" y="-111" type="qcurve" smooth="yes"/>
      <point x="333" y="-49"/>
      <point x="429" y="0" type="qcurve"/>
      <point x="407" y="0" type="line"/>
      <point x="407" y="73" type="line"/>
      <point x="370" y="21"/>
      <point x="290" y="-23"/>
      <point x="232" y="-23" type="qcurve" smooth="yes"/>
      <point x="156" y="-23"/>
      <point x="65" y="55"/>
      <point x="65" y="120" type="qcurve" smooth="yes"/>
      <point x="65" y="524" type="line"/>
      <point x="148" y="524" type="line"/>
      <point x="148" y="153" type="line" smooth="yes"/>
      <point x="148" y="106"/>
      <point x="206" y="50"/>
      <point x="256" y="50" type="qcurve" smooth="yes"/>
      <point x="321" y="50"/>
      <point x="399" y="147"/>
      <point x="399" y="227" type="qcurve" smooth="yes"/>
      <point x="399" y="524" type="line"/>
    </contour>
  </outline>
</glyph>
<glyph name="Zacute" format="1">
  <advance width="611"/>
  <unicode hex="0179"/>
  <outline>
    <contour>
      <point x="348" y="939" type="line"/>
      <point x="461" y="939" type="line"/>
      <point x="312" y="791" type="line"/>
      <point x="252" y="791" type="line"/>
    </contour>
    <contour>
      <point x="581" y="729" type="line"/>
      <point x="581" y="645" type="line"/>
      <point x="145" y="82" type="line"/>
      <point x="583" y="82" type="line"/>
      <point x="583" y="0" type="line"/>
      <point x="28" y="0" type="line"/>
      <point x="28" y="82" type="line"/>
      <point x="466" y="647" type="line"/>
      <point x="56" y="647" type="line"/>
      <point x="56" y="729" type="line"/>
    </contour>
  </outline>
</glyph>
<glyph name="longs" format="1">
  <advance width="278"/>
  <unicode hex="017F"/>
  <outline>
    <contour>
      <point x="171" y="0" type="line"/>
      <point x="88" y="0" type="line"/>
      <point x="88" y="456" type="line"/>
      <point x="18" y="456" type="line"/>
      <point x="18" y="524" type="line"/>
      <point x="88" y="524" type="line"/>
      <point x="88" y="613" type="line" smooth="yes"/>
      <point x="88" y="669"/>
      <point x="153" y="732"/>
      <point x="211" y="732" type="qcurve" smooth="yes"/>
      <point x="234" y="732"/>
      <point x="258" y="727" type="qcurve"/>
      <point x="258" y="658" type="line"/>
      <point x="239" y="659"/>
      <point x="229" y="659" type="qcurve" smooth="yes"/>
      <point x="171" y="659"/>
      <point x="171" y="606" type="qcurve" smooth="yes"/>
    </contour>
  </outline>
</glyph>
<glyph name="uni0180" format="1">
  <advance width="556"/>
  <unicode hex="0180"/>
  <outline>
    <contour>
      <point x="89" y="653" type="line"/>
      <point x="89" y="729" type="line"/>
      <point x="172" y="729" type="line"/>
      <point x="172" y="653" type="line"/>
      <point x="322" y="653" type="line"/>
      <point x="322" y="600" type="line"/>
      <point x="172" y="600" type="line"/>
      <point x="172" y="461" type="line"/>
      <point x="236" y="539"/>
      <point x="333" y="539" type="qcurve" smooth="yes"/>
      <point x="434" y="539"/>
      <point x="557" y="388"/>
      <point x="557" y="264" type="qcurve" smooth="yes"/>
      <point x="557" y="134"/>
      <point x="433" y="-23"/>
      <point x="331" y="-23" type="qcurve" smooth="yes"/>
      <point x="233" y="-23"/>
      <point x="163" y="59" type="qcurve"/>
      <point x="163" y="0" type="line"/>
      <point x="89" y="0" type="line"/>
      <point x="89" y="600" type="line"/>
      <point x="26" y="600" type="line"/>
      <point x="26" y="653" type="line"/>
    </contour>
    <contour>
      <point x="318" y="457" type="qcurve" smooth="yes"/>
      <point x="251" y="457"/>
      <point x="172" y="348"/>
      <point x="172" y="256" type="qcurve" smooth="yes"/>
      <point x="172" y="167"/>
      <point x="252" y="59"/>
      <point x="318" y="59" type="qcurve" smooth="yes"/>
      <point x="386" y="59"/>
      <point x="470" y="169"/>
      <point x="470" y="347"/>
      <point x="386" y="457"/>
    </contour>
  </outline>
</glyph>
<glyph name="uni0181" format="1">
  <advance width="854"/>
  <unicode hex="0181"/>
  <outline>
    <contour>
      <point x="586" y="82" type="line" smooth="yes"/>
      <point x="635" y="82"/>
      <point x="697" y="125"/>
      <point x="717" y="177"/>
      <point x="717" y="207" type="qcurve" smooth="yes"/>
      <point x="717" y="264"/>
      <point x="649" y="333"/>
      <point x="586" y="333" type="qcurve" smooth="yes"/>
      <point x="359" y="333" type="line"/>
      <point x="359" y="82" type="line"/>
    </contour>
    <contour>
      <point x="539" y="647" type="qcurve" smooth="yes"/>
      <point x="359" y="647" type="line"/>
      <point x="359" y="415" type="line"/>
      <point x="539" y="415" type="line" smooth="yes"/>
      <point x="685" y="415"/>
      <point x="685" y="647"/>
    </contour>
    <contour>
      <point x="171" y="448" type="qcurve" smooth="yes"/>
      <point x="48" y="448"/>
      <point x="48" y="602" type="qcurve" smooth="yes"/>
      <point x="48" y="651"/>
      <point x="109" y="729"/>
      <point x="180" y="729" type="qcurve" smooth="yes"/>
      <point x="562" y="729" type="line" smooth="yes"/>
      <point x="623" y="729"/>
      <point x="713" y="693"/>
      <point x="758" y="634"/>
      <point x="778" y="575"/>
      <point x="778" y="544" type="qcurve" smooth="yes"/>
      <point x="778" y="432"/>
      <point x="677" y="385" type="qcurve"/>
      <point x="747" y="358"/>
      <point x="810" y="274"/>
      <point x="810" y="208" type="qcurve" smooth="yes"/>
      <point x="810" y="114"/>
      <point x="692" y="0"/>
      <point x="595" y="0" type="qcurve" smooth="yes"/>
      <point x="266" y="0" type="line"/>
      <point x="266" y="642" type="line"/>
      <point x="184" y="642" type="line" smooth="yes"/>
      <point x="135" y="642"/>
      <point x="135" y="584" type="qcurve" smooth="yes"/>
      <point x="135" y="561"/>
      <point x="162" y="531"/>
      <point x="189" y="531" type="qcurve" smooth="yes"/>
      <point x="191" y="531"/>
      <point x="207" y="532"/>
      <point x="218" y="532" type="qcurve"/>
      <point x="218" y="453" type="line"/>
      <point x="194" y="448"/>
    </contour>
  </outline>
</glyph>
<glyph name="uni0183" format="1">
  <advance width="556"/>
  <unicode hex="0183"/>
  <outline>
    <contour>
      <point x="283" y="461" type="qcurve" smooth="yes"/>
      <point x="217" y="461"/>
      <point x="137" y="350"/>
      <point x="137" y="166"/>
      <point x="217" y="55"/>
      <point x="283" y="55" type="qcurve" smooth="yes"/>
      <point x="351" y="55"/>
      <point x="436" y="166"/>
      <point x="436" y="255" type="qcurve" smooth="yes"/>
      <point x="436" y="349"/>
      <point x="353" y="461"/>
    </contour>
    <contour>
      <point x="54" y="0" type="line"/>
      <point x="54" y="729" type="line"/>
      <point x="445" y="729" type="line"/>
      <point x="445" y="656" type="line"/>
      <point x="137" y="656" type="line"/>
      <point x="137" y="453" type="line"/>
      <point x="194" y="539"/>
      <point x="299" y="539" type="qcurve" smooth="yes"/>
      <point x="403" y="539"/>
      <point x="523" y="391"/>
      <point x="523" y="264" type="qcurve" smooth="yes"/>
      <point x="523" y="134"/>
      <point x="399" y="-23"/>
      <point x="295" y="-23" type="qcurve" smooth="yes"/>
      <point x="188" y="-23"/>
      <point x="129" y="67" type="qcurve"/>
      <point x="129" y="0" type="line"/>
    </contour>
  </outline>
</glyph>
<glyph name="uni0184" format="1">
  <advance width="667"/>
  <unicode hex="0184"/>
  <outline>
    <contour>
      <point x="172" y="82" type="line"/>
      <point x="384" y="82" type="line" smooth="yes"/>
      <point x="448" y="82"/>
      <point x="530" y="164"/>
      <point x="530" y="225" type="qcurve" smooth="yes"/>
      <point x="530" y="289"/>
      <point x="449" y="369"/>
      <point x="384" y="369" type="qcurve" smooth="yes"/>
      <point x="172" y="369" type="line"/>
    </contour>
    <contour>
      <point x="79" y="729" type="line"/>
      <point x="172" y="729" type="line"/>
      <point x="172" y="451" type="line"/>
      <point x="337" y="451" type="line" smooth="yes"/>
      <point x="487" y="451"/>
      <point x="623" y="331"/>
      <point x="623" y="229" type="qcurve" smooth="yes"/>
      <point x="623" y="226" type="line" smooth="yes"/>
      <point x="623" y="127"/>
      <point x="493" y="0"/>
      <point x="393" y="0" type="qcurve" smooth="yes"/>
      <point x="79" y="0" type="line"/>
      <point x="79" y="451" type="line"/>
      <point x="-49" y="590" type="line"/>
    </contour>
  </outline>
</glyph>
<glyph name="uni0187" format="1">
  <advance width="722"/>
  <unicode hex="0187"/>
  <outline>
    <contour>
      <point x="48" y="356" type="qcurve" smooth="yes"/>
      <point x="48" y="406"/>
      <point x="65" y="504"/>
      <point x="113" y="610"/>
      <point x="184" y="689"/>
      <point x="305" y="741"/>
      <point x="381" y="741" type="qcurve" smooth="yes"/>
      <point x="519" y="741"/>
      <point x="591" y="662" type="qcurve"/>
      <point x="622" y="721"/>
      <point x="702" y="721" type="qcurve" smooth="yes"/>
      <point x="725" y="721"/>
      <point x="749" y="716" type="qcurve"/>
      <point x="749" y="637" type="line"/>
      <point x="730" y="638"/>
      <point x="720" y="638" type="qcurve" smooth="yes"/>
      <point x="690" y="638"/>
      <point x="662" y="614"/>
      <point x="662" y="585" type="qcurve" smooth="yes"/>
      <point x="662" y="503" type="line"/>
      <point x="567" y="503" type="line"/>
      <point x="551" y="581"/>
      <point x="457" y="659"/>
      <point x="370" y="659" type="qcurve" smooth="yes"/>
      <point x="264" y="659"/>
      <point x="141" y="497"/>
      <point x="141" y="357" type="qcurve" smooth="yes"/>
      <point x="141" y="220"/>
      <point x="269" y="59"/>
      <point x="378" y="59" type="qcurve" smooth="yes"/>
      <point x="468" y="59"/>
      <point x="564" y="160"/>
      <point x="581" y="266" type="qcurve"/>
      <point x="677" y="266" type="line"/>
      <point x="644" y="-23"/>
      <point x="377" y="-23" type="qcurve" smooth="yes"/>
      <point x="302" y="-23"/>
      <point x="183" y="28"/>
      <point x="112" y="106"/>
      <point x="65" y="211"/>
      <point x="48" y="307"/>
    </contour>
  </outline>
</glyph>
<glyph name="uni0188" format="1">
  <advance width="500"/>
  <unicode hex="0188"/>
  <outline>
    <contour>
      <point x="404" y="494" type="qcurve"/>
      <point x="429" y="556"/>
      <point x="511" y="556" type="qcurve" smooth="yes"/>
      <point x="534" y="556"/>
      <point x="558" y="551" type="qcurve"/>
      <point x="558" y="482" type="line"/>
      <point x="539" y="483"/>
      <point x="529" y="483" type="qcurve" smooth="yes"/>
      <point x="499" y="483"/>
      <point x="471" y="459"/>
      <point x="471" y="430" type="qcurve" smooth="yes"/>
      <point x="471" y="348" type="line"/>
      <point x="387" y="348" type="line"/>
      <point x="379" y="403"/>
      <point x="315" y="462"/>
      <point x="263" y="462" type="qcurve" smooth="yes"/>
      <point x="195" y="462"/>
      <point x="118" y="351"/>
      <point x="118" y="253" type="qcurve" smooth="yes"/>
      <point x="118" y="160"/>
      <point x="196" y="54"/>
      <point x="265" y="54" type="qcurve" smooth="yes"/>
      <point x="372" y="54"/>
      <point x="393" y="180" type="qcurve"/>
      <point x="477" y="180" type="line"/>
      <point x="469" y="84"/>
      <point x="357" y="-23"/>
      <point x="263" y="-23" type="qcurve" smooth="yes"/>
      <point x="156" y="-23"/>
      <point x="31" y="126"/>
      <point x="31" y="253" type="qcurve" smooth="yes"/>
      <point x="31" y="383"/>
      <point x="158" y="539"/>
      <point x="264" y="539" type="qcurve" smooth="yes"/>
      <point x="348" y="539"/>
    </contour>
  </outline>
</glyph>
<glyph name="uni018A" format="1">
  <advance width="899"/>
  <unicode hex="018A"/>
  <outline>
    <contour>
      <point x="359" y="82" type="line"/>
      <point x="531" y="82" type="line" smooth="yes"/>
      <point x="639" y="82"/>
      <point x="751" y="226"/>
      <point x="751" y="364" type="qcurve" smooth="yes"/>
      <point x="751" y="503"/>
      <point x="639" y="647"/>
      <point x="531" y="647" type="qcurve" smooth="yes"/>
      <point x="359" y="647" type="line"/>
    </contour>
    <contour>
      <point x="171" y="448" type="qcurve" smooth="yes"/>
      <point x="48" y="448"/>
      <point x="48" y="602" type="qcurve" smooth="yes"/>
      <point x="48" y="651"/>
      <point x="109" y="729"/>
      <point x="180" y="729" type="qcurve" smooth="yes"/>
      <point x="547" y="729" type="line" smooth="yes"/>
      <point x="686" y="729"/>
      <point x="844" y="535"/>
      <point x="844" y="195"/>
      <point x="685" y="0"/>
      <point x="547" y="0" type="qcurve" smooth="yes"/>
      <point x="266" y="0" type="line"/>
      <point x="266" y="642" type="line"/>
      <point x="184" y="642" type="line" smooth="yes"/>
      <point x="135" y="642"/>
      <point x="135" y="584" type="qcurve" smooth="yes"/>
      <point x="135" y="561"/>
      <point x="162" y="531"/>
      <point x="189" y="531" type="qcurve" smooth="yes"/>
      <point x="191" y="531"/>
      <point x="207" y="532"/>
      <point x="218" y="532" type="qcurve"/>
      <point x="218" y="453" type="line"/>
      <point x="194" y="448"/>
    </contour>
  </outline>
</glyph>
<glyph name="uni018B" format="1">
  <advance width="667"/>
  <unicode hex="018B"/>
  <outline>
    <contour>
      <point x="79" y="218" type="qcurve" smooth="yes"/>
      <point x="79" y="220" type="line" smooth="yes"/>
      <point x="79" y="435"/>
      <point x="350" y="435" type="qcurve" smooth="yes"/>
      <point x="530" y="435" type="line"/>
      <point x="530" y="647" type="line"/>
      <point x="134" y="647" type="line"/>
      <point x="134" y="729" type="line"/>
      <point x="623" y="729" type="line"/>
      <point x="623" y="0" type="line"/>
      <point x="294" y="0" type="line" smooth="yes"/>
      <point x="233" y="0"/>
      <point x="144" y="43"/>
      <point x="99" y="112"/>
      <point x="79" y="182"/>
    </contour>
    <contour>
      <point x="303" y="82" type="qcurve" smooth="yes"/>
      <point x="530" y="82" type="line"/>
      <point x="530" y="353" type="line"/>
      <point x="303" y="353" type="line" smooth="yes"/>
      <point x="264" y="353"/>
      <point x="208" y="326"/>
      <point x="183" y="282"/>
      <point x="172" y="240"/>
      <point x="172" y="194"/>
      <point x="183" y="153"/>
      <point x="208" y="108"/>
      <point x="264" y="82"/>
    </contour>
  </outline>
</glyph>
<glyph name="uni018C" format="1">
  <advance width="556"/>
  <unicode hex="018C"/>
  <outline>
    <contour>
      <point x="294" y="461" type="qcurve" smooth="yes"/>
      <point x="224" y="461"/>
      <point x="141" y="349"/>
      <point x="141" y="255" type="qcurve" smooth="yes"/>
      <point x="141" y="166"/>
      <point x="226" y="55"/>
      <point x="294" y="55" type="qcurve" smooth="yes"/>
      <point x="360" y="55"/>
      <point x="440" y="166"/>
      <point x="440" y="350"/>
      <point x="360" y="461"/>
    </contour>
    <contour>
      <point x="523" y="0" type="line"/>
      <point x="448" y="0" type="line"/>
      <point x="448" y="67" type="line"/>
      <point x="389" y="-23"/>
      <point x="282" y="-23" type="qcurve" smooth="yes"/>
      <point x="178" y="-23"/>
      <point x="54" y="134"/>
      <point x="54" y="264" type="qcurve" smooth="yes"/>
      <point x="54" y="391"/>
      <point x="174" y="539"/>
      <point x="278" y="539" type="qcurve" smooth="yes"/>
      <point x="383" y="539"/>
      <point x="440" y="453" type="qcurve"/>
      <point x="440" y="656" type="line"/>
      <point x="132" y="656" type="line"/>
      <point x="132" y="729" type="line"/>
      <point x="523" y="729" type="line"/>
    </contour>
  </outline>
</glyph>
<glyph name="uni018E" format="1">
  <advance width="667"/>
  <unicode hex="018E"/>
  <outline>
    <contour>
      <point x="520" y="332" type="line"/>
      <point x="123" y="332" type="line"/>
      <point x="123" y="414" type="line"/>
      <point x="520" y="414" type="line"/>
      <point x="520" y="647" type="line"/>
      <point x="108" y="647" type="line"/>
      <point x="108" y="729" type="line"/>
      <point x="613" y="729" type="line"/>
      <point x="613" y="0" type="line"/>
      <point x="90" y="0" type="line"/>
      <point x="90" y="82" type="line"/>
      <point x="520" y="82" type="line"/>
    </contour>
  </outline>
</glyph>
<glyph name="uni0190" format="1">
  <advance width="667"/>
  <unicode hex="0190"/>
  <outline>
    <contour>
      <point x="333" y="-23" type="qcurve" smooth="yes"/>
      <point x="252" y="-23"/>
      <point x="134" y="20"/>
      <point x="74" y="91"/>
      <point x="48" y="162"/>
      <point x="48" y="200" type="qcurve" smooth="yes"/>
      <point x="48" y="325"/>
      <point x="178" y="374" type="qcurve"/>
      <point x="73" y="419"/>
      <point x="73" y="527" type="qcurve" smooth="yes"/>
      <point x="73" y="626"/>
      <point x="212" y="741"/>
      <point x="332" y="741" type="qcurve" smooth="yes"/>
      <point x="458" y="741"/>
      <point x="598" y="622"/>
      <point x="599" y="515" type="qcurve"/>
      <point x="511" y="515" type="line"/>
      <point x="510" y="586"/>
      <point x="416" y="663"/>
      <point x="329" y="663" type="qcurve" smooth="yes"/>
      <point x="255" y="663"/>
      <point x="166" y="595"/>
      <point x="166" y="540" type="qcurve" smooth="yes"/>
      <point x="166" y="494"/>
      <point x="261" y="403"/>
      <point x="324" y="403" type="qcurve" smooth="yes"/>
      <point x="412" y="403" type="line"/>
      <point x="412" y="321" type="line"/>
      <point x="304" y="321" type="line" smooth="yes"/>
      <point x="237" y="321"/>
      <point x="141" y="237"/>
      <point x="141" y="191" type="qcurve" smooth="yes"/>
      <point x="141" y="169"/>
      <point x="156" y="128"/>
      <point x="193" y="85"/>
      <point x="271" y="59"/>
      <point x="327" y="59" type="qcurve" smooth="yes"/>
      <point x="386" y="59"/>
      <point x="471" y="89"/>
      <point x="514" y="141"/>
      <point x="533" y="196"/>
      <point x="533" y="227" type="qcurve" smooth="yes"/>
      <point x="533" y="232" type="line"/>
      <point x="621" y="232" type="line"/>
      <point x="620" y="158"/>
      <point x="566" y="53"/>
      <point x="477" y="0"/>
      <point x="385" y="-23"/>
    </contour>
  </outline>
</glyph>
<glyph name="uni0191" format="1">
  <advance width="611"/>
  <unicode hex="0191"/>
  <outline>
    <contour>
      <point x="90" y="-76" type="qcurve" smooth="yes"/>
      <point x="90" y="729" type="line"/>
      <point x="579" y="729" type="line"/>
      <point x="579" y="647" type="line"/>
      <point x="183" y="647" type="line"/>
      <point x="183" y="414" type="line"/>
      <point x="531" y="414" type="line"/>
      <point x="531" y="332" type="line"/>
      <point x="183" y="332" type="line"/>
      <point x="183" y="-109" type="line" smooth="yes"/>
      <point x="183" y="-162"/>
      <point x="102" y="-218"/>
      <point x="30" y="-218" type="qcurve" smooth="yes"/>
      <point x="17" y="-218"/>
      <point x="2" y="-215" type="qcurve"/>
      <point x="2" y="-134" type="line"/>
      <point x="19" y="-135"/>
      <point x="22" y="-135" type="qcurve" smooth="yes"/>
      <point x="90" y="-135"/>
    </contour>
  </outline>
</glyph>
<glyph name="florin" format="1">
  <advance width="278"/>
  <unicode hex="0192"/>
  <outline>
    <contour>
      <point x="258" y="524" type="line"/>
      <point x="258" y="456" type="line"/>
      <point x="171" y="456" type="line"/>
      <point x="171" y="-109" type="line" smooth="yes"/>
      <point x="171" y="-218"/>
      <point x="28" y="-218" type="qcurve" smooth="yes"/>
      <point x="15" y="-218"/>
      <point x="0" y="-215" type="qcurve"/>
      <point x="0" y="-144" type="line"/>
      <point x="17" y="-145"/>
      <point x="20" y="-145" type="qcurve" smooth="yes"/>
      <point x="58" y="-145"/>
      <point x="88" y="-115"/>
      <point x="88" y="-76" type="qcurve" smooth="yes"/>
      <point x="88" y="456" type="line"/>
      <point x="18" y="456" type="line"/>
      <point x="18" y="524" type="line"/>
      <point x="88" y="524" type="line"/>
      <point x="88" y="613" type="line" smooth="yes"/>
      <point x="88" y="669"/>
      <point x="153" y="732"/>
      <point x="211" y="732" type="qcurve" smooth="yes"/>
      <point x="234" y="732"/>
      <point x="258" y="727" type="qcurve"/>
      <point x="258" y="658" type="line"/>
      <point x="239" y="659"/>
      <point x="229" y="659" type="qcurve" smooth="yes"/>
      <point x="171" y="659"/>
      <point x="171" y="606" type="qcurve" smooth="yes"/>
      <point x="171" y="524" type="line"/>
    </contour>
  </outline>
</glyph>
<glyph name="uni0193" format="1">
  <advance width="778"/>
  <unicode hex="0193"/>
  <outline>
    <contour>
      <point x="137" y="362" type="qcurve" smooth="yes"/>
      <point x="137" y="324"/>
      <point x="151" y="247"/>
      <point x="187" y="163"/>
      <point x="244" y="100"/>
      <point x="338" y="59"/>
      <point x="398" y="59" type="qcurve" smooth="yes"/>
      <point x="498" y="59"/>
      <point x="627" y="185"/>
      <point x="627" y="283" type="qcurve" smooth="yes"/>
      <point x="627" y="303" type="line"/>
      <point x="405" y="303" type="line"/>
      <point x="405" y="385" type="line"/>
      <point x="709" y="385" type="line"/>
      <point x="709" y="-4" type="line"/>
      <point x="650" y="-4" type="line"/>
      <point x="627" y="93" type="line"/>
      <point x="523" y="-23"/>
      <point x="378" y="-23" type="qcurve" smooth="yes"/>
      <point x="230" y="-23"/>
      <point x="44" y="189"/>
      <point x="44" y="357" type="qcurve" smooth="yes"/>
      <point x="44" y="405"/>
      <point x="62" y="502"/>
      <point x="112" y="608"/>
      <point x="187" y="688"/>
      <point x="314" y="741"/>
      <point x="394" y="741" type="qcurve" smooth="yes"/>
      <point x="540" y="741"/>
      <point x="624" y="659" type="qcurve"/>
      <point x="652" y="726"/>
      <point x="739" y="726" type="qcurve" smooth="yes"/>
      <point x="762" y="726"/>
      <point x="786" y="721" type="qcurve"/>
      <point x="786" y="642" type="line"/>
      <point x="767" y="643"/>
      <point x="757" y="643" type="qcurve" smooth="yes"/>
      <point x="727" y="643"/>
      <point x="699" y="619"/>
      <point x="699" y="590" type="qcurve" smooth="yes"/>
      <point x="699" y="508" type="line"/>
      <point x="604" y="508" type="line"/>
      <point x="589" y="578"/>
      <point x="476" y="659"/>
      <point x="393" y="659" type="qcurve" smooth="yes"/>
      <point x="277" y="659"/>
      <point x="137" y="496"/>
    </contour>
  </outline>
</glyph>
<glyph name="uni0194" format="1">
  <advance width="667"/>
  <unicode hex="0194"/>
  <outline>
    <contour>
      <point x="342" y="67" type="qcurve" smooth="yes"/>
      <point x="371" y="67"/>
      <point x="371" y="103" type="qcurve" smooth="yes"/>
      <point x="371" y="138"/>
      <point x="343" y="194" type="qcurve"/>
      <point x="311" y="135"/>
      <point x="311" y="103" type="qcurve" smooth="yes"/>
      <point x="311" y="85"/>
      <point x="330" y="67"/>
    </contour>
    <contour>
      <point x="217" y="102" type="qcurve" smooth="yes"/>
      <point x="217" y="133"/>
      <point x="241" y="195"/>
      <point x="294" y="286" type="qcurve"/>
      <point x="13" y="729" type="line"/>
      <point x="128" y="729" type="line"/>
      <point x="342" y="374" type="line"/>
      <point x="550" y="729" type="line"/>
      <point x="661" y="729" type="line"/>
      <point x="387" y="286" type="line"/>
      <point x="464" y="183"/>
      <point x="464" y="110" type="qcurve" smooth="yes"/>
      <point x="464" y="48"/>
      <point x="392" y="-27"/>
      <point x="342" y="-27" type="qcurve" smooth="yes"/>
      <point x="298" y="-27"/>
      <point x="237" y="26"/>
      <point x="217" y="81"/>
    </contour>
  </outline>
</glyph>
<glyph name="uni0195" format="1">
  <advance width="889"/>
  <unicode hex="0195"/>
  <outline>
    <contour>
      <point x="559" y="-23" type="qcurve" smooth="yes"/>
      <point x="504" y="-23" type="line" smooth="yes"/>
      <point x="455" y="-23"/>
      <point x="403" y="20"/>
      <point x="403" y="60" type="qcurve" smooth="yes"/>
      <point x="403" y="363" type="line" smooth="yes"/>
      <point x="403" y="418"/>
      <point x="336" y="466"/>
      <point x="295" y="466" type="qcurve" smooth="yes"/>
      <point x="231" y="466"/>
      <point x="153" y="369"/>
      <point x="153" y="289" type="qcurve" smooth="yes"/>
      <point x="153" y="0" type="line"/>
      <point x="70" y="0" type="line"/>
      <point x="70" y="729" type="line"/>
      <point x="153" y="729" type="line"/>
      <point x="153" y="452" type="line"/>
      <point x="190" y="500"/>
      <point x="265" y="539"/>
      <point x="321" y="539" type="qcurve" smooth="yes"/>
      <point x="397" y="539"/>
      <point x="486" y="462"/>
      <point x="486" y="396" type="qcurve" smooth="yes"/>
      <point x="486" y="97" type="line" smooth="yes"/>
      <point x="486" y="50"/>
      <point x="559" y="50" type="qcurve" smooth="yes"/>
      <point x="604" y="50"/>
      <point x="674" y="85"/>
      <point x="712" y="134"/>
      <point x="736" y="195"/>
      <point x="744" y="238"/>
      <point x="744" y="254" type="qcurve" smooth="yes"/>
      <point x="744" y="300"/>
      <point x="691" y="416"/>
      <point x="619" y="467" type="qcurve"/>
      <point x="721" y="471" type="line"/>
      <point x="770" y="433"/>
      <point x="833" y="308"/>
      <point x="833" y="249" type="qcurve" smooth="yes"/>
      <point x="833" y="230"/>
      <point x="819" y="170"/>
      <point x="780" y="90"/>
      <point x="721" y="24"/>
      <point x="621" y="-23"/>
    </contour>
  </outline>
</glyph>
<glyph name="uni0196" format="1">
  <advance width="278"/>
  <unicode hex="0196"/>
  <outline>
    <contour>
      <point x="149" y="729" type="line"/>
      <point x="149" y="97" type="line" smooth="yes"/>
      <point x="149" y="69"/>
      <point x="168" y="50"/>
      <point x="195" y="50" type="qcurve" smooth="yes"/>
      <point x="220" y="50"/>
      <point x="235" y="54" type="qcurve"/>
      <point x="235" y="-16" type="line"/>
      <point x="196" y="-23"/>
      <point x="167" y="-23" type="qcurve" smooth="yes"/>
      <point x="118" y="-23"/>
      <point x="66" y="20"/>
      <point x="66" y="60" type="qcurve" smooth="yes"/>
      <point x="66" y="729" type="line"/>
    </contour>
  </outline>
</glyph>
<glyph name="uni0197" format="1">
  <advance width="333"/>
  <unicode hex="0197"/>
  <outline>
    <contour>
      <point x="119" y="339" type="line"/>
      <point x="0" y="339" type="line"/>
      <point x="0" y="406" type="line"/>
      <point x="119" y="406" type="line"/>
      <point x="119" y="729" type="line"/>
      <point x="213" y="729" type="line"/>
      <point x="213" y="406" type="line"/>
      <point x="333" y="406" type="line"/>
      <point x="333" y="339" type="line"/>
      <point x="213" y="339" type="line"/>
      <point x="213" y="0" type="line"/>
      <point x="119" y="0" type="line"/>
    </contour>
  </outline>
</glyph>
<glyph name="uni0198" format="1">
  <advance width="667"/>
  <unicode hex="0198"/>
  <outline>
    <contour>
      <point x="172" y="255" type="line"/>
      <point x="172" y="0" type="line"/>
      <point x="79" y="0" type="line"/>
      <point x="79" y="729" type="line"/>
      <point x="172" y="729" type="line"/>
      <point x="172" y="360" type="line"/>
      <point x="460" y="655" type="line" smooth="yes"/>
      <point x="525" y="716"/>
      <point x="586" y="716" type="qcurve" smooth="yes"/>
      <point x="638" y="716"/>
      <point x="672" y="685" type="qcurve"/>
      <point x="616" y="623" type="line"/>
      <point x="606" y="633"/>
      <point x="590" y="633" type="qcurve" smooth="yes"/>
      <point x="558" y="633"/>
      <point x="527" y="602" type="qcurve" smooth="yes"/>
      <point x="358" y="432" type="line"/>
      <point x="658" y="0" type="line"/>
      <point x="548" y="0" type="line"/>
      <point x="291" y="374" type="line"/>
    </contour>
  </outline>
</glyph>
<glyph name="uni0199" format="1">
  <advance width="500"/>
  <unicode hex="0199"/>
  <outline>
    <contour>
      <point x="58" y="0" type="line"/>
      <point x="58" y="613" type="line" smooth="yes"/>
      <point x="58" y="669"/>
      <point x="123" y="732"/>
      <point x="181" y="732" type="qcurve" smooth="yes"/>
      <point x="204" y="732"/>
      <point x="228" y="727" type="qcurve"/>
      <point x="228" y="658" type="line"/>
      <point x="209" y="659"/>
      <point x="199" y="659" type="qcurve" smooth="yes"/>
      <point x="141" y="659"/>
      <point x="141" y="606" type="qcurve" smooth="yes"/>
      <point x="141" y="302" type="line"/>
      <point x="363" y="524" type="line"/>
      <point x="470" y="524" type="line"/>
      <point x="288" y="343" type="line"/>
      <point x="502" y="0" type="line"/>
      <point x="399" y="0" type="line"/>
      <point x="222" y="284" type="line"/>
      <point x="141" y="204" type="line"/>
      <point x="141" y="0" type="line"/>
    </contour>
  </outline>
</glyph>
<glyph name="uni019A" format="1">
  <advance width="333"/>
  <unicode hex="019A"/>
  <outline>
    <contour>
      <point x="124" y="339" type="line"/>
      <point x="0" y="339" type="line"/>
      <point x="0" y="406" type="line"/>
      <point x="124" y="406" type="line"/>
      <point x="124" y="729" type="line"/>
      <point x="208" y="729" type="line"/>
      <point x="208" y="406" type="line"/>
      <point x="333" y="406" type="line"/>
      <point x="333" y="339" type="line"/>
      <point x="208" y="339" type="line"/>
      <point x="208" y="0" type="line"/>
      <point x="124" y="0" type="line"/>
    </contour>
  </outline>
</glyph>
<glyph name="uni019B" format="1">
  <advance width="560"/>
  <unicode hex="019B"/>
  <outline>
    <contour>
      <point x="132" y="732" type="qcurve" smooth="yes"/>
      <point x="174" y="732"/>
      <point x="232" y="696"/>
      <point x="262" y="643" type="qcurve"/>
      <point x="398" y="738" type="line"/>
      <point x="398" y="662" type="line"/>
      <point x="287" y="585" type="line"/>
      <point x="474" y="92" type="line" smooth="yes"/>
      <point x="482" y="73"/>
      <point x="502" y="73" type="qcurve" smooth="yes"/>
      <point x="507" y="73"/>
      <point x="533" y="81"/>
      <point x="536" y="84" type="qcurve" smooth="yes"/>
      <point x="556" y="14" type="line"/>
      <point x="508" y="-10"/>
      <point x="475" y="-10" type="qcurve" smooth="yes"/>
      <point x="450" y="-10"/>
      <point x="417" y="14"/>
      <point x="403" y="41"/>
      <point x="394" y="68" type="qcurve" smooth="yes"/>
      <point x="272" y="422" type="line"/>
      <point x="126" y="2" type="line"/>
      <point x="30" y="2" type="line"/>
      <point x="228" y="522" type="line"/>
      <point x="222" y="540" type="line"/>
      <point x="54" y="424" type="line"/>
      <point x="54" y="501" type="line"/>
      <point x="59" y="501"/>
      <point x="198" y="599" type="qcurve"/>
      <point x="182" y="628"/>
      <point x="145" y="646"/>
      <point x="120" y="646" type="qcurve" smooth="yes"/>
      <point x="66" y="638" type="line"/>
      <point x="76" y="720" type="line"/>
      <point x="109" y="732"/>
    </contour>
  </outline>
</glyph>
<glyph name="uni019C" format="1">
  <advance width="833"/>
  <unicode hex="019C"/>
  <outline>
    <contour>
      <point x="768" y="0" type="line"/>
      <point x="685" y="0" type="line"/>
      <point x="685" y="74" type="line"/>
      <point x="651" y="27"/>
      <point x="576" y="-15"/>
      <point x="524" y="-15" type="qcurve" smooth="yes"/>
      <point x="427" y="-15"/>
      <point x="383" y="65" type="qcurve"/>
      <point x="346" y="21"/>
      <point x="274" y="-15"/>
      <point x="222" y="-15" type="qcurve" smooth="yes"/>
      <point x="148" y="-15"/>
      <point x="64" y="61"/>
      <point x="64" y="131" type="qcurve" smooth="yes"/>
      <point x="64" y="729" type="line"/>
      <point x="159" y="729" type="line"/>
      <point x="159" y="174" type="line" smooth="yes"/>
      <point x="159" y="124"/>
      <point x="206" y="69"/>
      <point x="251" y="69" type="qcurve" smooth="yes"/>
      <point x="302" y="69"/>
      <point x="369" y="148"/>
      <point x="369" y="206" type="qcurve" smooth="yes"/>
      <point x="369" y="729" type="line"/>
      <point x="464" y="729" type="line"/>
      <point x="464" y="174" type="line" smooth="yes"/>
      <point x="464" y="69"/>
      <point x="555" y="69" type="qcurve" smooth="yes"/>
      <point x="606" y="69"/>
      <point x="673" y="148"/>
      <point x="673" y="206" type="qcurve" smooth="yes"/>
      <point x="673" y="729" type="line"/>
      <point x="768" y="729" type="line"/>
    </contour>
  </outline>
</glyph>
<glyph name="uni019D" format="1">
  <advance width="722"/>
  <unicode hex="019D"/>
  <outline>
    <contour>
      <point x="76" y="-76" type="qcurve" smooth="yes"/>
      <point x="76" y="729" type="line"/>
      <point x="177" y="729" type="line"/>
      <point x="558" y="133" type="line"/>
      <point x="558" y="729" type="line"/>
      <point x="646" y="729" type="line"/>
      <point x="646" y="0" type="line"/>
      <point x="541" y="0" type="line"/>
      <point x="164" y="591" type="line"/>
      <point x="164" y="-109" type="line" smooth="yes"/>
      <point x="164" y="-162"/>
      <point x="87" y="-218"/>
      <point x="16" y="-218" type="qcurve" smooth="yes"/>
      <point x="3" y="-218"/>
      <point x="-12" y="-215" type="qcurve"/>
      <point x="-12" y="-139" type="line"/>
      <point x="5" y="-140"/>
      <point x="8" y="-140" type="qcurve" smooth="yes"/>
      <point x="76" y="-140"/>
    </contour>
  </outline>
</glyph>
<glyph name="uni019E" format="1">
  <advance width="556"/>
  <unicode hex="019E"/>
  <outline>
    <contour>
      <point x="70" y="524" type="line"/>
      <point x="147" y="524" type="line"/>
      <point x="147" y="436" type="line"/>
      <point x="182" y="491"/>
      <point x="263" y="539"/>
      <point x="321" y="539" type="qcurve" smooth="yes"/>
      <point x="397" y="539"/>
      <point x="487" y="461"/>
      <point x="487" y="396" type="qcurve" smooth="yes"/>
      <point x="487" y="-200" type="line"/>
      <point x="404" y="-200" type="line"/>
      <point x="404" y="363" type="line" smooth="yes"/>
      <point x="404" y="410"/>
      <point x="346" y="466"/>
      <point x="296" y="466" type="qcurve" smooth="yes"/>
      <point x="232" y="466"/>
      <point x="154" y="369"/>
      <point x="154" y="289" type="qcurve" smooth="yes"/>
      <point x="154" y="0" type="line"/>
      <point x="70" y="0" type="line"/>
    </contour>
  </outline>
</glyph>
<glyph name="Ohorn" format="1">
  <advance width="778"/>
  <unicode hex="01A0"/>
  <outline>
    <contour>
      <point x="389" y="659" type="qcurve" smooth="yes"/>
      <point x="273" y="659"/>
      <point x="131" y="494"/>
      <point x="131" y="224"/>
      <point x="274" y="59"/>
      <point x="506" y="59"/>
      <point x="649" y="223"/>
      <point x="649" y="355" type="qcurve" smooth="yes"/>
      <point x="649" y="493"/>
      <point x="507" y="659"/>
    </contour>
    <contour>
      <point x="742" y="353" type="qcurve" smooth="yes"/>
      <point x="742" y="191"/>
      <point x="550" y="-23"/>
      <point x="390" y="-23" type="qcurve" smooth="yes"/>
      <point x="232" y="-23"/>
      <point x="38" y="188"/>
      <point x="38" y="530"/>
      <point x="232" y="741"/>
      <point x="389" y="741" type="qcurve" smooth="yes"/>
      <point x="451" y="741"/>
      <point x="559" y="705"/>
      <point x="625" y="669"/>
      <point x="637" y="669" type="qcurve" smooth="yes"/>
      <point x="662" y="669"/>
      <point x="686" y="672"/>
      <point x="704" y="685"/>
      <point x="704" y="699" type="qcurve" smooth="yes"/>
      <point x="704" y="722"/>
      <point x="687" y="742" type="qcurve"/>
      <point x="751" y="796" type="line"/>
      <point x="788" y="753"/>
      <point x="788" y="697" type="qcurve" smooth="yes"/>
      <point x="788" y="604"/>
      <point x="681" y="588" type="qcurve"/>
      <point x="742" y="491"/>
    </contour>
  </outline>
</glyph>
<glyph name="ohorn" format="1">
  <advance width="556"/>
  <unicode hex="01A1"/>
  <outline>
    <contour>
      <point x="273" y="462" type="qcurve" smooth="yes"/>
      <point x="203" y="462"/>
      <point x="123" y="353"/>
      <point x="123" y="163"/>
      <point x="203" y="54"/>
      <point x="273" y="54" type="qcurve" smooth="yes"/>
      <point x="342" y="54"/>
      <point x="423" y="163"/>
      <point x="423" y="255" type="qcurve" smooth="yes"/>
      <point x="423" y="352"/>
      <point x="344" y="462"/>
    </contour>
    <contour>
      <point x="528" y="631" type="line"/>
      <point x="565" y="588"/>
      <point x="565" y="532" type="qcurve" smooth="yes"/>
      <point x="565" y="446"/>
      <point x="473" y="426" type="qcurve"/>
      <point x="510" y="357"/>
      <point x="510" y="254" type="qcurve" smooth="yes"/>
      <point x="510" y="125"/>
      <point x="383" y="-23"/>
      <point x="273" y="-23" type="qcurve" smooth="yes"/>
      <point x="161" y="-23"/>
      <point x="36" y="126"/>
      <point x="36" y="390"/>
      <point x="162" y="539"/>
      <point x="272" y="539" type="qcurve" smooth="yes"/>
      <point x="328" y="539"/>
      <point x="410" y="504"/>
      <point x="423" y="504" type="qcurve" smooth="yes"/>
      <point x="454" y="504"/>
      <point x="481" y="516"/>
      <point x="481" y="534" type="qcurve" smooth="yes"/>
      <point x="481" y="557"/>
      <point x="464" y="577" type="qcurve"/>
    </contour>
  </outline>
</glyph>
<glyph name="uni01A2" format="1">
  <advance width="944"/>
  <unicode hex="01A2"/>
  <outline>
    <contour>
      <point x="389" y="659" type="qcurve" smooth="yes"/>
      <point x="273" y="659"/>
      <point x="131" y="494"/>
      <point x="131" y="224"/>
      <point x="274" y="59"/>
      <point x="506" y="59"/>
      <point x="649" y="223"/>
      <point x="649" y="355" type="qcurve" smooth="yes"/>
      <point x="649" y="493"/>
      <point x="507" y="659"/>
    </contour>
    <contour>
      <point x="742" y="353" type="qcurve" smooth="yes"/>
      <point x="742" y="191"/>
      <point x="550" y="-23"/>
      <point x="390" y="-23" type="qcurve" smooth="yes"/>
      <point x="232" y="-23"/>
      <point x="38" y="188"/>
      <point x="38" y="530"/>
      <point x="232" y="741"/>
      <point x="389" y="741" type="qcurve" smooth="yes"/>
      <point x="502" y="741"/>
      <point x="588" y="685" type="qcurve"/>
      <point x="672" y="746"/>
      <point x="768" y="746" type="qcurve" smooth="yes"/>
      <point x="851" y="746"/>
      <point x="924" y="643"/>
      <point x="924" y="559" type="qcurve" smooth="yes"/>
      <point x="924" y="0" type="line"/>
      <point x="830" y="0" type="line"/>
      <point x="830" y="589" type="line" smooth="yes"/>
      <point x="830" y="619"/>
      <point x="799" y="672"/>
      <point x="762" y="672" type="qcurve" smooth="yes"/>
      <point x="724" y="672"/>
      <point x="682" y="652"/>
      <point x="654" y="626" type="qcurve"/>
      <point x="742" y="521"/>
    </contour>
  </outline>
</glyph>
<glyph name="uni01A3" format="1">
  <advance width="722"/>
  <unicode hex="01A3"/>
  <outline>
    <contour>
      <point x="273" y="462" type="qcurve" smooth="yes"/>
      <point x="203" y="462"/>
      <point x="123" y="353"/>
      <point x="123" y="163"/>
      <point x="203" y="54"/>
      <point x="273" y="54" type="qcurve" smooth="yes"/>
      <point x="342" y="54"/>
      <point x="423" y="163"/>
      <point x="423" y="255" type="qcurve" smooth="yes"/>
      <point x="423" y="352"/>
      <point x="344" y="462"/>
    </contour>
    <contour>
      <point x="672" y="369" type="qcurve" smooth="yes"/>
      <point x="672" y="-200" type="line"/>
      <point x="588" y="-200" type="line"/>
      <point x="588" y="389" type="line" smooth="yes"/>
      <point x="588" y="428"/>
      <point x="566" y="470"/>
      <point x="532" y="470" type="qcurve" smooth="yes"/>
      <point x="493" y="470"/>
      <point x="458" y="451" type="qcurve"/>
      <point x="510" y="378"/>
      <point x="510" y="254" type="qcurve" smooth="yes"/>
      <point x="510" y="125"/>
      <point x="383" y="-23"/>
      <point x="273" y="-23" type="qcurve" smooth="yes"/>
      <point x="161" y="-23"/>
      <point x="36" y="126"/>
      <point x="36" y="390"/>
      <point x="162" y="539"/>
      <point x="272" y="539" type="qcurve" smooth="yes"/>
      <point x="356" y="539"/>
      <point x="412" y="498" type="qcurve"/>
      <point x="476" y="539"/>
      <point x="538" y="539" type="qcurve" smooth="yes"/>
      <point x="608" y="539"/>
      <point x="672" y="466"/>
    </contour>
  </outline>
</glyph>
<glyph name="uni01A4" format="1">
  <advance width="842"/>
  <unicode hex="01A4"/>
  <outline>
    <contour>
      <point x="359" y="391" type="line"/>
      <point x="553" y="391" type="line" smooth="yes"/>
      <point x="620" y="391"/>
      <point x="695" y="459"/>
      <point x="695" y="579"/>
      <point x="620" y="647"/>
      <point x="553" y="647" type="qcurve" smooth="yes"/>
      <point x="359" y="647" type="line"/>
    </contour>
    <contour>
      <point x="792" y="515" type="qcurve" smooth="yes"/>
      <point x="792" y="422"/>
      <point x="679" y="309"/>
      <point x="588" y="309" type="qcurve" smooth="yes"/>
      <point x="359" y="309" type="line"/>
      <point x="359" y="0" type="line"/>
      <point x="266" y="0" type="line"/>
      <point x="266" y="642" type="line"/>
      <point x="184" y="642" type="line" smooth="yes"/>
      <point x="135" y="642"/>
      <point x="135" y="584" type="qcurve" smooth="yes"/>
      <point x="135" y="561"/>
      <point x="162" y="531"/>
      <point x="189" y="531" type="qcurve" smooth="yes"/>
      <point x="191" y="531"/>
      <point x="207" y="532"/>
      <point x="218" y="532" type="qcurve"/>
      <point x="218" y="453" type="line"/>
      <point x="194" y="448"/>
      <point x="171" y="448" type="qcurve" smooth="yes"/>
      <point x="48" y="448"/>
      <point x="48" y="602" type="qcurve" smooth="yes"/>
      <point x="48" y="651"/>
      <point x="109" y="729"/>
      <point x="180" y="729" type="qcurve" smooth="yes"/>
      <point x="567" y="729" type="line" smooth="yes"/>
      <point x="675" y="729"/>
      <point x="792" y="618"/>
    </contour>
  </outline>
</glyph>
<glyph name="uni01A5" format="1">
  <advance width="556"/>
  <unicode hex="01A5"/>
  <outline>
    <contour>
      <point x="284" y="461" type="qcurve" smooth="yes"/>
      <point x="218" y="461"/>
      <point x="138" y="350"/>
      <point x="138" y="166"/>
      <point x="218" y="55"/>
      <point x="284" y="55" type="qcurve" smooth="yes"/>
      <point x="352" y="55"/>
      <point x="436" y="166"/>
      <point x="436" y="255" type="qcurve" smooth="yes"/>
      <point x="436" y="349"/>
      <point x="353" y="461"/>
    </contour>
    <contour>
      <point x="131" y="606" type="qcurve" smooth="yes"/>
      <point x="131" y="445" type="line"/>
      <point x="190" y="539"/>
      <point x="298" y="539" type="qcurve" smooth="yes"/>
      <point x="402" y="539"/>
      <point x="523" y="385"/>
      <point x="523" y="253" type="qcurve" smooth="yes"/>
      <point x="523" y="128"/>
      <point x="400" y="-23"/>
      <point x="299" y="-23" type="qcurve" smooth="yes"/>
      <point x="202" y="-23"/>
      <point x="138" y="55" type="qcurve"/>
      <point x="138" y="-218" type="line"/>
      <point x="54" y="-218" type="line"/>
      <point x="54" y="613" type="line" smooth="yes"/>
      <point x="54" y="670"/>
      <point x="116" y="732"/>
      <point x="173" y="732" type="qcurve" smooth="yes"/>
      <point x="194" y="732"/>
      <point x="218" y="727" type="qcurve"/>
      <point x="218" y="658" type="line"/>
      <point x="199" y="659"/>
      <point x="189" y="659" type="qcurve" smooth="yes"/>
      <point x="131" y="659"/>
    </contour>
  </outline>
</glyph>
<glyph name="uni01A6" format="1">
  <advance width="666"/>
  <unicode hex="01A6"/>
  <outline>
    <contour>
      <point x="184" y="271" type="line"/>
      <point x="378" y="271" type="line" smooth="yes"/>
      <point x="443" y="271"/>
      <point x="516" y="339"/>
      <point x="516" y="459"/>
      <point x="443" y="527"/>
      <point x="378" y="527" type="qcurve" smooth="yes"/>
      <point x="184" y="527" type="line"/>
    </contour>
    <contour>
      <point x="184" y="189" type="line"/>
      <point x="184" y="0" type="line"/>
      <point x="91" y="0" type="line"/>
      <point x="91" y="729" type="line"/>
      <point x="184" y="729" type="line"/>
      <point x="184" y="609" type="line"/>
      <point x="392" y="609" type="line" smooth="yes"/>
      <point x="496" y="609"/>
      <point x="616" y="496"/>
      <point x="616" y="397" type="qcurve" smooth="yes"/>
      <point x="616" y="281"/>
      <point x="530" y="223" type="qcurve"/>
      <point x="567" y="202"/>
      <point x="601" y="128"/>
      <point x="602" y="88.5" type="qcurve" smooth="yes"/>
      <point x="602.667" y="62.1667"/>
      <point x="602.667" y="36.5" type="qcurve" smooth="yes"/>
      <point x="602.667" y="23.6667"/>
      <point x="602.5" y="11" type="qcurve" smooth="yes"/>
      <point x="602.474" y="9"/>
      <point x="602.474" y="7.01939" type="qcurve" smooth="yes"/>
      <point x="602.474" y="-28.6316"/>
      <point x="611" y="-58" type="qcurve" smooth="yes"/>
      <point x="620" y="-89"/>
      <point x="646" y="-102" type="qcurve"/>
      <point x="646" y="-125" type="line"/>
      <point x="533" y="-125" type="line"/>
      <point x="513" y="-79"/>
      <point x="513" y="-6" type="qcurve" smooth="yes"/>
      <point x="513" y="59" type="line" smooth="yes"/>
      <point x="513" y="126"/>
      <point x="454" y="189"/>
      <point x="393" y="189" type="qcurve" smooth="yes"/>
    </contour>
  </outline>
</glyph>
<glyph name="uni01A7" format="1">
  <advance width="667"/>
  <unicode hex="01A7"/>
  <outline>
    <contour>
      <point x="327" y="59" type="qcurve" smooth="yes"/>
      <point x="386" y="59"/>
      <point x="471" y="90"/>
      <point x="514" y="142"/>
      <point x="533" y="196"/>
      <point x="533" y="227" type="qcurve" smooth="yes"/>
      <point x="533" y="232" type="line"/>
      <point x="621" y="232" type="line"/>
      <point x="620" y="172"/>
      <point x="583" y="80"/>
      <point x="527" y="25"/>
      <point x="449" y="-10"/>
      <point x="374" y="-23"/>
      <point x="333" y="-23" type="qcurve" smooth="yes"/>
      <point x="268" y="-23"/>
      <point x="165" y="7"/>
      <point x="103" y="53"/>
      <point x="63" y="114"/>
      <point x="48" y="171"/>
      <point x="48" y="200" type="qcurve" smooth="yes"/>
      <point x="48" y="267"/>
      <point x="129" y="363"/>
      <point x="203" y="383" type="qcurve" smooth="yes"/>
      <point x="386" y="432" type="line" smooth="yes"/>
      <point x="452" y="450"/>
      <point x="506" y="498"/>
      <point x="506" y="540" type="qcurve" smooth="yes"/>
      <point x="506" y="595"/>
      <point x="417" y="663"/>
      <point x="343" y="663" type="qcurve" smooth="yes"/>
      <point x="256" y="663"/>
      <point x="162" y="586"/>
      <point x="161" y="515" type="qcurve"/>
      <point x="73" y="515" type="line"/>
      <point x="74" y="622"/>
      <point x="214" y="741"/>
      <point x="340" y="741" type="qcurve" smooth="yes"/>
      <point x="460" y="741"/>
      <point x="599" y="626"/>
      <point x="599" y="527" type="qcurve" smooth="yes"/>
      <point x="599" y="394"/>
      <point x="456" y="357" type="qcurve" smooth="yes"/>
      <point x="275" y="309" type="line" smooth="yes"/>
      <point x="141" y="274"/>
      <point x="141" y="191" type="qcurve" smooth="yes"/>
      <point x="141" y="168"/>
      <point x="156" y="127"/>
      <point x="193" y="85"/>
      <point x="271" y="59"/>
    </contour>
  </outline>
</glyph>
<glyph name="uni01A8" format="1">
  <advance width="500"/>
  <unicode hex="01A8"/>
  <outline>
    <contour>
      <point x="371" y="156" type="qcurve"/>
      <point x="459" y="156" type="line"/>
      <point x="453" y="-23"/>
      <point x="250" y="-23" type="qcurve" smooth="yes"/>
      <point x="151" y="-23"/>
      <point x="34" y="67"/>
      <point x="34" y="143" type="qcurve" smooth="yes"/>
      <point x="34" y="201"/>
      <point x="104" y="270"/>
      <point x="182" y="289" type="qcurve" smooth="yes"/>
      <point x="262" y="308" type="line" smooth="yes"/>
      <point x="313" y="320"/>
      <point x="359" y="355"/>
      <point x="359" y="383" type="qcurve" smooth="yes"/>
      <point x="359" y="419"/>
      <point x="299" y="462"/>
      <point x="248" y="462" type="qcurve" smooth="yes"/>
      <point x="146" y="462"/>
      <point x="143" y="378" type="qcurve"/>
      <point x="55" y="378" type="line"/>
      <point x="56" y="455"/>
      <point x="154" y="539"/>
      <point x="336" y="539"/>
      <point x="446" y="452"/>
      <point x="446" y="379" type="qcurve" smooth="yes"/>
      <point x="446" y="317"/>
      <point x="373" y="250"/>
      <point x="280" y="228" type="qcurve" smooth="yes"/>
      <point x="202" y="209" type="line" smooth="yes"/>
      <point x="159" y="199"/>
      <point x="121" y="165"/>
      <point x="121" y="136" type="qcurve" smooth="yes"/>
      <point x="121" y="99"/>
      <point x="188" y="54"/>
      <point x="243" y="54" type="qcurve" smooth="yes"/>
      <point x="312" y="54"/>
      <point x="364" y="109"/>
    </contour>
  </outline>
</glyph>
<glyph name="uni01A9" format="1">
  <advance width="611"/>
  <unicode hex="01A9"/>
  <outline>
    <contour>
      <point x="247" y="365" type="line"/>
      <point x="30" y="645" type="line"/>
      <point x="30" y="729" type="line"/>
      <point x="555" y="729" type="line"/>
      <point x="555" y="647" type="line"/>
      <point x="145" y="647" type="line"/>
      <point x="364" y="365" type="line"/>
      <point x="145" y="82" type="line"/>
      <point x="583" y="82" type="line"/>
      <point x="583" y="0" type="line"/>
      <point x="28" y="0" type="line"/>
      <point x="28" y="82" type="line"/>
    </contour>
  </outline>
</glyph>
<glyph name="uni01AA" format="1">
  <advance width="333"/>
  <unicode hex="01AA"/>
  <outline>
    <contour>
      <point x="105" y="670" type="qcurve" smooth="yes"/>
      <point x="80" y="670"/>
      <point x="43" y="634"/>
      <point x="43" y="610" type="qcurve" smooth="yes"/>
      <point x="43" y="585"/>
      <point x="80" y="549"/>
      <point x="130" y="549"/>
      <point x="167" y="585"/>
      <point x="167" y="609" type="qcurve" smooth="yes"/>
      <point x="167" y="635"/>
      <point x="131" y="670"/>
    </contour>
    <contour>
      <point x="145" y="494" type="line"/>
      <point x="127" y="487"/>
      <point x="105" y="487" type="qcurve" smooth="yes"/>
      <point x="55" y="487"/>
      <point x="-18" y="560"/>
      <point x="-18" y="660"/>
      <point x="55" y="732"/>
      <point x="105" y="732" type="qcurve" smooth="yes"/>
      <point x="162" y="732"/>
      <point x="228" y="664"/>
      <point x="228" y="608" type="qcurve" smooth="yes"/>
      <point x="228" y="-76" type="line" smooth="yes"/>
      <point x="228" y="-115"/>
      <point x="259" y="-145"/>
      <point x="297" y="-145" type="qcurve" smooth="yes"/>
      <point x="300" y="-145"/>
      <point x="317" y="-144" type="qcurve"/>
      <point x="317" y="-215" type="line"/>
      <point x="302" y="-218"/>
      <point x="289" y="-218" type="qcurve" smooth="yes"/>
      <point x="145" y="-218"/>
      <point x="145" y="-109" type="qcurve" smooth="yes"/>
    </contour>
  </outline>
</glyph>
<glyph name="uni01AB" format="1">
  <advance width="278"/>
  <unicode hex="01AB"/>
  <outline>
    <contour>
      <point x="170" y="-22" type="line"/>
      <point x="129" y="-19"/>
      <point x="85" y="24"/>
      <point x="85" y="60" type="qcurve" smooth="yes"/>
      <point x="85" y="456" type="line"/>
      <point x="14" y="456" type="line"/>
      <point x="14" y="524" type="line"/>
      <point x="85" y="524" type="line"/>
      <point x="85" y="668" type="line"/>
      <point x="168" y="668" type="line"/>
      <point x="168" y="524" type="line"/>
      <point x="254" y="524" type="line"/>
      <point x="254" y="456" type="line"/>
      <point x="168" y="456" type="line"/>
      <point x="168" y="97" type="line" smooth="yes"/>
      <point x="168" y="69"/>
      <point x="187" y="50"/>
      <point x="214" y="50" type="qcurve" smooth="yes"/>
      <point x="239" y="50"/>
      <point x="254" y="54" type="qcurve"/>
      <point x="254" y="-109" type="line" smooth="yes"/>
      <point x="254" y="-218"/>
      <point x="110" y="-218" type="qcurve" smooth="yes"/>
      <point x="97" y="-218"/>
      <point x="82" y="-215" type="qcurve"/>
      <point x="82" y="-144" type="line"/>
      <point x="99" y="-145"/>
      <point x="102" y="-145" type="qcurve" smooth="yes"/>
      <point x="140" y="-145"/>
      <point x="170" y="-115"/>
      <point x="170" y="-76" type="qcurve" smooth="yes"/>
    </contour>
  </outline>
</glyph>
<glyph name="uni01AC" format="1">
  <advance width="611"/>
  <unicode hex="01AC"/>
  <outline>
    <contour>
      <point x="0" y="602" type="qcurve" smooth="yes"/>
      <point x="0" y="633"/>
      <point x="19" y="685"/>
      <point x="82" y="728"/>
      <point x="132" y="729" type="qcurve" smooth="yes"/>
      <point x="593" y="729" type="line"/>
      <point x="593" y="647" type="line"/>
      <point x="354" y="647" type="line"/>
      <point x="354" y="0" type="line"/>
      <point x="261" y="0" type="line"/>
      <point x="261" y="647" type="line"/>
      <point x="218" y="647" type="line"/>
      <point x="136" y="647" type="line" smooth="yes"/>
      <point x="87" y="647"/>
      <point x="87" y="531"/>
      <point x="141" y="531" type="qcurve" smooth="yes"/>
      <point x="151" y="531"/>
      <point x="170" y="532" type="qcurve"/>
      <point x="170" y="453" type="line"/>
      <point x="146" y="448"/>
      <point x="123" y="448" type="qcurve" smooth="yes"/>
      <point x="0" y="448"/>
    </contour>
  </outline>
</glyph>
<glyph name="uni01AD" format="1">
  <advance width="278"/>
  <unicode hex="01AD"/>
  <outline>
    <contour>
      <point x="168" y="606" type="qcurve" smooth="yes"/>
      <point x="168" y="524" type="line"/>
      <point x="254" y="524" type="line"/>
      <point x="254" y="456" type="line"/>
      <point x="168" y="456" type="line"/>
      <point x="168" y="97" type="line" smooth="yes"/>
      <point x="168" y="69"/>
      <point x="187" y="50"/>
      <point x="214" y="50" type="qcurve" smooth="yes"/>
      <point x="239" y="50"/>
      <point x="254" y="54" type="qcurve"/>
      <point x="254" y="-16" type="line"/>
      <point x="215" y="-23"/>
      <point x="186" y="-23" type="qcurve" smooth="yes"/>
      <point x="137" y="-23"/>
      <point x="85" y="20"/>
      <point x="85" y="60" type="qcurve" smooth="yes"/>
      <point x="85" y="456" type="line"/>
      <point x="14" y="456" type="line"/>
      <point x="14" y="524" type="line"/>
      <point x="85" y="524" type="line"/>
      <point x="85" y="613" type="line" smooth="yes"/>
      <point x="85" y="669"/>
      <point x="150" y="732"/>
      <point x="208" y="732" type="qcurve" smooth="yes"/>
      <point x="231" y="732"/>
      <point x="255" y="727" type="qcurve"/>
      <point x="255" y="658" type="line"/>
      <point x="236" y="659"/>
      <point x="226" y="659" type="qcurve" smooth="yes"/>
      <point x="168" y="659"/>
    </contour>
  </outline>
</glyph>
<glyph name="uni01AE" format="1">
  <advance width="611"/>
  <unicode hex="01AE"/>
  <outline>
    <contour>
      <point x="261" y="-109" type="qcurve" smooth="yes"/>
      <point x="261" y="647" type="line"/>
      <point x="21" y="647" type="line"/>
      <point x="21" y="729" type="line"/>
      <point x="593" y="729" type="line"/>
      <point x="593" y="647" type="line"/>
      <point x="354" y="647" type="line"/>
      <point x="354" y="-76" type="line" smooth="yes"/>
      <point x="354" y="-135"/>
      <point x="422" y="-135" type="qcurve" smooth="yes"/>
      <point x="425" y="-135"/>
      <point x="442" y="-134" type="qcurve"/>
      <point x="442" y="-215" type="line"/>
      <point x="427" y="-218"/>
      <point x="414" y="-218" type="qcurve" smooth="yes"/>
      <point x="342" y="-218"/>
      <point x="261" y="-162"/>
    </contour>
  </outline>
</glyph>
<glyph name="uhorn" format="1">
  <advance width="556"/>
  <unicode hex="01B0"/>
  <outline>
    <contour>
      <point x="586" y="651" type="line"/>
      <point x="623" y="608"/>
      <point x="623" y="552" type="qcurve" smooth="yes"/>
      <point x="623" y="445"/>
      <point x="482" y="440" type="qcurve"/>
      <point x="482" y="0" type="line"/>
      <point x="407" y="0" type="line"/>
      <point x="407" y="73" type="line"/>
      <point x="370" y="21"/>
      <point x="290" y="-23"/>
      <point x="232" y="-23" type="qcurve" smooth="yes"/>
      <point x="156" y="-23"/>
      <point x="65" y="55"/>
      <point x="65" y="120" type="qcurve" smooth="yes"/>
      <point x="65" y="524" type="line"/>
      <point x="148" y="524" type="line"/>
      <point x="148" y="153" type="line" smooth="yes"/>
      <point x="148" y="106"/>
      <point x="206" y="50"/>
      <point x="256" y="50" type="qcurve" smooth="yes"/>
      <point x="321" y="50"/>
      <point x="399" y="147"/>
      <point x="399" y="227" type="qcurve" smooth="yes"/>
      <point x="399" y="524" type="line"/>
      <point x="492" y="524" type="line" smooth="yes"/>
      <point x="516" y="525"/>
      <point x="539" y="536"/>
      <point x="539" y="554" type="qcurve" smooth="yes"/>
      <point x="539" y="577"/>
      <point x="522" y="597" type="qcurve"/>
    </contour>
  </outline>
</glyph>
<glyph name="uni01B2" format="1">
  <advance width="722"/>
  <unicode hex="01B2"/>
  <outline>
    <contour>
      <point x="334" y="-23" type="qcurve" smooth="yes"/>
      <point x="279" y="-23"/>
      <point x="202" y="-8"/>
      <point x="125" y="36"/>
      <point x="85" y="133"/>
      <point x="85" y="207" type="qcurve" smooth="yes"/>
      <point x="85" y="729" type="line"/>
      <point x="178" y="729" type="line"/>
      <point x="178" y="167" type="line" smooth="yes"/>
      <point x="178" y="135"/>
      <point x="202" y="90"/>
      <point x="242" y="68"/>
      <point x="282" y="59"/>
      <point x="304" y="59" type="qcurve" smooth="yes"/>
      <point x="343" y="59"/>
      <point x="414" y="74"/>
      <point x="484" y="113"/>
      <point x="535" y="174"/>
      <point x="567" y="271"/>
      <point x="567" y="334" type="qcurve" smooth="yes"/>
      <point x="567" y="336" type="line" smooth="yes"/>
      <point x="567" y="392"/>
      <point x="546" y="491"/>
      <point x="494" y="596"/>
      <point x="453" y="664"/>
      <point x="410" y="729" type="qcurve"/>
      <point x="518" y="729" type="line"/>
      <point x="660" y="539"/>
      <point x="660" y="346" type="qcurve" smooth="yes"/>
      <point x="660" y="171"/>
      <point x="481" y="-23"/>
    </contour>
  </outline>
</glyph>
